STARTFONT 2.1
COMMENT 
COMMENT Converted from OpenType font "SymbolsNerdFontMono-Regular.ttf" by "otf2bdf 3.0".
COMMENT 
FONT -FreeType-Symbols Nerd Font Mono-Medium-R-Normal--20-130-100-100-M-170-ISO10646-1
SIZE 13 100 100
FONTBOUNDINGBOX 10 20 0 0
STARTPROPERTIES 20
FOUNDRY "FreeType"
FAMILY_NAME "Symbols Nerd Font Mono"
WEIGHT_NAME "Medium"
SLANT "R"
SETWIDTH_NAME "Normal"
ADD_STYLE_NAME ""
PIXEL_SIZE 20
POINT_SIZE 130
RESOLUTION_X 100
RESOLUTION_Y 100
SPACING "C"
AVERAGE_WIDTH 170
CHARSET_REGISTRY "ISO10646"
CHARSET_ENCODING "1"
FONT_ASCENT 20
FONT_DESCENT 0
COPYRIGHT "Copyright (c) 2016, Ryan McIntyre"
_OTF_FONTFILE "SymbolsNerdFontMono-Regular.ttf"
_OTF_PSNAME "SymbolsNFM"
_GBDFED_INFO "Edited with gbdfed 1.6."
ENDPROPERTIES
CHARS 3189
STARTCHAR 23FB
ENCODING 9211
SWIDTH 1107 0
DWIDTH 10 0
BBX 10 20 0 0
BITMAP
0000
0000
0C00
0C00
0C00
0C00
4C80
EDC0
CCC0
CCC0
CCC0
CCC0
CCC0
C0C0
C0C0
C0C0
7380
3F00
3F00
0C00
ENDCHAR
STARTCHAR 23FC
ENCODING 9212
SWIDTH 1107 0
DWIDTH 10 0
BBX 10 20 0 0
BITMAP
0000
0000
1E00
7F80
7F80
6180
EDC0
CCC0
8C40
8C40
8C40
8C40
8C40
CCC0
EDC0
E1C0
7380
7F80
1E00
0C00
ENDCHAR
STARTCHAR 23FD
ENCODING 9213
SWIDTH 1107 0
DWIDTH 10 0
BBX 10 20 0 0
BITMAP
0000
0000
0000
0000
0000
0000
0000
0000
0000
0000
0000
0000
0000
0000
0000
0000
0000
0000
0000
0000
ENDCHAR
STARTCHAR 23FE
ENCODING 9214
SWIDTH 1107 0
DWIDTH 10 0
BBX 10 20 0 0
BITMAP
0000
0000
1800
3000
7000
7000
F000
F000
F000
F000
F000
F000
F800
F800
FC00
7E00
3F00
1F80
0FC0
01C0
ENDCHAR
STARTCHAR 2630
ENCODING 9776
SWIDTH 1107 0
DWIDTH 10 0
BBX 10 20 0 0
BITMAP
0000
0000
FFC0
FFC0
FFC0
FFC0
0000
0000
0000
FFC0
FFC0
FFC0
0000
0000
0000
FFC0
FFC0
FFC0
FFC0
0000
ENDCHAR
STARTCHAR 2665
ENCODING 9829
SWIDTH 1107 0
DWIDTH 10 0
BBX 10 20 0 0
BITMAP
0000
0000
0000
7380
DEC0
8C40
8C40
8C40
8040
8040
8040
8040
4080
6180
6180
3300
1E00
0C00
0000
0000
ENDCHAR
STARTCHAR 26A1
ENCODING 9889
SWIDTH 1107 0
DWIDTH 10 0
BBX 10 20 0 0
BITMAP
0000
0000
0300
0780
0F00
1D00
1A00
3200
63C0
E040
8040
80C0
F180
1100
1200
2600
2C00
3800
3000
2000
ENDCHAR
STARTCHAR 276C
ENCODING 10092
SWIDTH 1107 0
DWIDTH 10 0
BBX 10 20 0 0
BITMAP
0000
0000
0000
0000
0000
0000
0000
0000
0000
0000
0000
0000
0000
0000
0000
0000
0000
0000
0000
0000
ENDCHAR
STARTCHAR 276D
ENCODING 10093
SWIDTH 1107 0
DWIDTH 10 0
BBX 10 20 0 0
BITMAP
0000
0000
0000
0000
0000
0000
0000
0000
0000
0000
0000
0000
0000
0000
0000
0000
0000
0000
0000
0000
ENDCHAR
STARTCHAR 276E
ENCODING 10094
SWIDTH 1107 0
DWIDTH 10 0
BBX 10 20 0 0
BITMAP
0000
0000
0000
0000
0000
0000
0000
0000
0000
0000
0000
0000
0000
0000
0000
0000
0000
0000
0000
0000
ENDCHAR
STARTCHAR 276F
ENCODING 10095
SWIDTH 1107 0
DWIDTH 10 0
BBX 10 20 0 0
BITMAP
0000
0000
0000
0000
0000
0000
0000
0000
0000
0000
0000
0000
0000
0000
0000
0000
0000
0000
0000
0000
ENDCHAR
STARTCHAR 2770
ENCODING 10096
SWIDTH 1107 0
DWIDTH 10 0
BBX 10 20 0 0
BITMAP
0000
0000
0000
0000
0000
0000
0000
0000
0000
0000
0000
0000
0000
0000
0000
0000
0000
0000
0000
0000
ENDCHAR
STARTCHAR 2771
ENCODING 10097
SWIDTH 1107 0
DWIDTH 10 0
BBX 10 20 0 0
BITMAP
0000
0000
0000
0000
0000
0000
0000
0000
0000
0000
0000
0000
0000
0000
0000
0000
0000
0000
0000
0000
ENDCHAR
STARTCHAR 2B58
ENCODING 11096
SWIDTH 1107 0
DWIDTH 10 0
BBX 10 20 0 0
BITMAP
0000
0000
1E00
7F80
7F80
6180
E1C0
C0C0
8040
8040
8040
8040
8040
C0C0
E1C0
E1C0
7F80
7F80
1E00
0C00
ENDCHAR
STARTCHAR E000
ENCODING 57344
SWIDTH 1107 0
DWIDTH 10 0
BBX 10 20 0 0
BITMAP
0000
0000
0000
1180
DFC0
DFC0
2180
2480
3E80
BEC0
2080
2080
2080
2080
2080
2080
6080
6080
6080
0000
ENDCHAR
STARTCHAR E001
ENCODING 57345
SWIDTH 1107 0
DWIDTH 10 0
BBX 10 20 0 0
BITMAP
0000
0000
0800
6900
BB80
1A00
7B80
7F80
FEC0
FE40
FE40
FE40
FF40
FF40
FFC0
FFC0
7F80
7F80
3F00
0C00
ENDCHAR
STARTCHAR E002
ENCODING 57346
SWIDTH 1107 0
DWIDTH 10 0
BBX 10 20 0 0
BITMAP
0000
0000
0800
6900
BB80
1A00
7B80
7F80
8040
8040
8040
8040
8040
8040
8040
C0C0
6180
7380
3F00
0C00
ENDCHAR
STARTCHAR E003
ENCODING 57347
SWIDTH 1107 0
DWIDTH 10 0
BBX 10 20 0 0
BITMAP
0000
0000
0800
6900
BB80
1A00
7B80
7F80
FFC0
EFC0
EFC0
F3C0
F3C0
F3C0
F3C0
F3C0
7380
7F80
3F00
0C00
ENDCHAR
STARTCHAR E004
ENCODING 57348
SWIDTH 1107 0
DWIDTH 10 0
BBX 10 20 0 0
BITMAP
0000
0000
0800
6900
BB80
1A00
7B80
7F80
8040
8040
8040
8040
8040
FFC0
FFC0
FFC0
7F80
7F80
3F00
0C00
ENDCHAR
STARTCHAR E005
ENCODING 57349
SWIDTH 1107 0
DWIDTH 10 0
BBX 10 20 0 0
BITMAP
0000
0000
0000
0000
1800
1800
1000
1000
0000
FE00
FFC0
FFC0
FF40
FF40
FFC0
FE80
FE00
7C00
7C00
1000
ENDCHAR
STARTCHAR E006
ENCODING 57350
SWIDTH 1107 0
DWIDTH 10 0
BBX 10 20 0 0
BITMAP
0000
0000
3D80
7FC0
0F00
3FC0
3FC0
7FC0
CF40
0D00
0C80
0C00
0C00
1800
1800
FB00
FB00
FF80
FF00
1C00
ENDCHAR
STARTCHAR E007
ENCODING 57351
SWIDTH 1107 0
DWIDTH 10 0
BBX 10 20 0 0
BITMAP
0000
0000
7000
F000
F000
E800
A800
2C00
3C00
FF00
FFC0
FFC0
FF80
7F80
7F80
3F80
3C00
3C00
0C00
0400
ENDCHAR
STARTCHAR E008
ENCODING 57352
SWIDTH 1107 0
DWIDTH 10 0
BBX 10 20 0 0
BITMAP
0000
0000
0800
6D80
FFC0
1E00
7F80
FFC0
FFC0
EFC0
C3C0
DFC0
DFC0
DFC0
C3C0
EBC0
FF80
7F00
3F00
0C00
ENDCHAR
STARTCHAR E009
ENCODING 57353
SWIDTH 1107 0
DWIDTH 10 0
BBX 10 20 0 0
BITMAP
0000
0000
0000
0000
0000
0000
0000
0000
0000
0000
0000
0000
0000
0000
0000
0000
0000
0000
0000
0000
ENDCHAR
STARTCHAR E00A
ENCODING 57354
SWIDTH 1107 0
DWIDTH 10 0
BBX 10 20 0 0
BITMAP
0000
0000
7E00
7C00
7C00
7C00
7C00
79C0
FF80
FF80
FF00
CF00
0E00
0E00
0C00
1C00
1800
1800
1000
1000
ENDCHAR
STARTCHAR E0A0
ENCODING 57504
SWIDTH 1107 0
DWIDTH 10 0
BBX 10 20 0 0
BITMAP
0000
0000
0000
0000
0000
0000
0000
0000
0000
0000
0000
0000
0000
0000
0000
0000
0000
0000
0000
0000
ENDCHAR
STARTCHAR E0A1
ENCODING 57505
SWIDTH 1107 0
DWIDTH 10 0
BBX 10 20 0 0
BITMAP
0000
0000
0000
0000
0000
0000
0000
0000
0000
0000
0000
0000
0000
0000
0000
0000
0000
0000
0000
0000
ENDCHAR
STARTCHAR E0A2
ENCODING 57506
SWIDTH 1107 0
DWIDTH 10 0
BBX 10 20 0 0
BITMAP
0000
0000
1E00
3300
2100
2100
2100
2100
2100
7F80
FFC0
F3C0
F3C0
F3C0
F3C0
F3C0
F3C0
FFC0
FFC0
7F80
ENDCHAR
STARTCHAR E0A3
ENCODING 57507
SWIDTH 1107 0
DWIDTH 10 0
BBX 10 20 0 0
BITMAP
0040
0040
0040
0040
0040
0040
0040
0040
0040
0040
0040
0040
0040
0040
0040
0040
0040
0040
0040
0040
ENDCHAR
STARTCHAR E0B0
ENCODING 57520
SWIDTH 1107 0
DWIDTH 10 0
BBX 10 20 0 0
BITMAP
0000
0000
8000
C000
F000
F800
F800
FE00
FF00
FF80
FFC0
FF80
FF00
FE00
FC00
F800
F000
E000
8000
0000
ENDCHAR
STARTCHAR E0B1
ENCODING 57521
SWIDTH 1107 0
DWIDTH 10 0
BBX 10 20 0 0
BITMAP
0000
0000
0000
8000
E000
3000
1800
0C00
0300
0180
00C0
0040
00C0
0180
0300
0600
1800
3000
6000
8000
ENDCHAR
STARTCHAR E0B2
ENCODING 57522
SWIDTH 1107 0
DWIDTH 10 0
BBX 10 20 0 0
BITMAP
0000
0000
0040
00C0
03C0
07C0
0FC0
3FC0
7FC0
FFC0
FFC0
FFC0
7FC0
3FC0
1FC0
07C0
03C0
01C0
0040
0000
ENDCHAR
STARTCHAR E0B3
ENCODING 57523
SWIDTH 1107 0
DWIDTH 10 0
BBX 10 20 0 0
BITMAP
0000
0000
0000
0040
00C0
0300
0600
0C00
3000
6000
C000
8000
C000
6000
3000
1800
0600
0300
0180
0040
ENDCHAR
STARTCHAR E0B4
ENCODING 57524
SWIDTH 1107 0
DWIDTH 10 0
BBX 10 20 0 0
BITMAP
0000
0000
7800
7E00
7F00
7F80
7FC0
7FC0
7FC0
7FC0
7FC0
7FC0
7FC0
7FC0
7FC0
7F80
7F00
7E00
7800
4000
ENDCHAR
STARTCHAR E0B5
ENCODING 57525
SWIDTH 1107 0
DWIDTH 10 0
BBX 10 20 0 0
BITMAP
0000
0000
0000
0000
0000
0000
0000
0000
0000
0000
0000
0000
0000
0000
0000
0000
0000
0000
0000
0000
ENDCHAR
STARTCHAR E0B6
ENCODING 57526
SWIDTH 1107 0
DWIDTH 10 0
BBX 10 20 0 0
BITMAP
0000
0000
03C0
0FC0
1FC0
3FC0
7FC0
7FC0
7FC0
7FC0
7FC0
7FC0
7FC0
7FC0
7FC0
3FC0
1FC0
0FC0
03C0
0040
ENDCHAR
STARTCHAR E0B7
ENCODING 57527
SWIDTH 1107 0
DWIDTH 10 0
BBX 10 20 0 0
BITMAP
0000
0000
0000
0000
0000
0000
0000
0000
0000
0000
0000
0000
0000
0000
0000
0000
0000
0000
0000
0000
ENDCHAR
STARTCHAR E0B8
ENCODING 57528
SWIDTH 1107 0
DWIDTH 10 0
BBX 10 20 0 0
BITMAP
0000
0000
0000
8000
8000
C000
E000
E000
F000
F000
F800
FC00
FC00
FE00
FE00
FF00
FF80
FF80
FFC0
FFC0
ENDCHAR
STARTCHAR E0B9
ENCODING 57529
SWIDTH 1107 0
DWIDTH 10 0
BBX 10 20 0 0
BITMAP
0000
0000
0000
8000
0000
4000
0000
0000
0000
0000
0800
0000
0400
0200
0000
0100
0080
0000
0040
0000
ENDCHAR
STARTCHAR E0BA
ENCODING 57530
SWIDTH 1107 0
DWIDTH 10 0
BBX 10 20 0 0
BITMAP
0000
0000
0000
0040
0040
00C0
01C0
01C0
03C0
03C0
07C0
0FC0
0FC0
1FC0
1FC0
3FC0
7FC0
7FC0
FFC0
FFC0
ENDCHAR
STARTCHAR E0BB
ENCODING 57531
SWIDTH 1107 0
DWIDTH 10 0
BBX 10 20 0 0
BITMAP
0000
0000
0000
0040
0000
0080
0000
0000
0000
0000
0400
0000
0800
1000
0000
2000
4000
0000
8000
0000
ENDCHAR
STARTCHAR E0BC
ENCODING 57532
SWIDTH 1107 0
DWIDTH 10 0
BBX 10 20 0 0
BITMAP
0000
0000
0000
FFC0
FFC0
FF80
FF80
FF00
FE00
FE00
FC00
F800
F800
F000
E000
E000
C000
8000
8000
0000
ENDCHAR
STARTCHAR E0BD
ENCODING 57533
SWIDTH 1107 0
DWIDTH 10 0
BBX 10 20 0 0
BITMAP
0000
0000
0000
0040
0000
0080
0000
0000
0000
0000
0400
0000
0800
1000
0000
2000
4000
0000
8000
0000
ENDCHAR
STARTCHAR E0BE
ENCODING 57534
SWIDTH 1107 0
DWIDTH 10 0
BBX 10 20 0 0
BITMAP
0000
0000
0000
FFC0
FFC0
7FC0
7FC0
3FC0
1FC0
1FC0
0FC0
07C0
07C0
03C0
01C0
01C0
00C0
0040
0040
0000
ENDCHAR
STARTCHAR E0BF
ENCODING 57535
SWIDTH 1107 0
DWIDTH 10 0
BBX 10 20 0 0
BITMAP
0000
0000
0000
8000
0000
4000
0000
0000
0000
0000
0800
0000
0400
0200
0000
0100
0080
0000
0040
0000
ENDCHAR
STARTCHAR E0C0
ENCODING 57536
SWIDTH 1107 0
DWIDTH 10 0
BBX 10 20 0 0
BITMAP
0000
4000
DC00
B000
F380
F7C0
FF00
FC00
FF00
FC00
FC00
FC00
F300
F000
DC00
8000
E000
8000
0000
0000
ENDCHAR
STARTCHAR E0C1
ENCODING 57537
SWIDTH 1107 0
DWIDTH 10 0
BBX 10 20 0 0
BITMAP
0000
A000
5800
2000
1380
18C0
01C0
0000
0200
0400
0C00
0B00
1E00
3000
1800
6000
6000
8000
0000
0000
ENDCHAR
STARTCHAR E0C2
ENCODING 57538
SWIDTH 1107 0
DWIDTH 10 0
BBX 10 20 0 0
BITMAP
0000
0000
0240
03C0
31C0
7FC0
1FC0
0FC0
1FC0
07C0
07C0
0FC0
1BC0
03C0
0640
0040
01C0
0040
0000
0000
ENDCHAR
STARTCHAR E0C3
ENCODING 57539
SWIDTH 1107 0
DWIDTH 10 0
BBX 10 20 0 0
BITMAP
0000
0100
0680
0000
7200
C600
E000
0000
1000
0800
0C00
3400
1E00
0300
0600
0180
0180
0040
0000
0000
ENDCHAR
STARTCHAR E0C4
ENCODING 57540
SWIDTH 1107 0
DWIDTH 10 0
BBX 10 20 0 0
BITMAP
0000
0000
7700
0000
6B00
0400
6800
6000
6400
7400
0800
6C00
4480
4000
6000
6000
6000
0000
4000
0000
ENDCHAR
STARTCHAR E0C5
ENCODING 57541
SWIDTH 1107 0
DWIDTH 10 0
BBX 10 20 0 0
BITMAP
0000
0000
3B80
0000
3580
0800
0580
0180
0980
0B80
0400
0D80
4880
0080
0180
0180
0180
0000
0080
0000
ENDCHAR
STARTCHAR E0C6
ENCODING 57542
SWIDTH 1107 0
DWIDTH 10 0
BBX 10 20 0 0
BITMAP
0000
0000
3000
3000
0000
3600
3600
3000
3000
0000
0600
0600
3080
3080
0600
3400
3600
3000
3000
0000
ENDCHAR
STARTCHAR E0C7
ENCODING 57543
SWIDTH 1107 0
DWIDTH 10 0
BBX 10 20 0 0
BITMAP
0000
0000
0180
0180
0000
0D80
0D80
0180
0180
0000
0C00
0C00
2180
2180
0C00
0580
0D80
0180
0180
0000
ENDCHAR
STARTCHAR E0C8
ENCODING 57544
SWIDTH 1107 0
DWIDTH 10 0
BBX 10 20 0 0
BITMAP
0000
F000
F000
FF00
C000
F000
F000
C000
F000
F800
E000
FF80
FC00
C000
F000
F000
E000
C000
8000
0000
ENDCHAR
STARTCHAR E0CA
ENCODING 57546
SWIDTH 1107 0
DWIDTH 10 0
BBX 10 20 0 0
BITMAP
0000
03C0
01C0
3FC0
00C0
03C0
03C0
00C0
03C0
07C0
01C0
7FC0
0FC0
00C0
03C0
03C0
01C0
00C0
0040
0000
ENDCHAR
STARTCHAR E0CC
ENCODING 57548
SWIDTH 1107 0
DWIDTH 10 0
BBX 10 20 0 0
BITMAP
0000
0000
C000
E000
F000
F000
E000
E780
C7C0
07C0
07C0
07C0
C7C0
E7C0
E000
F000
F000
E000
E000
C000
ENDCHAR
STARTCHAR E0CD
ENCODING 57549
SWIDTH 1107 0
DWIDTH 10 0
BBX 10 20 0 0
BITMAP
0000
0000
1000
0000
0800
0000
0040
2400
0000
0000
0000
2000
0400
1000
0000
0000
1000
0000
E000
0000
ENDCHAR
STARTCHAR E0CE
ENCODING 57550
SWIDTH 1107 0
DWIDTH 10 0
BBX 10 20 0 0
BITMAP
0000
0000
3C00
3D00
7C80
7E80
7A80
F280
F080
F5C0
0FC0
F7C0
F440
F280
7A80
7E80
7C80
7D00
3C00
0000
ENDCHAR
STARTCHAR E0CF
ENCODING 57551
SWIDTH 1107 0
DWIDTH 10 0
BBX 10 20 0 0
BITMAP
0000
0000
0000
0C00
1E00
7380
7D80
8C40
7F80
3340
9E40
EDC0
E1C0
F3C0
F3C0
F3C0
F3C0
7380
1300
1200
ENDCHAR
STARTCHAR E0D0
ENCODING 57552
SWIDTH 1107 0
DWIDTH 10 0
BBX 10 20 0 0
BITMAP
0000
0000
8200
1040
0440
0C40
1C40
8200
4100
0000
0000
0000
2080
0040
1440
1C40
1C00
0200
3080
6180
ENDCHAR
STARTCHAR E0D1
ENCODING 57553
SWIDTH 1107 0
DWIDTH 10 0
BBX 10 20 0 0
BITMAP
0000
0000
FF00
FF00
FF00
FFC0
FFC0
FFC0
FFC0
FF00
FF00
FF00
FF00
FFC0
FFC0
FFC0
FFC0
FF00
FF00
FF00
ENDCHAR
STARTCHAR E0D2
ENCODING 57554
SWIDTH 1107 0
DWIDTH 10 0
BBX 10 20 0 0
BITMAP
0000
0000
FFC0
FF80
FF00
FE00
FC00
F800
F000
E000
0000
E000
F000
F800
FC00
FE00
FF00
FF80
FFC0
FFC0
ENDCHAR
STARTCHAR E0D4
ENCODING 57556
SWIDTH 1107 0
DWIDTH 10 0
BBX 10 20 0 0
BITMAP
0000
0000
FFC0
7FC0
3FC0
1FC0
0FC0
07C0
03C0
01C0
0000
01C0
03C0
07C0
0FC0
1FC0
3FC0
7FC0
FFC0
FFC0
ENDCHAR
STARTCHAR E0D6
ENCODING 57558
SWIDTH 1107 0
DWIDTH 10 0
BBX 10 20 0 0
BITMAP
0000
0000
FFC0
FF00
FE00
FC00
F800
F000
E000
8000
0000
8000
C000
F000
F800
F800
FE00
FF00
FF80
FFC0
ENDCHAR
STARTCHAR E0D7
ENCODING 57559
SWIDTH 1107 0
DWIDTH 10 0
BBX 10 20 0 0
BITMAP
0000
0000
FFC0
3FC0
1FC0
0FC0
07C0
03C0
01C0
0040
0000
0040
00C0
03C0
07C0
07C0
1FC0
3FC0
7FC0
FFC0
ENDCHAR
STARTCHAR E200
ENCODING 57856
SWIDTH 1107 0
DWIDTH 10 0
BBX 10 20 0 0
BITMAP
0000
0000
01C0
03C0
07C0
0F80
1F00
3E00
7C00
F800
F000
F800
7C00
3E00
1F00
0F80
07C0
03C0
01C0
0080
ENDCHAR
STARTCHAR E201
ENCODING 57857
SWIDTH 1107 0
DWIDTH 10 0
BBX 10 20 0 0
BITMAP
0000
0000
0000
0000
0C00
1E00
1E00
1F80
3FC0
7FC0
7FC0
FFC0
FFC0
FF80
0200
1000
0000
0000
0000
0000
ENDCHAR
STARTCHAR E202
ENCODING 57858
SWIDTH 1107 0
DWIDTH 10 0
BBX 10 20 0 0
BITMAP
0000
0000
0000
0000
0000
0000
0000
0000
0000
0000
0000
0000
0000
0000
0000
0000
0000
0000
0000
0000
ENDCHAR
STARTCHAR E203
ENCODING 57859
SWIDTH 1107 0
DWIDTH 10 0
BBX 10 20 0 0
BITMAP
0000
0000
0000
0000
0000
0000
7F80
7F80
7F80
7F80
FFC0
BF40
BF40
FFC0
FFC0
0000
0000
0000
0000
0000
ENDCHAR
STARTCHAR E204
ENCODING 57860
SWIDTH 1107 0
DWIDTH 10 0
BBX 10 20 0 0
BITMAP
0000
0000
0000
1400
1C00
0800
0000
0000
FFC0
FFC0
FFC0
FFC0
FFC0
7F80
7F80
3F00
1E00
0000
FFC0
FFC0
ENDCHAR
STARTCHAR E205
ENCODING 57861
SWIDTH 1107 0
DWIDTH 10 0
BBX 10 20 0 0
BITMAP
0000
C000
E000
E000
6000
1000
0000
0000
0000
0400
0000
0000
0000
0100
0000
0080
0080
0040
0000
0000
ENDCHAR
STARTCHAR E206
ENCODING 57862
SWIDTH 1107 0
DWIDTH 10 0
BBX 10 20 0 0
BITMAP
0000
0000
1C00
2000
6000
4000
8040
8040
8000
0000
0000
0000
0040
8040
8040
8040
0080
4180
0600
0400
ENDCHAR
STARTCHAR E207
ENCODING 57863
SWIDTH 1107 0
DWIDTH 10 0
BBX 10 20 0 0
BITMAP
0000
0000
0F80
DFC0
DFC0
FFC0
7FC0
3FC0
1FC0
1FC0
0FC0
1FC0
1FC0
1F80
FF00
FE00
8000
8000
C000
8000
ENDCHAR
STARTCHAR E208
ENCODING 57864
SWIDTH 1107 0
DWIDTH 10 0
BBX 10 20 0 0
BITMAP
0000
0000
0000
0E00
1F00
3F00
3FC0
7FC0
7FC0
FFC0
FFC0
FFC0
0000
0C00
0C00
1C00
0800
0000
1000
1000
ENDCHAR
STARTCHAR E209
ENCODING 57865
SWIDTH 1107 0
DWIDTH 10 0
BBX 10 20 0 0
BITMAP
0000
0000
E000
A000
B800
7C00
FF00
FF80
1F80
0DC0
0DC0
0D00
0E00
0800
0900
0100
1180
1080
1080
0000
ENDCHAR
STARTCHAR E20A
ENCODING 57866
SWIDTH 1107 0
DWIDTH 10 0
BBX 10 20 0 0
BITMAP
0000
0000
0000
0000
0000
0000
0000
0000
0000
0000
0000
0000
0000
0000
0000
0000
0000
0000
0000
0000
ENDCHAR
STARTCHAR E20B
ENCODING 57867
SWIDTH 1107 0
DWIDTH 10 0
BBX 10 20 0 0
BITMAP
0000
0000
0000
0000
0000
0000
0000
0000
0000
0000
0000
0000
0000
0000
0000
0000
0000
0000
0000
0000
ENDCHAR
STARTCHAR E20C
ENCODING 57868
SWIDTH 1107 0
DWIDTH 10 0
BBX 10 20 0 0
BITMAP
0000
0000
0000
0000
0000
0000
0000
0000
0000
0000
0000
0000
0000
0000
0000
0000
0000
0000
0000
0000
ENDCHAR
STARTCHAR E20D
ENCODING 57869
SWIDTH 1107 0
DWIDTH 10 0
BBX 10 20 0 0
BITMAP
0000
0000
8040
8040
4080
6180
2100
1200
1200
0C00
0C00
0C00
1A00
1200
3100
6180
6080
C040
8040
0000
ENDCHAR
STARTCHAR E20E
ENCODING 57870
SWIDTH 1107 0
DWIDTH 10 0
BBX 10 20 0 0
BITMAP
0000
0000
3F00
3F00
3F00
3F00
3F00
3F00
0000
0000
FFC0
FFC0
FF80
7F80
3F00
1E00
1E00
1E00
3F00
3F00
ENDCHAR
STARTCHAR E20F
ENCODING 57871
SWIDTH 1107 0
DWIDTH 10 0
BBX 10 20 0 0
BITMAP
0000
0000
7040
30C0
10C0
9180
B100
FA00
FC00
7C00
1E00
1E00
2F00
7F80
7780
F3C0
E3C0
E1C0
C1C0
0000
ENDCHAR
STARTCHAR E210
ENCODING 57872
SWIDTH 1107 0
DWIDTH 10 0
BBX 10 20 0 0
BITMAP
0000
6180
FFC0
FFC0
FFC0
FFC0
FFC0
FFC0
FFC0
FFC0
FFC0
F3C0
E1C0
E1C0
E1C0
E1C0
6180
6180
0000
0000
ENDCHAR
STARTCHAR E211
ENCODING 57873
SWIDTH 1107 0
DWIDTH 10 0
BBX 10 20 0 0
BITMAP
0000
0000
0000
0000
EDC0
1E00
1200
F3C0
F3C0
0C00
0C00
0C00
0000
0000
0000
0000
0000
0800
0000
0000
ENDCHAR
STARTCHAR E212
ENCODING 57874
SWIDTH 1107 0
DWIDTH 10 0
BBX 10 20 0 0
BITMAP
0000
0000
FFC0
FFC0
FFC0
FFC0
FFC0
C240
CEC0
8BC0
A6C0
A240
FFC0
FFC0
FFC0
FFC0
7F80
3F00
0C00
0000
ENDCHAR
STARTCHAR E213
ENCODING 57875
SWIDTH 1107 0
DWIDTH 10 0
BBX 10 20 0 0
BITMAP
0000
0000
1C00
1C00
0000
1C00
3C00
7E00
5F00
D9C0
F800
F800
3C00
3E00
3600
3600
6300
6300
C300
4000
ENDCHAR
STARTCHAR E214
ENCODING 57876
SWIDTH 1107 0
DWIDTH 10 0
BBX 10 20 0 0
BITMAP
0000
0000
0C00
0C00
5E80
7F80
7F80
7F80
7F80
7F80
FFC0
FFC0
7F80
7F80
7F80
7F80
7F80
0C00
0C00
0000
ENDCHAR
STARTCHAR E215
ENCODING 57877
SWIDTH 1107 0
DWIDTH 10 0
BBX 10 20 0 0
BITMAP
0000
0000
1E00
3F00
7F80
7F80
FFC0
FDC0
F1C0
E5C0
89C0
F1C0
F1C0
E9C0
FDC0
7F80
7F80
7F80
1E00
0000
ENDCHAR
STARTCHAR E216
ENCODING 57878
SWIDTH 1107 0
DWIDTH 10 0
BBX 10 20 0 0
BITMAP
0000
0000
0040
00C0
00C0
01C0
01C0
0380
0380
0700
0700
0E00
1C00
1C00
3800
3800
7000
7000
6000
2000
ENDCHAR
STARTCHAR E217
ENCODING 57879
SWIDTH 1107 0
DWIDTH 10 0
BBX 10 20 0 0
BITMAP
0000
0000
0000
0040
01C0
03C0
0EC0
1FC0
7DC0
FBC0
F3C0
6780
0F80
0F80
0F80
0B80
0380
1180
0000
0000
ENDCHAR
STARTCHAR E218
ENCODING 57880
SWIDTH 1107 0
DWIDTH 10 0
BBX 10 20 0 0
BITMAP
0000
0000
0000
1200
7380
FFC0
FFC0
FFC0
FFC0
FFC0
3F00
3F00
3F00
3F00
3F00
3F00
3F00
3F00
0000
0000
ENDCHAR
STARTCHAR E219
ENCODING 57881
SWIDTH 1107 0
DWIDTH 10 0
BBX 10 20 0 0
BITMAP
0000
0000
0000
0000
0000
0000
5800
7C00
C780
FE80
7DC0
FBC0
FBC0
F6C0
FFC0
FF40
0000
0000
0000
0000
ENDCHAR
STARTCHAR E21A
ENCODING 57882
SWIDTH 1107 0
DWIDTH 10 0
BBX 10 20 0 0
BITMAP
0000
0000
A000
A000
B000
5000
7000
3000
1800
1800
1400
0800
0C00
0580
0FC0
0600
1CC0
1BC0
1E00
0000
ENDCHAR
STARTCHAR E21B
ENCODING 57883
SWIDTH 1107 0
DWIDTH 10 0
BBX 10 20 0 0
BITMAP
0000
8000
8000
C000
E000
E000
7000
F000
F800
7C00
DC00
DE00
4E00
CF00
C780
7F80
7FC0
FFC0
FFC0
0000
ENDCHAR
STARTCHAR E21C
ENCODING 57884
SWIDTH 1107 0
DWIDTH 10 0
BBX 10 20 0 0
BITMAP
0000
0000
1E00
3F00
3F00
7F80
7FC0
7FC0
7FC0
FFC0
BFC0
FFC0
DF80
7000
0C00
0C00
0C00
0C00
0C00
0C00
ENDCHAR
STARTCHAR E21D
ENCODING 57885
SWIDTH 1107 0
DWIDTH 10 0
BBX 10 20 0 0
BITMAP
0000
0000
0000
0000
1000
7E00
6200
4200
8F00
9E00
1E00
9F80
BFC0
7FC0
7FC0
FFC0
FFC0
FF80
0000
0000
ENDCHAR
STARTCHAR E21E
ENCODING 57886
SWIDTH 1107 0
DWIDTH 10 0
BBX 10 20 0 0
BITMAP
0000
0000
0000
3F80
6D80
2100
9340
9340
FFC0
9040
1200
5280
2300
0100
1A00
1E00
0C00
0C00
0000
0000
ENDCHAR
STARTCHAR E21F
ENCODING 57887
SWIDTH 1107 0
DWIDTH 10 0
BBX 10 20 0 0
BITMAP
0000
0180
0180
02C0
03C0
07C0
0BC0
0F80
1F80
1F00
2E00
3E00
7C00
FC00
B800
F000
7000
6000
2000
0000
ENDCHAR
STARTCHAR E220
ENCODING 57888
SWIDTH 1107 0
DWIDTH 10 0
BBX 10 20 0 0
BITMAP
0000
0000
0C00
1E00
3F00
7F80
7F80
FFC0
FFC0
1E00
0C00
0C00
0C00
0C00
0C00
0C00
6C00
6800
3800
0000
ENDCHAR
STARTCHAR E221
ENCODING 57889
SWIDTH 1107 0
DWIDTH 10 0
BBX 10 20 0 0
BITMAP
0000
0000
3F00
6780
4F80
CFC0
DFC0
DFC0
DFC0
FFC0
FFC0
C0C0
C0C0
C0C0
C0C0
C0C0
4080
6180
3F00
0C00
ENDCHAR
STARTCHAR E222
ENCODING 57890
SWIDTH 1107 0
DWIDTH 10 0
BBX 10 20 0 0
BITMAP
0000
1C00
1E00
0E00
1E00
7F00
F700
C700
8780
8000
8000
8000
8000
C3C0
E3C0
7F80
3F00
FFC0
7F80
0000
ENDCHAR
STARTCHAR E223
ENCODING 57891
SWIDTH 1107 0
DWIDTH 10 0
BBX 10 20 0 0
BITMAP
0040
0040
0040
0040
0040
0040
0040
0040
0040
0040
0040
0040
0040
0040
0040
0040
0040
0040
0040
0040
ENDCHAR
STARTCHAR E224
ENCODING 57892
SWIDTH 1107 0
DWIDTH 10 0
BBX 10 20 0 0
BITMAP
0000
0000
0000
0000
0000
0000
0000
0000
0000
FFC0
FFC0
FFC0
0000
0000
0000
0000
0000
0000
0000
0000
ENDCHAR
STARTCHAR E225
ENCODING 57893
SWIDTH 1107 0
DWIDTH 10 0
BBX 10 20 0 0
BITMAP
0000
0000
0C00
0C00
0C00
0C00
0C00
0C00
0C00
1E00
1E00
1E00
1E00
BF40
EDC0
E1C0
C0C0
8040
0000
0000
ENDCHAR
STARTCHAR E226
ENCODING 57894
SWIDTH 1107 0
DWIDTH 10 0
BBX 10 20 0 0
BITMAP
0000
0000
0000
0000
6000
2000
A000
0C00
3E00
3E00
3E00
1FC0
FFC0
7FC0
FFC0
FFC0
FFC0
0000
0000
0000
ENDCHAR
STARTCHAR E227
ENCODING 57895
SWIDTH 1107 0
DWIDTH 10 0
BBX 10 20 0 0
BITMAP
0000
0000
1E00
7F80
7F80
FFC0
FFC0
FFC0
FFC0
FFC0
7F80
0C00
0C00
0C00
0C00
1E00
1E00
1E00
1E00
0C00
ENDCHAR
STARTCHAR E228
ENCODING 57896
SWIDTH 1107 0
DWIDTH 10 0
BBX 10 20 0 0
BITMAP
0000
0000
0000
0000
0000
0000
0000
0000
3300
3F00
7F80
F3C0
F3C0
0000
0000
0000
0000
0000
0000
0000
ENDCHAR
STARTCHAR E229
ENCODING 57897
SWIDTH 1107 0
DWIDTH 10 0
BBX 10 20 0 0
BITMAP
0000
0000
0000
0000
0000
0000
0080
0000
0080
0000
D040
0000
0440
C140
00C0
0000
0000
0000
0000
0000
ENDCHAR
STARTCHAR E22A
ENCODING 57898
SWIDTH 1107 0
DWIDTH 10 0
BBX 10 20 0 0
BITMAP
0000
0000
0000
0000
0000
0000
0000
0000
7F80
0000
7200
6500
FFC0
0000
0000
0000
0000
0000
0000
0000
ENDCHAR
STARTCHAR E22B
ENCODING 57899
SWIDTH 1107 0
DWIDTH 10 0
BBX 10 20 0 0
BITMAP
0000
0000
1E00
7F80
6D80
6DC0
EDC0
FFC0
9E40
9E40
BF40
FFC0
FFC0
FF80
FF00
FC00
7C00
7C00
1C00
0C00
ENDCHAR
STARTCHAR E22C
ENCODING 57900
SWIDTH 1107 0
DWIDTH 10 0
BBX 10 20 0 0
BITMAP
0000
0000
0000
7FC0
7FC0
FFC0
FFC0
1200
1200
1200
1200
1200
1200
1200
3200
3200
7300
73C0
73C0
2180
ENDCHAR
STARTCHAR E22D
ENCODING 57901
SWIDTH 1107 0
DWIDTH 10 0
BBX 10 20 0 0
BITMAP
0000
0000
0000
3000
1C00
0E00
2200
2B00
2180
6180
4280
62C0
6240
2040
0C40
85C0
B200
BC00
3000
C000
ENDCHAR
STARTCHAR E22E
ENCODING 57902
SWIDTH 1107 0
DWIDTH 10 0
BBX 10 20 0 0
BITMAP
0000
0000
0000
0000
0000
0C00
1E00
1E00
7F40
3F40
BEC0
BBC0
FF80
FE00
0600
0C00
0000
0000
0000
0000
ENDCHAR
STARTCHAR E22F
ENCODING 57903
SWIDTH 1107 0
DWIDTH 10 0
BBX 10 20 0 0
BITMAP
0000
0000
E000
F000
F000
F040
F9C0
FBC0
7BC0
6BC0
0B80
0F80
0C00
0C00
0400
0400
0400
0400
0400
0400
ENDCHAR
STARTCHAR E230
ENCODING 57904
SWIDTH 1107 0
DWIDTH 10 0
BBX 10 20 0 0
BITMAP
0000
0000
0000
0000
0000
0C00
0E00
0E00
0F00
0F00
0F00
0F00
0E00
6F80
EE40
8DC0
EF80
0E00
0000
0000
ENDCHAR
STARTCHAR E231
ENCODING 57905
SWIDTH 1107 0
DWIDTH 10 0
BBX 10 20 0 0
BITMAP
0000
0000
1E00
3F00
3F00
3F00
3F00
0C00
0C00
3F00
3300
BF40
DEC0
E1C0
BF40
0C00
B340
C0C0
C0C0
8040
ENDCHAR
STARTCHAR E232
ENCODING 57906
SWIDTH 1107 0
DWIDTH 10 0
BBX 10 20 0 0
BITMAP
0000
0000
0800
1C00
7E00
7E00
7F80
FF80
FF80
7F00
7E40
3E40
EA00
F600
7E00
7EC0
7E00
7E00
3E00
0000
ENDCHAR
STARTCHAR E233
ENCODING 57907
SWIDTH 1107 0
DWIDTH 10 0
BBX 10 20 0 0
BITMAP
0040
0040
0040
0040
0040
0040
0040
0040
0040
0040
0040
0040
0040
0040
0040
0040
0040
0040
0040
0040
ENDCHAR
STARTCHAR E234
ENCODING 57908
SWIDTH 1107 0
DWIDTH 10 0
BBX 10 20 0 0
BITMAP
0000
0000
0000
0C00
0C00
0C00
0C00
2D00
6500
6780
E6C0
1600
1200
1200
1200
1200
0200
0200
0000
0000
ENDCHAR
STARTCHAR E235
ENCODING 57909
SWIDTH 1107 0
DWIDTH 10 0
BBX 10 20 0 0
BITMAP
0000
0000
1E00
0E00
0E00
1E00
7EC0
FEC0
FEC0
FFC0
E1C0
FFC0
DFC0
DFC0
DFC0
1E00
1E00
1C00
1E00
0C00
ENDCHAR
STARTCHAR E236
ENCODING 57910
SWIDTH 1107 0
DWIDTH 10 0
BBX 10 20 0 0
BITMAP
0000
0000
1E00
7F80
7F80
7380
E1C0
EDC0
CEC0
CEC0
CEC0
CEC0
CAC0
E9C0
E1C0
F9C0
7F80
7F80
1E00
0C00
ENDCHAR
STARTCHAR E237
ENCODING 57911
SWIDTH 1107 0
DWIDTH 10 0
BBX 10 20 0 0
BITMAP
0000
0000
FFC0
FFC0
FFC0
FFC0
F3C0
EDC0
EDC0
CCC0
CEC0
CEC0
CCC0
E9C0
E1C0
F1C0
FDC0
FFC0
FFC0
FFC0
ENDCHAR
STARTCHAR E238
ENCODING 57912
SWIDTH 1107 0
DWIDTH 10 0
BBX 10 20 0 0
BITMAP
0000
0000
2100
6180
6180
E1C0
F3C0
F3C0
EDC0
EDC0
0C00
0C00
0000
0C00
1E00
1E00
1E00
1E00
1E00
0000
ENDCHAR
STARTCHAR E239
ENCODING 57913
SWIDTH 1107 0
DWIDTH 10 0
BBX 10 20 0 0
BITMAP
0000
0000
0000
0E00
1E00
1E00
1F80
3FC0
7FC0
FFC0
FFC0
FFC0
FF80
0000
0300
0400
4000
0000
1000
0000
ENDCHAR
STARTCHAR E23A
ENCODING 57914
SWIDTH 1107 0
DWIDTH 10 0
BBX 10 20 0 0
BITMAP
0000
0000
0400
6480
2580
2580
7F80
3FC0
CFC0
F7C0
F780
FB40
FCC0
FDC0
FDC0
FE40
7F80
3F80
1F00
0600
ENDCHAR
STARTCHAR E23B
ENCODING 57915
SWIDTH 1107 0
DWIDTH 10 0
BBX 10 20 0 0
BITMAP
0040
0040
0040
0040
0040
0040
0040
0040
0040
0040
0040
0040
0040
0040
0040
0040
0040
0040
0040
0040
ENDCHAR
STARTCHAR E23C
ENCODING 57916
SWIDTH 1107 0
DWIDTH 10 0
BBX 10 20 0 0
BITMAP
0000
0000
7FC0
7FC0
FF80
FF80
FF80
0080
0080
0080
0080
0080
0080
0080
0080
0080
00C0
0080
FF80
0000
ENDCHAR
STARTCHAR E23D
ENCODING 57917
SWIDTH 1107 0
DWIDTH 10 0
BBX 10 20 0 0
BITMAP
0000
0000
1E00
1E00
1E00
3F00
3F00
4080
C0C0
C0C0
8040
8040
8040
8040
C0C0
C0C0
4080
3300
3F00
0C00
ENDCHAR
STARTCHAR E23E
ENCODING 57918
SWIDTH 1107 0
DWIDTH 10 0
BBX 10 20 0 0
BITMAP
0000
0000
0000
0000
3300
3300
0D00
CC40
CE40
0000
FEC0
FEC0
6F80
6D80
2D00
0C00
1C00
0400
0000
0000
ENDCHAR
STARTCHAR E23F
ENCODING 57919
SWIDTH 1107 0
DWIDTH 10 0
BBX 10 20 0 0
BITMAP
0000
3F00
5E80
A100
5E80
A140
7E80
4080
BF40
5340
CB40
BB80
5480
8E80
3B40
D300
2280
5C00
0400
0000
ENDCHAR
STARTCHAR E240
ENCODING 57920
SWIDTH 1107 0
DWIDTH 10 0
BBX 10 20 0 0
BITMAP
0000
0000
8180
8D80
8D80
8DC0
8DC0
8DC0
81C0
FFC0
FFC0
FFC0
80C0
8040
8040
8040
8040
8040
FFC0
FFC0
ENDCHAR
STARTCHAR E241
ENCODING 57921
SWIDTH 1107 0
DWIDTH 10 0
BBX 10 20 0 0
BITMAP
0000
0000
0180
01C0
01C0
63C0
E3C0
E3C0
F3C0
F1C0
F3C0
F3C0
F380
7380
7300
3300
3B00
3800
3800
1000
ENDCHAR
STARTCHAR E242
ENCODING 57922
SWIDTH 1107 0
DWIDTH 10 0
BBX 10 20 0 0
BITMAP
0000
0000
0000
0000
0800
8C40
8C40
0E00
0E00
1A00
1200
0200
8040
8040
1F00
4080
0000
0000
0000
0000
ENDCHAR
STARTCHAR E243
ENCODING 57923
SWIDTH 1107 0
DWIDTH 10 0
BBX 10 20 0 0
BITMAP
0000
0000
0000
0000
0000
0000
0000
0000
0300
9E80
7F80
5E40
2200
0000
0000
0000
0000
0000
0000
0000
ENDCHAR
STARTCHAR E244
ENCODING 57924
SWIDTH 1107 0
DWIDTH 10 0
BBX 10 20 0 0
BITMAP
0000
0000
7FC0
4000
FF80
0080
0080
0080
0680
0680
0080
0080
0080
0680
3E80
7E80
7EC0
0080
FF80
0000
ENDCHAR
STARTCHAR E245
ENCODING 57925
SWIDTH 1107 0
DWIDTH 10 0
BBX 10 20 0 0
BITMAP
0000
0000
0000
0000
0000
0000
1200
6180
4080
F1C0
9E40
8C40
8040
9240
7380
0000
0000
0000
0000
0000
ENDCHAR
STARTCHAR E246
ENCODING 57926
SWIDTH 1107 0
DWIDTH 10 0
BBX 10 20 0 0
BITMAP
0000
0000
0000
0E00
1E00
1F00
3700
7F80
7380
7380
73C0
F3C0
E1C0
E1C0
FFC0
DFC0
7F80
3F80
0000
0000
ENDCHAR
STARTCHAR E247
ENCODING 57927
SWIDTH 1107 0
DWIDTH 10 0
BBX 10 20 0 0
BITMAP
0000
0000
0000
8000
A000
D000
F800
EC00
FE00
F700
F980
FFC0
F9C0
F780
FE00
EC00
F800
D000
A000
8000
ENDCHAR
STARTCHAR E248
ENCODING 57928
SWIDTH 1107 0
DWIDTH 10 0
BBX 10 20 0 0
BITMAP
0000
0000
0000
0C00
0C00
0C00
1E00
2100
2100
6D80
5E80
DEC0
5E80
4C80
6D80
2100
1E00
0C00
0C00
0C00
ENDCHAR
STARTCHAR E249
ENCODING 57929
SWIDTH 1107 0
DWIDTH 10 0
BBX 10 20 0 0
BITMAP
0000
0000
1E00
7B80
7980
7A80
FBC0
F2C0
F1C0
E5C0
E0C0
C240
D3C0
D7C0
EFC0
EFC0
6F80
7F80
1E00
0C00
ENDCHAR
STARTCHAR E24A
ENCODING 57930
SWIDTH 1107 0
DWIDTH 10 0
BBX 10 20 0 0
BITMAP
0040
0040
0040
0040
0040
0040
0040
0040
0040
0040
0040
0040
0040
0040
0040
0040
0040
0040
0040
0040
ENDCHAR
STARTCHAR E24B
ENCODING 57931
SWIDTH 1107 0
DWIDTH 10 0
BBX 10 20 0 0
BITMAP
0000
0000
E1C0
FFC0
FFC0
DFC0
C0C0
C0C0
80C0
C0C0
C0C0
00C0
00C0
01C0
07C0
0F80
0F00
0400
0400
0400
ENDCHAR
STARTCHAR E24C
ENCODING 57932
SWIDTH 1107 0
DWIDTH 10 0
BBX 10 20 0 0
BITMAP
0000
0000
0000
0000
0000
6180
6180
E1C0
E1C0
E1C0
FFC0
FFC0
E1C0
E1C0
6180
6180
0000
0000
0000
0000
ENDCHAR
STARTCHAR E24D
ENCODING 57933
SWIDTH 1107 0
DWIDTH 10 0
BBX 10 20 0 0
BITMAP
0000
0000
0000
0C00
3F00
7F80
7F80
FFC0
FFC0
FFC0
0000
FFC0
FFC0
FFC0
FFC0
FFC0
FFC0
FFC0
0000
0000
ENDCHAR
STARTCHAR E24E
ENCODING 57934
SWIDTH 1107 0
DWIDTH 10 0
BBX 10 20 0 0
BITMAP
0000
0000
0000
0000
0000
0000
0000
0000
0C00
1E00
1E00
EFC0
FFC0
0000
0000
0000
0000
0000
0000
0000
ENDCHAR
STARTCHAR E24F
ENCODING 57935
SWIDTH 1107 0
DWIDTH 10 0
BBX 10 20 0 0
BITMAP
0000
0C00
3F00
3F00
FFC0
FFC0
FFC0
FFC0
FFC0
FFC0
FFC0
FFC0
FFC0
FFC0
FFC0
7F80
3F00
0C00
0C00
0000
ENDCHAR
STARTCHAR E250
ENCODING 57936
SWIDTH 1107 0
DWIDTH 10 0
BBX 10 20 0 0
BITMAP
0000
0000
0000
8000
C000
E000
E000
F000
F000
9800
1C80
0FC0
0FC0
0FC0
0FC0
0FC0
07C0
07C0
0200
0000
ENDCHAR
STARTCHAR E251
ENCODING 57937
SWIDTH 1107 0
DWIDTH 10 0
BBX 10 20 0 0
BITMAP
0000
0000
F000
E000
A800
D400
5000
5A00
AC00
9500
1680
4200
2940
07C0
12C0
02C0
0940
05C0
03C0
0000
ENDCHAR
STARTCHAR E252
ENCODING 57938
SWIDTH 1107 0
DWIDTH 10 0
BBX 10 20 0 0
BITMAP
0000
0000
0000
0600
0E00
0F00
3F00
1F00
7B80
FFC0
7F80
3F00
3F00
3F00
1E00
1E00
1E00
0C00
0C00
0C00
ENDCHAR
STARTCHAR E253
ENCODING 57939
SWIDTH 1107 0
DWIDTH 10 0
BBX 10 20 0 0
BITMAP
0000
0000
0000
0000
0000
FFC0
0080
6080
6080
6FC0
F000
FFC0
F000
FFC0
F000
FFC0
0000
0000
0000
0000
ENDCHAR
STARTCHAR E254
ENCODING 57940
SWIDTH 1107 0
DWIDTH 10 0
BBX 10 20 0 0
BITMAP
0000
0000
0000
0000
0000
0000
0000
F680
F680
F6C0
F6C0
E6C0
C6C0
C6C0
0000
0000
0000
0000
0000
0000
ENDCHAR
STARTCHAR E255
ENCODING 57941
SWIDTH 1107 0
DWIDTH 10 0
BBX 10 20 0 0
BITMAP
0000
0000
0000
0000
0000
0000
2100
F3C0
9240
8C40
0C00
0C00
9240
F3C0
6180
0000
0000
0000
0000
0000
ENDCHAR
STARTCHAR E256
ENCODING 57942
SWIDTH 1107 0
DWIDTH 10 0
BBX 10 20 0 0
BITMAP
0000
0000
0400
0100
0C00
1000
1000
1400
0400
00C0
8600
0000
7E80
0000
3E00
0040
FE00
1C00
0000
0000
ENDCHAR
STARTCHAR E257
ENCODING 57943
SWIDTH 1107 0
DWIDTH 10 0
BBX 10 20 0 0
BITMAP
0000
0000
0000
0000
0000
0C00
3F00
7F80
FFC0
7F80
1E00
8C40
6180
3300
8C40
61C0
3300
1E00
0000
0000
ENDCHAR
STARTCHAR E258
ENCODING 57944
SWIDTH 1107 0
DWIDTH 10 0
BBX 10 20 0 0
BITMAP
0000
0000
0000
0000
0000
1E00
3B00
7F80
FFC0
FFC0
C0C0
7F80
BFC0
FFC0
7F80
3F00
0000
0000
0000
0000
ENDCHAR
STARTCHAR E259
ENCODING 57945
SWIDTH 1107 0
DWIDTH 10 0
BBX 10 20 0 0
BITMAP
0000
0000
0000
0000
0000
0000
0000
0000
0000
0000
0000
0000
0000
0000
0000
0000
0000
0000
0000
0000
ENDCHAR
STARTCHAR E25A
ENCODING 57946
SWIDTH 1107 0
DWIDTH 10 0
BBX 10 20 0 0
BITMAP
0000
0000
0000
0000
0000
7FC0
FDC0
FFC0
FFC0
FF80
FF00
FC00
F800
F000
C000
8000
0000
0000
0000
0000
ENDCHAR
STARTCHAR E25B
ENCODING 57947
SWIDTH 1107 0
DWIDTH 10 0
BBX 10 20 0 0
BITMAP
0000
0000
0C00
0C00
0C00
3F00
7F80
7F80
7F80
F3C0
F3C0
F3C0
F3C0
F3C0
F3C0
F3C0
F3C0
E1C0
C0C0
0000
ENDCHAR
STARTCHAR E25C
ENCODING 57948
SWIDTH 1107 0
DWIDTH 10 0
BBX 10 20 0 0
BITMAP
0040
0040
0040
0040
0040
0040
0040
0040
0040
0040
0040
0040
0040
0040
0040
0040
0040
0040
0040
0040
ENDCHAR
STARTCHAR E25D
ENCODING 57949
SWIDTH 1107 0
DWIDTH 10 0
BBX 10 20 0 0
BITMAP
0000
0000
FFC0
FFC0
0000
0000
0000
0000
0000
0000
0000
0000
0000
0000
0000
0000
0000
0000
FFC0
0000
ENDCHAR
STARTCHAR E25E
ENCODING 57950
SWIDTH 1107 0
DWIDTH 10 0
BBX 10 20 0 0
BITMAP
0000
0000
0000
0000
FFC0
FF80
FFC0
FFC0
FFC0
FF40
FFC0
FE00
FFC0
FFC0
FFC0
FFC0
FF80
0000
0000
0000
ENDCHAR
STARTCHAR E25F
ENCODING 57951
SWIDTH 1107 0
DWIDTH 10 0
BBX 10 20 0 0
BITMAP
0000
0000
1E00
3E00
7F00
7F80
7FC0
7800
F800
FC00
7E00
7F00
7E00
7E00
7F00
7F00
7F00
FF00
7F00
7F00
ENDCHAR
STARTCHAR E260
ENCODING 57952
SWIDTH 1107 0
DWIDTH 10 0
BBX 10 20 0 0
BITMAP
0000
0000
0000
0000
0000
0000
0000
0000
0000
0000
0000
0000
0000
0000
0000
0000
0000
0000
0000
0000
ENDCHAR
STARTCHAR E261
ENCODING 57953
SWIDTH 1107 0
DWIDTH 10 0
BBX 10 20 0 0
BITMAP
0040
0040
0040
0040
0040
0040
0040
0040
0040
0040
0040
0040
0040
0040
0040
0040
0040
0040
0040
0040
ENDCHAR
STARTCHAR E262
ENCODING 57954
SWIDTH 1107 0
DWIDTH 10 0
BBX 10 20 0 0
BITMAP
0040
0040
0040
0040
0040
0040
0040
0040
0040
0040
0040
0040
0040
0040
0040
0040
0040
0040
0040
0040
ENDCHAR
STARTCHAR E263
ENCODING 57955
SWIDTH 1107 0
DWIDTH 10 0
BBX 10 20 0 0
BITMAP
0000
0000
6D80
7F80
3F00
3F00
3F00
3F00
3F00
3F00
3F00
3F00
3F00
7F80
7F80
FFC0
FFC0
FFC0
7F80
FFC0
ENDCHAR
STARTCHAR E264
ENCODING 57956
SWIDTH 1107 0
DWIDTH 10 0
BBX 10 20 0 0
BITMAP
0000
0000
0000
0100
0380
0180
1300
7F00
FFC0
7EC0
E6C0
FE40
6FC0
6FC0
7FC0
DFC0
FDC0
05C0
0000
0000
ENDCHAR
STARTCHAR E265
ENCODING 57957
SWIDTH 1107 0
DWIDTH 10 0
BBX 10 20 0 0
BITMAP
0000
0000
0040
0040
00C0
00C0
0780
0E40
0FC0
1FC0
1FC0
1FC0
1FC0
3F80
3F80
7F00
7E00
F800
F000
8000
ENDCHAR
STARTCHAR E266
ENCODING 57958
SWIDTH 1107 0
DWIDTH 10 0
BBX 10 20 0 0
BITMAP
0000
0000
1E00
3F00
BF40
BF40
3F00
BF40
BF40
BF40
3F00
BF40
BF40
3F00
3F00
BF40
BF40
3F00
3F00
0000
ENDCHAR
STARTCHAR E267
ENCODING 57959
SWIDTH 1107 0
DWIDTH 10 0
BBX 10 20 0 0
BITMAP
0000
0000
0000
0200
0600
0A00
0C00
1C00
1300
1000
1C00
8C40
1E00
0C00
0C00
1200
9240
6180
0000
0000
ENDCHAR
STARTCHAR E268
ENCODING 57960
SWIDTH 1107 0
DWIDTH 10 0
BBX 10 20 0 0
BITMAP
0000
0000
0000
0000
0000
0000
0E00
1E00
1E00
1FC0
7FC0
7FC0
FFC0
FFC0
FFC0
FF80
0000
0000
0000
0000
ENDCHAR
STARTCHAR E269
ENCODING 57961
SWIDTH 1107 0
DWIDTH 10 0
BBX 10 20 0 0
BITMAP
0000
0000
1200
0C00
1E00
1E00
1E00
7F80
BF40
7F80
7F80
7F80
7F80
7F80
7F80
3F00
1E00
9E40
0000
0000
ENDCHAR
STARTCHAR E26A
ENCODING 57962
SWIDTH 1107 0
DWIDTH 10 0
BBX 10 20 0 0
BITMAP
0000
0000
0180
01C0
79C0
FBC0
FFC0
8FC0
FAC0
F3C0
F1C0
1D80
1C00
3A00
7400
6C00
5C00
7C00
3000
0000
ENDCHAR
STARTCHAR E26B
ENCODING 57963
SWIDTH 1107 0
DWIDTH 10 0
BBX 10 20 0 0
BITMAP
0000
0000
0000
0000
0000
0000
0000
0400
0000
0140
0600
1C40
FFC0
EF80
0000
0000
0000
0000
0000
0000
ENDCHAR
STARTCHAR E26C
ENCODING 57964
SWIDTH 1107 0
DWIDTH 10 0
BBX 10 20 0 0
BITMAP
0000
0000
0080
01C0
0300
0380
0580
0C80
0E00
0A00
1A00
1C00
3000
6000
6000
E000
C000
C000
8000
0000
ENDCHAR
STARTCHAR E26D
ENCODING 57965
SWIDTH 1107 0
DWIDTH 10 0
BBX 10 20 0 0
BITMAP
0000
0000
8000
C000
C000
6800
F800
FC00
FE00
7F00
3F00
3E80
3840
1800
0800
0800
0040
0680
0100
0000
ENDCHAR
STARTCHAR E26E
ENCODING 57966
SWIDTH 1107 0
DWIDTH 10 0
BBX 10 20 0 0
BITMAP
0000
0000
0000
0000
0000
0C00
0000
2100
2D00
8C40
1E00
7F80
7F80
7F80
7F80
7F80
0000
0000
0000
0000
ENDCHAR
STARTCHAR E26F
ENCODING 57967
SWIDTH 1107 0
DWIDTH 10 0
BBX 10 20 0 0
BITMAP
0000
0000
3F00
FFC0
FFC0
FFC0
FFC0
FFC0
FFC0
F3C0
0000
0000
0000
E1C0
FFC0
7F80
7F80
7F80
7F80
3F00
ENDCHAR
STARTCHAR E270
ENCODING 57968
SWIDTH 1107 0
DWIDTH 10 0
BBX 10 20 0 0
BITMAP
0000
0000
FFC0
FFC0
DCC0
CCC0
CCC0
FFC0
FFC0
CCC0
CCC0
CCC0
FFC0
FFC0
CCC0
CCC0
CCC0
FFC0
FFC0
7F80
ENDCHAR
STARTCHAR E271
ENCODING 57969
SWIDTH 1107 0
DWIDTH 10 0
BBX 10 20 0 0
BITMAP
0000
0000
1E00
7F80
7F80
7F80
FFC0
F3C0
E1C0
EDC0
EDC0
EDC0
E1C0
F3C0
FFC0
FFC0
7F80
7F80
1E00
0C00
ENDCHAR
STARTCHAR E272
ENCODING 57970
SWIDTH 1107 0
DWIDTH 10 0
BBX 10 20 0 0
BITMAP
0000
0000
8040
FFC0
8040
BF40
80C0
4080
7F80
3300
1E00
6300
C080
80C0
8040
BF40
8040
FFC0
8040
8040
ENDCHAR
STARTCHAR E273
ENCODING 57971
SWIDTH 1107 0
DWIDTH 10 0
BBX 10 20 0 0
BITMAP
0000
0000
0000
1E00
6F80
7D80
F3C0
E1C0
A140
FFC0
DDC0
FF80
7F80
7F80
BA40
8840
6980
1E00
0000
0000
ENDCHAR
STARTCHAR E274
ENCODING 57972
SWIDTH 1107 0
DWIDTH 10 0
BBX 10 20 0 0
BITMAP
0040
0040
0040
0040
0040
0040
0040
0040
0040
0040
0040
0040
0040
0040
0040
0040
0040
0040
0040
0040
ENDCHAR
STARTCHAR E275
ENCODING 57973
SWIDTH 1107 0
DWIDTH 10 0
BBX 10 20 0 0
BITMAP
0000
0000
0C00
0C00
1E00
1E00
3F00
7F80
7F80
FFC0
FFC0
FFC0
FFC0
FFC0
FFC0
FFC0
FFC0
FFC0
7F80
0C00
ENDCHAR
STARTCHAR E276
ENCODING 57974
SWIDTH 1107 0
DWIDTH 10 0
BBX 10 20 0 0
BITMAP
0000
0000
1E00
7F80
7F80
7F80
FFC0
FFC0
FFC0
FFC0
FFC0
DEC0
DEC0
DEC0
EDC0
F3C0
7F80
7F80
1E00
0C00
ENDCHAR
STARTCHAR E277
ENCODING 57975
SWIDTH 1107 0
DWIDTH 10 0
BBX 10 20 0 0
BITMAP
0000
0000
0C00
1E00
3F00
7F80
FFC0
FFC0
FFC0
FFC0
FFC0
7F80
BF40
DEC0
EDC0
F3C0
FFC0
FFC0
FFC0
FFC0
ENDCHAR
STARTCHAR E278
ENCODING 57976
SWIDTH 1107 0
DWIDTH 10 0
BBX 10 20 0 0
BITMAP
0000
0000
0C00
1200
2100
4080
C0C0
8040
0000
0000
8040
C0C0
4080
2100
1200
0C00
0000
0000
FFC0
FFC0
ENDCHAR
STARTCHAR E279
ENCODING 57977
SWIDTH 1107 0
DWIDTH 10 0
BBX 10 20 0 0
BITMAP
0000
0000
0000
0000
FFC0
FFC0
FFC0
FFC0
FFC0
0000
0000
0000
FFC0
FFC0
FFC0
FFC0
FFC0
0000
0000
0000
ENDCHAR
STARTCHAR E27A
ENCODING 57978
SWIDTH 1107 0
DWIDTH 10 0
BBX 10 20 0 0
BITMAP
0000
0000
0000
0000
0200
0300
FD80
FD80
FCC0
0040
FCC0
FD80
FD80
0300
0200
0200
0000
0000
0000
0000
ENDCHAR
STARTCHAR E27B
ENCODING 57979
SWIDTH 1107 0
DWIDTH 10 0
BBX 10 20 0 0
BITMAP
0000
0000
0000
0C00
1E00
1E00
3F00
7380
7780
EFC0
EFC0
D3C0
D7C0
EFC0
6F80
7380
3300
1E00
0C00
0000
ENDCHAR
STARTCHAR E27C
ENCODING 57980
SWIDTH 1107 0
DWIDTH 10 0
BBX 10 20 0 0
BITMAP
0000
0000
F000
F200
F300
F300
F380
F3C0
F000
FC00
FD80
F8C0
F0C0
F3C0
F3C0
F8C0
FD80
FC00
FE40
FF80
ENDCHAR
STARTCHAR E27D
ENCODING 57981
SWIDTH 1107 0
DWIDTH 10 0
BBX 10 20 0 0
BITMAP
0000
0000
F000
F200
F300
F300
F380
F3C0
F000
FE00
FC80
FD00
FB00
F3C0
FBC0
F900
FC80
FC00
FE40
FF80
ENDCHAR
STARTCHAR E27E
ENCODING 57982
SWIDTH 1107 0
DWIDTH 10 0
BBX 10 20 0 0
BITMAP
0000
0000
0000
3000
5000
5100
1380
E280
0280
0180
FF00
0000
7F80
7FC0
0040
0140
01C0
00C0
0000
0000
ENDCHAR
STARTCHAR E27F
ENCODING 57983
SWIDTH 1107 0
DWIDTH 10 0
BBX 10 20 0 0
BITMAP
0000
0000
0000
3300
4C80
4C80
4080
1E00
1240
2100
0C00
2D00
A140
5280
0C00
4080
4080
2000
3300
0000
ENDCHAR
STARTCHAR E280
ENCODING 57984
SWIDTH 1107 0
DWIDTH 10 0
BBX 10 20 0 0
BITMAP
0000
0000
F000
F800
FE00
FE00
FF00
7F80
1F80
6FC0
E7C0
E7C0
F3C0
73C0
79C0
3E00
1F00
1F00
0F00
0200
ENDCHAR
STARTCHAR E281
ENCODING 57985
SWIDTH 1107 0
DWIDTH 10 0
BBX 10 20 0 0
BITMAP
0000
0000
0080
0080
0080
0140
0140
0340
0340
CFC0
FEC0
FFC0
7DC0
3FC0
07C0
3F80
3F80
3F00
1E00
0000
ENDCHAR
STARTCHAR E282
ENCODING 57986
SWIDTH 1107 0
DWIDTH 10 0
BBX 10 20 0 0
BITMAP
0000
0000
0000
0000
0180
0200
0200
0100
0100
FFC0
FFC0
FFC0
FFC0
FFC0
7F80
7F80
2100
0000
0000
0000
ENDCHAR
STARTCHAR E283
ENCODING 57987
SWIDTH 1107 0
DWIDTH 10 0
BBX 10 20 0 0
BITMAP
0000
0000
0000
7F80
FFC0
FFC0
8C40
8C40
0000
0000
FFC0
FFC0
FFC0
FFC0
FFC0
FFC0
FFC0
6180
0000
0000
ENDCHAR
STARTCHAR E284
ENCODING 57988
SWIDTH 1107 0
DWIDTH 10 0
BBX 10 20 0 0
BITMAP
0000
0000
0C00
0C00
1E00
FFC0
C0C0
C0C0
C0C0
8040
8040
8040
C0C0
C0C0
C0C0
E1C0
1E00
0C00
0C00
0C00
ENDCHAR
STARTCHAR E285
ENCODING 57989
SWIDTH 1107 0
DWIDTH 10 0
BBX 10 20 0 0
BITMAP
0000
0000
E000
F000
F800
7C00
3E00
1F00
0F80
07C0
03C0
07C0
0F80
1F00
3E00
7C00
F800
F000
E000
4000
ENDCHAR
STARTCHAR E286
ENCODING 57990
SWIDTH 1107 0
DWIDTH 10 0
BBX 10 20 0 0
BITMAP
0000
0000
0000
0000
2100
2100
3F00
2100
7380
7F80
B340
2100
2D00
1E00
1E00
0C00
0200
7380
0000
0000
ENDCHAR
STARTCHAR E287
ENCODING 57991
SWIDTH 1107 0
DWIDTH 10 0
BBX 10 20 0 0
BITMAP
0000
0000
1E00
7F80
7F80
6380
C1C0
C1C0
9DC0
80C0
8040
8040
9E40
8040
C0C0
E1C0
7F80
7F80
1E00
0C00
ENDCHAR
STARTCHAR E288
ENCODING 57992
SWIDTH 1107 0
DWIDTH 10 0
BBX 10 20 0 0
BITMAP
0000
0000
FFC0
FFC0
E3C0
C1C0
C1C0
DDC0
DDC0
C1C0
C0C0
CCC0
DEC0
C0C0
C0C0
E1C0
FFC0
FFC0
FFC0
FFC0
ENDCHAR
STARTCHAR E289
ENCODING 57993
SWIDTH 1107 0
DWIDTH 10 0
BBX 10 20 0 0
BITMAP
0000
0000
0C00
0C00
0C00
0C00
EDC0
FFC0
FFC0
FFC0
FFC0
6180
6180
6180
7380
7F80
7F80
3300
2100
0000
ENDCHAR
STARTCHAR E28A
ENCODING 57994
SWIDTH 1107 0
DWIDTH 10 0
BBX 10 20 0 0
BITMAP
0000
0000
0000
F3C0
FFC0
FFC0
FFC0
FFC0
FFC0
FFC0
FFC0
FFC0
FFC0
FFC0
FFC0
FFC0
FFC0
0C00
0000
0000
ENDCHAR
STARTCHAR E28B
ENCODING 57995
SWIDTH 1107 0
DWIDTH 10 0
BBX 10 20 0 0
BITMAP
0000
0000
0000
F3C0
9E40
8C40
8C40
8C40
8C40
8C40
8C40
8C40
8C40
8C40
8C40
FFC0
FFC0
0C00
0000
0000
ENDCHAR
STARTCHAR E28C
ENCODING 57996
SWIDTH 1107 0
DWIDTH 10 0
BBX 10 20 0 0
BITMAP
0000
0000
1E00
7F00
7F80
FF80
FF80
FFC0
FFC0
FFC0
FFC0
7FC0
3FC0
1F80
0780
0380
0000
0000
0000
0000
ENDCHAR
STARTCHAR E28D
ENCODING 57997
SWIDTH 1107 0
DWIDTH 10 0
BBX 10 20 0 0
BITMAP
0000
0000
0000
0C00
0A00
1180
3080
6040
C040
8040
C1C0
6300
6640
BDC0
5C00
3200
0400
1800
0000
0000
ENDCHAR
STARTCHAR E28E
ENCODING 57998
SWIDTH 1107 0
DWIDTH 10 0
BBX 10 20 0 0
BITMAP
0000
0000
0000
0000
E1C0
F3C0
F3C0
FBC0
FFC0
FFC0
FFC0
7F80
7F80
7F80
7F80
7380
7380
3100
0000
0000
ENDCHAR
STARTCHAR E28F
ENCODING 57999
SWIDTH 1107 0
DWIDTH 10 0
BBX 10 20 0 0
BITMAP
0000
0000
0040
02C0
0380
0380
0300
0C00
0600
1E00
1C00
3400
2800
7800
7000
7000
E000
E000
8000
0000
ENDCHAR
STARTCHAR E290
ENCODING 58000
SWIDTH 1107 0
DWIDTH 10 0
BBX 10 20 0 0
BITMAP
0000
0000
1E00
7380
6180
4C80
8C40
8040
8C40
8C40
8C40
8C40
8C40
8C40
8C40
CCC0
6180
6180
1E00
0C00
ENDCHAR
STARTCHAR E291
ENCODING 58001
SWIDTH 1107 0
DWIDTH 10 0
BBX 10 20 0 0
BITMAP
0000
0000
1E00
7380
6180
4080
8040
8040
9340
A440
A440
A440
BB40
8040
8040
C040
6180
6180
1E00
0C00
ENDCHAR
STARTCHAR E292
ENCODING 58002
SWIDTH 1107 0
DWIDTH 10 0
BBX 10 20 0 0
BITMAP
0000
0000
1E00
7380
6180
4480
8440
EE40
F040
9840
8E40
8740
83C0
9EC0
8C40
C440
6180
6180
1E00
0C00
ENDCHAR
STARTCHAR E293
ENCODING 58003
SWIDTH 1107 0
DWIDTH 10 0
BBX 10 20 0 0
BITMAP
0000
0000
1E00
7380
6180
4080
8E40
FE40
F040
BC40
9E40
BF40
91C0
90C0
9E40
CE40
6180
6180
1E00
0C00
ENDCHAR
STARTCHAR E294
ENCODING 58004
SWIDTH 1107 0
DWIDTH 10 0
BBX 10 20 0 0
BITMAP
0000
0000
1E00
7380
6180
4080
9240
D240
F240
BE40
9E40
9E40
8FC0
9FC0
8C40
CC40
6180
6180
1E00
0C00
ENDCHAR
STARTCHAR E295
ENCODING 58005
SWIDTH 1107 0
DWIDTH 10 0
BBX 10 20 0 0
BITMAP
0000
0000
1E00
7380
6180
4080
8040
8040
9E40
9E40
8040
9E40
9E40
8040
8040
C040
6180
6180
1E00
0C00
ENDCHAR
STARTCHAR E296
ENCODING 58006
SWIDTH 1107 0
DWIDTH 10 0
BBX 10 20 0 0
BITMAP
0000
0000
1E00
7380
6180
4080
9C40
9E40
9E40
BE40
FF40
F3C0
F8C0
83C0
8040
C040
6180
6180
1E00
0C00
ENDCHAR
STARTCHAR E297
ENCODING 58007
SWIDTH 1107 0
DWIDTH 10 0
BBX 10 20 0 0
BITMAP
0000
0000
1E00
7380
6180
4080
8C40
9E40
9240
B240
9340
8340
9240
9240
9E40
CC40
6180
6180
1E00
0C00
ENDCHAR
STARTCHAR E298
ENCODING 58008
SWIDTH 1107 0
DWIDTH 10 0
BBX 10 20 0 0
BITMAP
0000
0000
1E00
7380
6180
4080
9C40
8040
8E40
8040
8040
8040
9040
8040
8040
CEC0
6180
6180
1E00
0C00
ENDCHAR
STARTCHAR E299
ENCODING 58009
SWIDTH 1107 0
DWIDTH 10 0
BBX 10 20 0 0
BITMAP
0000
0000
1E00
7380
6180
4C80
9E40
9640
9640
9640
9E40
9A40
9240
9240
9E40
CC40
6180
6180
1E00
0C00
ENDCHAR
STARTCHAR E29A
ENCODING 58010
SWIDTH 1107 0
DWIDTH 10 0
BBX 10 20 0 0
BITMAP
0000
0000
FFC0
0000
0000
1000
4780
6780
2000
0000
2780
2780
0000
0000
2780
2780
0000
0000
FFC0
FFC0
ENDCHAR
STARTCHAR E29B
ENCODING 58011
SWIDTH 1107 0
DWIDTH 10 0
BBX 10 20 0 0
BITMAP
0000
0000
0100
0300
0000
0600
0A00
0200
0200
1200
1200
1200
F3C0
FFC0
F7C0
F7C0
F7C0
FFC0
F3C0
2100
ENDCHAR
STARTCHAR E29C
ENCODING 58012
SWIDTH 1107 0
DWIDTH 10 0
BBX 10 20 0 0
BITMAP
0000
0000
0000
0000
0000
0000
0000
0000
0000
0000
0000
0000
0000
0000
0000
0000
0000
0000
0000
0000
ENDCHAR
STARTCHAR E29D
ENCODING 58013
SWIDTH 1107 0
DWIDTH 10 0
BBX 10 20 0 0
BITMAP
0000
0000
1E00
0C00
6D80
6180
F3C0
E1C0
E1C0
CCC0
DEC0
9E40
9E40
BF40
FFC0
FFC0
7F80
7F80
1E00
0C00
ENDCHAR
STARTCHAR E29E
ENCODING 58014
SWIDTH 1107 0
DWIDTH 10 0
BBX 10 20 0 0
BITMAP
0000
19C0
0B80
0F00
0E00
2900
FFC0
FFC0
FFC0
FFC0
FFC0
FFC0
FFC0
FFC0
FFC0
7FC0
7F80
3F00
1200
0000
ENDCHAR
STARTCHAR E29F
ENCODING 58015
SWIDTH 1107 0
DWIDTH 10 0
BBX 10 20 0 0
BITMAP
0000
0000
0380
07C0
0FC0
0FC0
0FC0
0FC0
1FC0
1FC0
1F80
1F00
1E00
1800
B000
E000
E000
6000
6000
2000
ENDCHAR
STARTCHAR E2A0
ENCODING 58016
SWIDTH 1107 0
DWIDTH 10 0
BBX 10 20 0 0
BITMAP
0000
0000
0000
0000
0000
FFC0
F3C0
E1C0
E1C0
EDC0
EDC0
F3C0
FFC0
0000
FFC0
FFC0
0000
0000
0000
0000
ENDCHAR
STARTCHAR E2A1
ENCODING 58017
SWIDTH 1107 0
DWIDTH 10 0
BBX 10 20 0 0
BITMAP
0000
0000
0000
0000
0000
0000
0000
0000
0000
0000
0000
0000
0000
0000
0000
0000
0000
0000
0000
0000
ENDCHAR
STARTCHAR E2A2
ENCODING 58018
SWIDTH 1107 0
DWIDTH 10 0
BBX 10 20 0 0
BITMAP
0000
0000
0C00
3C00
3C00
0F00
3F00
0F80
0F00
1500
3100
3000
2000
2000
6000
6000
FE00
FF80
FFC0
FFC0
ENDCHAR
STARTCHAR E2A3
ENCODING 58019
SWIDTH 1107 0
DWIDTH 10 0
BBX 10 20 0 0
BITMAP
0000
0000
3F00
6180
CCC0
9240
A540
AF40
A6C0
B0C0
9FC0
6F80
3F00
0C00
0C00
0C00
0C00
0C00
0C00
0800
ENDCHAR
STARTCHAR E2A4
ENCODING 58020
SWIDTH 1107 0
DWIDTH 10 0
BBX 10 20 0 0
BITMAP
0000
0000
0000
0000
0000
FFC0
F3C0
E1C0
EDC0
EDC0
EDC0
F3C0
FFC0
0000
FFC0
FFC0
0000
0000
0000
0000
ENDCHAR
STARTCHAR E2A5
ENCODING 58021
SWIDTH 1107 0
DWIDTH 10 0
BBX 10 20 0 0
BITMAP
0000
0000
0000
00C0
0340
1C80
6380
9F40
FEC0
4DC0
4D80
4F00
7A00
B200
CE00
FC00
7C00
3000
0000
0000
ENDCHAR
STARTCHAR E2A6
ENCODING 58022
SWIDTH 1107 0
DWIDTH 10 0
BBX 10 20 0 0
BITMAP
0000
0000
0000
0000
0000
0000
0C00
0C00
1C00
1D80
1F80
1F80
3F80
FFC0
FFC0
FFC0
0000
0000
0000
0000
ENDCHAR
STARTCHAR E2A7
ENCODING 58023
SWIDTH 1107 0
DWIDTH 10 0
BBX 10 20 0 0
BITMAP
0000
0000
7000
7800
3CC0
3D80
0F00
0600
3F00
7F80
FFC0
FFC0
FFC0
FFC0
FFC0
FFC0
FFC0
FBC0
3F00
0C00
ENDCHAR
STARTCHAR E2A8
ENCODING 58024
SWIDTH 1107 0
DWIDTH 10 0
BBX 10 20 0 0
BITMAP
0000
F600
7400
3C00
0C00
7F80
FFC0
FFC0
FFC0
FFC0
FFC0
FFC0
FFC0
FFC0
7F80
3F00
1E00
0C00
0800
0000
ENDCHAR
STARTCHAR E2A9
ENCODING 58025
SWIDTH 1107 0
DWIDTH 10 0
BBX 10 20 0 0
BITMAP
0000
F200
FC00
7C00
0C00
1E00
1E00
3F00
3F00
3F00
7F80
7F80
FFC0
FFC0
FFC0
FFC0
FFC0
7F80
1E00
0000
ENDCHAR
STARTCHAR E300
ENCODING 58112
SWIDTH 1107 0
DWIDTH 10 0
BBX 10 20 0 0
BITMAP
0000
0000
0200
0200
0200
0080
1F00
0D00
20C0
6380
1100
0900
F900
0100
EE00
0000
6000
0000
0000
0000
ENDCHAR
STARTCHAR E301
ENCODING 58113
SWIDTH 1107 0
DWIDTH 10 0
BBX 10 20 0 0
BITMAP
0000
0000
0200
0200
0200
0080
1F00
0D00
20C0
6380
0100
0100
F100
0100
EE00
0000
7800
0000
0000
0000
ENDCHAR
STARTCHAR E302
ENCODING 58114
SWIDTH 1107 0
DWIDTH 10 0
BBX 10 20 0 0
BITMAP
0000
0000
0000
0000
1080
0080
3700
2900
4440
C600
8100
0100
0180
0100
FE00
0000
0000
0000
0000
0000
ENDCHAR
STARTCHAR E303
ENCODING 58115
SWIDTH 1107 0
DWIDTH 10 0
BBX 10 20 0 0
BITMAP
0000
0000
0200
0200
0200
0080
1F00
0D00
20C0
6380
0100
0000
7F00
0000
FE00
0000
7F80
0000
0000
0000
ENDCHAR
STARTCHAR E304
ENCODING 58116
SWIDTH 1107 0
DWIDTH 10 0
BBX 10 20 0 0
BITMAP
0000
0000
0000
0000
0000
0000
1080
0080
3F00
2900
4440
C600
8100
0100
2580
2500
E600
1000
1800
0000
ENDCHAR
STARTCHAR E305
ENCODING 58117
SWIDTH 1107 0
DWIDTH 10 0
BBX 10 20 0 0
BITMAP
0000
0000
0000
0000
0000
1080
0080
3F00
2900
4440
C600
8100
0900
1180
1100
DA00
0000
1000
1000
0000
ENDCHAR
STARTCHAR E306
ENCODING 58118
SWIDTH 1107 0
DWIDTH 10 0
BBX 10 20 0 0
BITMAP
0000
0000
0000
0000
1080
0080
3700
2900
4440
C600
8100
0100
2580
2500
E600
0000
1800
0000
1000
0000
ENDCHAR
STARTCHAR E307
ENCODING 58119
SWIDTH 1107 0
DWIDTH 10 0
BBX 10 20 0 0
BITMAP
0000
0000
0000
0000
1080
0080
3F00
2900
4440
C600
8100
0100
0180
1900
AA00
0400
5400
0800
2000
0000
ENDCHAR
STARTCHAR E308
ENCODING 58120
SWIDTH 1107 0
DWIDTH 10 0
BBX 10 20 0 0
BITMAP
0000
0000
0000
0000
1080
0080
3F00
2900
4440
C600
8100
0100
2580
2500
E600
1800
1800
1000
1000
0000
ENDCHAR
STARTCHAR E309
ENCODING 58121
SWIDTH 1107 0
DWIDTH 10 0
BBX 10 20 0 0
BITMAP
0000
0000
0000
0000
1080
0080
3700
2900
4440
C600
8100
0100
2580
2500
C200
0800
0800
1000
1000
0000
ENDCHAR
STARTCHAR E30A
ENCODING 58122
SWIDTH 1107 0
DWIDTH 10 0
BBX 10 20 0 0
BITMAP
0000
0000
0000
0000
0000
1080
0080
3700
2900
4440
C600
8100
0100
0180
0100
E600
0000
2400
0000
0000
ENDCHAR
STARTCHAR E30B
ENCODING 58123
SWIDTH 1107 0
DWIDTH 10 0
BBX 10 20 0 0
BITMAP
0000
0000
0000
0000
1080
0080
3700
2900
4440
C600
8100
2100
2180
0100
DA00
1800
0000
0000
0000
0000
ENDCHAR
STARTCHAR E30C
ENCODING 58124
SWIDTH 1107 0
DWIDTH 10 0
BBX 10 20 0 0
BITMAP
0000
0000
0400
0400
6080
2C00
1A00
0100
8140
3900
6900
CE00
8280
82C0
7C00
0000
0000
0000
0000
0000
ENDCHAR
STARTCHAR E30D
ENCODING 58125
SWIDTH 1107 0
DWIDTH 10 0
BBX 10 20 0 0
BITMAP
0000
0000
0000
0000
0C00
C0C0
4080
1E00
2100
A140
2100
3300
0C00
C0C0
0C00
0C00
0000
0000
0000
0000
ENDCHAR
STARTCHAR E30E
ENCODING 58126
SWIDTH 1107 0
DWIDTH 10 0
BBX 10 20 0 0
BITMAP
0000
0000
0000
0000
1080
0080
3F00
2900
4440
C600
8100
0100
2580
4500
C200
6800
0800
5000
1000
0000
ENDCHAR
STARTCHAR E30F
ENCODING 58127
SWIDTH 1107 0
DWIDTH 10 0
BBX 10 20 0 0
BITMAP
0000
0000
0000
0000
0000
1080
0080
3F00
2900
4440
C600
8100
0100
2580
4500
C600
7800
1000
5000
0000
ENDCHAR
STARTCHAR E310
ENCODING 58128
SWIDTH 1107 0
DWIDTH 10 0
BBX 10 20 0 0
BITMAP
0000
0000
0000
0000
0000
0000
0E00
1200
0100
21C0
4C40
0200
FC00
0040
E7C0
0000
2000
0000
0000
0000
ENDCHAR
STARTCHAR E311
ENCODING 58129
SWIDTH 1107 0
DWIDTH 10 0
BBX 10 20 0 0
BITMAP
0000
0000
0000
0000
0000
0000
0E00
1800
0100
21C0
4040
0000
FC00
0000
F7C0
0000
7E00
0000
0000
0000
ENDCHAR
STARTCHAR E312
ENCODING 58130
SWIDTH 1107 0
DWIDTH 10 0
BBX 10 20 0 0
BITMAP
0000
0000
0000
0000
0000
0000
0600
0100
2D80
4440
C200
0100
01C0
0100
FE00
0000
0000
0000
0000
0000
ENDCHAR
STARTCHAR E313
ENCODING 58131
SWIDTH 1107 0
DWIDTH 10 0
BBX 10 20 0 0
BITMAP
0000
0000
0000
0000
0000
0000
0C00
1200
3200
2300
4080
0000
7F80
0000
FF00
0000
3FC0
0000
0000
0000
ENDCHAR
STARTCHAR E314
ENCODING 58132
SWIDTH 1107 0
DWIDTH 10 0
BBX 10 20 0 0
BITMAP
0000
0000
0000
0000
0000
0000
0000
0000
1C00
3200
4100
C1C0
8040
0000
1500
1500
FDC0
0800
2A00
0000
ENDCHAR
STARTCHAR E315
ENCODING 58133
SWIDTH 1107 0
DWIDTH 10 0
BBX 10 20 0 0
BITMAP
0040
0040
0040
0040
0040
0040
0040
0040
0040
0040
0040
0040
0040
0040
0040
0040
0040
0040
0040
0040
ENDCHAR
STARTCHAR E316
ENCODING 58134
SWIDTH 1107 0
DWIDTH 10 0
BBX 10 20 0 0
BITMAP
0000
0000
0000
0000
0000
0000
1C00
3200
4100
C1C0
8040
0000
1100
1100
E5C0
0000
2A00
0000
0800
0000
ENDCHAR
STARTCHAR E317
ENCODING 58135
SWIDTH 1107 0
DWIDTH 10 0
BBX 10 20 0 0
BITMAP
0000
0000
0000
0000
0000
0000
1C00
3200
4100
C1C0
0000
0000
0000
1200
96C0
2D00
0A00
0200
2000
0000
ENDCHAR
STARTCHAR E318
ENCODING 58136
SWIDTH 1107 0
DWIDTH 10 0
BBX 10 20 0 0
BITMAP
0000
0000
0000
0000
0000
0000
0000
1C00
3200
4100
C1C0
8040
0000
1500
1500
EDC0
2A00
2A00
0800
0000
ENDCHAR
STARTCHAR E319
ENCODING 58137
SWIDTH 1107 0
DWIDTH 10 0
BBX 10 20 0 0
BITMAP
0000
0000
0000
0000
0000
0000
0000
1C00
3200
4100
C1C0
0000
0000
1100
1100
C4C0
2A00
2200
0800
0000
ENDCHAR
STARTCHAR E31A
ENCODING 58138
SWIDTH 1107 0
DWIDTH 10 0
BBX 10 20 0 0
BITMAP
0000
0000
0000
0000
0000
0000
0000
0000
0000
0000
1C00
3200
4100
C1C0
8040
0000
0000
0400
D2C0
0000
ENDCHAR
STARTCHAR E31B
ENCODING 58139
SWIDTH 1107 0
DWIDTH 10 0
BBX 10 20 0 0
BITMAP
0000
0000
0000
0000
0000
0000
1C00
3200
4100
C1C0
0440
0400
3000
0400
CEC0
0E00
0000
0000
0000
0000
ENDCHAR
STARTCHAR E31C
ENCODING 58140
SWIDTH 1107 0
DWIDTH 10 0
BBX 10 20 0 0
BITMAP
0000
0000
0000
0000
0000
0000
0000
1C00
3200
4100
C1C0
0040
0000
3100
6100
E4C0
7200
2200
4800
0000
ENDCHAR
STARTCHAR E31D
ENCODING 58141
SWIDTH 1107 0
DWIDTH 10 0
BBX 10 20 0 0
BITMAP
0000
0000
0000
0000
0000
0000
1C00
3200
4100
C1C0
0000
0000
3500
6500
E5C0
7A00
2A00
0800
4000
0000
ENDCHAR
STARTCHAR E31E
ENCODING 58142
SWIDTH 1107 0
DWIDTH 10 0
BBX 10 20 0 0
BITMAP
0000
0000
0000
0000
0000
0000
0000
0000
0000
FF00
0000
FEC0
7F80
0000
0000
0000
0000
0000
0000
0000
ENDCHAR
STARTCHAR E31F
ENCODING 58143
SWIDTH 1107 0
DWIDTH 10 0
BBX 10 20 0 0
BITMAP
0000
0000
0000
0000
0000
0180
0E80
1240
0040
2180
4C40
0400
FC00
0040
EFC0
0000
6000
0000
0000
0000
ENDCHAR
STARTCHAR E320
ENCODING 58144
SWIDTH 1107 0
DWIDTH 10 0
BBX 10 20 0 0
BITMAP
0000
0000
0000
0000
0000
0180
0E80
0280
1340
31C0
00C0
0040
7C40
00C0
F780
0000
3C00
0000
0000
0000
ENDCHAR
STARTCHAR E321
ENCODING 58145
SWIDTH 1107 0
DWIDTH 10 0
BBX 10 20 0 0
BITMAP
0000
0000
0000
0000
0000
0180
1A80
0680
2240
61C0
80C0
0040
1440
8AC0
4B80
0800
0A00
0000
1000
0000
ENDCHAR
STARTCHAR E322
ENCODING 58146
SWIDTH 1107 0
DWIDTH 10 0
BBX 10 20 0 0
BITMAP
0000
0000
0000
0000
0000
0000
0180
1E80
0680
2240
61C0
80C0
0C40
0C40
88C0
5D80
0800
0800
0000
0000
ENDCHAR
STARTCHAR E323
ENCODING 58147
SWIDTH 1107 0
DWIDTH 10 0
BBX 10 20 0 0
BITMAP
0000
0000
0000
0000
0000
0180
1E80
2680
2240
61C0
80C0
0040
1040
80C0
4B80
0800
0A00
0000
1000
0000
ENDCHAR
STARTCHAR E324
ENCODING 58148
SWIDTH 1107 0
DWIDTH 10 0
BBX 10 20 0 0
BITMAP
0000
0000
0000
0000
0000
0180
1A80
2680
2240
61C0
80C0
0040
0040
92C0
5580
0800
1A00
1400
0000
0000
ENDCHAR
STARTCHAR E325
ENCODING 58149
SWIDTH 1107 0
DWIDTH 10 0
BBX 10 20 0 0
BITMAP
0000
0000
0000
0000
0000
0180
1E80
2680
2240
61C0
80C0
0040
1440
8CC0
4B80
0A00
0A00
1800
1000
0000
ENDCHAR
STARTCHAR E326
ENCODING 58150
SWIDTH 1107 0
DWIDTH 10 0
BBX 10 20 0 0
BITMAP
0000
0000
0000
0000
0000
0180
1A80
0680
2240
61C0
80C0
0040
1040
80C0
4980
0A00
0200
1000
1000
0000
ENDCHAR
STARTCHAR E327
ENCODING 58151
SWIDTH 1107 0
DWIDTH 10 0
BBX 10 20 0 0
BITMAP
0000
0000
0000
0000
0000
0000
0000
0180
1E80
2680
2240
61C0
80C0
0040
0040
88C0
4380
0800
0200
0000
ENDCHAR
STARTCHAR E328
ENCODING 58152
SWIDTH 1107 0
DWIDTH 10 0
BBX 10 20 0 0
BITMAP
0000
0000
0000
0000
0000
0180
1E80
0680
2240
61C0
84C0
0040
1040
84C0
4F80
0E00
0000
0000
0000
0000
ENDCHAR
STARTCHAR E329
ENCODING 58153
SWIDTH 1107 0
DWIDTH 10 0
BBX 10 20 0 0
BITMAP
0000
0000
0000
0000
0000
0000
0180
1E80
2680
2240
61C0
80C0
0040
2040
A0C0
6980
6A00
2200
3800
0000
ENDCHAR
STARTCHAR E32A
ENCODING 58154
SWIDTH 1107 0
DWIDTH 10 0
BBX 10 20 0 0
BITMAP
0000
0000
0000
0000
0000
0000
0180
1E80
2680
2240
61C0
80C0
0040
2440
A8C0
6B80
6A00
2A00
3000
0000
ENDCHAR
STARTCHAR E32B
ENCODING 58155
SWIDTH 1107 0
DWIDTH 10 0
BBX 10 20 0 0
BITMAP
0040
0040
0040
0040
0040
0040
0040
0040
0040
0040
0040
0040
0040
0040
0040
0040
0040
0040
0040
0040
ENDCHAR
STARTCHAR E32C
ENCODING 58156
SWIDTH 1107 0
DWIDTH 10 0
BBX 10 20 0 0
BITMAP
0000
0000
0000
0000
0000
0000
0DC0
1200
0000
2180
4C40
0200
FC00
0040
E7C0
0000
2000
0000
0000
0000
ENDCHAR
STARTCHAR E32D
ENCODING 58157
SWIDTH 1107 0
DWIDTH 10 0
BBX 10 20 0 0
BITMAP
0000
0000
0000
0000
0000
0000
0FC0
0240
1100
3180
00C0
0040
7C40
0040
F780
0000
3C00
0000
0000
0000
ENDCHAR
STARTCHAR E32E
ENCODING 58158
SWIDTH 1107 0
DWIDTH 10 0
BBX 10 20 0 0
BITMAP
0000
0000
0000
0000
0000
0000
1FC0
0640
2040
61C0
80C0
8040
8040
80C0
7F80
0000
0000
0000
0000
0000
ENDCHAR
STARTCHAR E32F
ENCODING 58159
SWIDTH 1107 0
DWIDTH 10 0
BBX 10 20 0 0
BITMAP
0000
0000
0000
0000
0000
0000
0000
0000
1FC0
0640
2040
61C0
80C0
8040
9440
94C0
4B80
0800
0A00
0000
ENDCHAR
STARTCHAR E330
ENCODING 58160
SWIDTH 1107 0
DWIDTH 10 0
BBX 10 20 0 0
BITMAP
0000
0000
0000
0000
0000
0000
0000
1FC0
0640
2040
61C0
80C0
8C40
8C40
88C0
5D80
0800
0800
0000
0000
ENDCHAR
STARTCHAR E331
ENCODING 58161
SWIDTH 1107 0
DWIDTH 10 0
BBX 10 20 0 0
BITMAP
0000
0000
0000
0000
0000
0000
1FC0
0640
2000
61C0
80C0
8040
1040
80C0
4B80
0800
0A00
0000
1000
0000
ENDCHAR
STARTCHAR E332
ENCODING 58162
SWIDTH 1107 0
DWIDTH 10 0
BBX 10 20 0 0
BITMAP
0000
0000
0000
0000
0000
0000
1FC0
0640
2000
6180
80C0
8040
0040
9240
D580
0C00
3A00
0400
0000
0000
ENDCHAR
STARTCHAR E333
ENCODING 58163
SWIDTH 1107 0
DWIDTH 10 0
BBX 10 20 0 0
BITMAP
0000
0000
0000
0000
0000
0000
0000
1FC0
0640
2040
61C0
80C0
8040
9440
94C0
4B80
0A00
0A00
1800
0000
ENDCHAR
STARTCHAR E334
ENCODING 58164
SWIDTH 1107 0
DWIDTH 10 0
BBX 10 20 0 0
BITMAP
0000
0000
0000
0000
0000
0000
1FC0
0640
2040
61C0
80C0
8040
9040
90C0
4980
0A00
0200
1800
1000
0000
ENDCHAR
STARTCHAR E335
ENCODING 58165
SWIDTH 1107 0
DWIDTH 10 0
BBX 10 20 0 0
BITMAP
0000
0000
0000
0000
0000
0000
0000
0000
1FC0
0640
2040
61C0
80C0
8040
8040
88C0
4380
0800
0200
0000
ENDCHAR
STARTCHAR E336
ENCODING 58166
SWIDTH 1107 0
DWIDTH 10 0
BBX 10 20 0 0
BITMAP
0000
0000
0000
0000
0000
0000
1FC0
0640
2040
61C0
84C0
8040
9040
84C0
4F80
0E00
0000
0000
0000
0000
ENDCHAR
STARTCHAR E337
ENCODING 58167
SWIDTH 1107 0
DWIDTH 10 0
BBX 10 20 0 0
BITMAP
0000
0000
0000
0000
0000
0000
0000
1FC0
0640
2040
61C0
80C0
8040
9040
A0C0
6980
6A00
2200
2800
0000
ENDCHAR
STARTCHAR E338
ENCODING 58168
SWIDTH 1107 0
DWIDTH 10 0
BBX 10 20 0 0
BITMAP
0000
0000
0000
0000
0000
0000
0000
1FC0
0640
2040
61C0
80C0
8040
9440
A4C0
6B80
6A00
0A00
3800
0000
ENDCHAR
STARTCHAR E339
ENCODING 58169
SWIDTH 1107 0
DWIDTH 10 0
BBX 10 20 0 0
BITMAP
0000
0000
0000
0000
4100
E3C0
2440
2400
2C00
EC00
0C00
0C00
0C00
0C00
0C00
0C00
0400
0440
03C0
0100
ENDCHAR
STARTCHAR E33A
ENCODING 58170
SWIDTH 1107 0
DWIDTH 10 0
BBX 10 20 0 0
BITMAP
0000
0000
0000
0000
0000
0000
1C00
3200
4100
C1C0
0000
0C00
1E00
1E00
CCC0
0000
0000
0000
0000
0000
ENDCHAR
STARTCHAR E33B
ENCODING 58171
SWIDTH 1107 0
DWIDTH 10 0
BBX 10 20 0 0
BITMAP
0000
0000
0000
0000
0000
0000
1C00
3200
4100
C9C0
0C00
1400
3000
1200
DEC0
0000
0000
0000
0000
0000
ENDCHAR
STARTCHAR E33C
ENCODING 58172
SWIDTH 1107 0
DWIDTH 10 0
BBX 10 20 0 0
BITMAP
0000
0000
0000
0000
0000
0000
1C00
3200
4100
C1C0
0000
0C00
1E00
0C00
CCC0
0000
0000
0000
0000
0000
ENDCHAR
STARTCHAR E33D
ENCODING 58173
SWIDTH 1107 0
DWIDTH 10 0
BBX 10 20 0 0
BITMAP
0000
0000
0000
0000
0000
0000
1C00
3200
4100
C1C0
0000
0000
0000
0000
FFC0
0000
0000
0000
0000
0000
ENDCHAR
STARTCHAR E33E
ENCODING 58174
SWIDTH 1107 0
DWIDTH 10 0
BBX 10 20 0 0
BITMAP
0000
0000
0000
0000
0000
0000
0000
0000
0000
0000
0000
0000
0000
0000
0000
0000
0000
0000
0000
0000
ENDCHAR
STARTCHAR E33F
ENCODING 58175
SWIDTH 1107 0
DWIDTH 10 0
BBX 10 20 0 0
BITMAP
0000
0000
0000
0000
0000
0080
01C0
0380
0700
CE00
DC00
F800
F000
FC00
7C00
0000
0000
0000
0000
0000
ENDCHAR
STARTCHAR E340
ENCODING 58176
SWIDTH 1107 0
DWIDTH 10 0
BBX 10 20 0 0
BITMAP
0000
0000
0000
0C00
0C00
0C00
0C00
0C00
0C00
0C00
0C00
0C00
4C80
EDC0
7F80
3F00
1E00
0C00
0000
0000
ENDCHAR
STARTCHAR E341
ENCODING 58177
SWIDTH 1107 0
DWIDTH 10 0
BBX 10 20 0 0
BITMAP
0000
0000
0000
0000
0000
0000
E7C0
A400
8400
A400
E400
0400
0780
0780
0400
0400
0400
0400
0400
0400
ENDCHAR
STARTCHAR E342
ENCODING 58178
SWIDTH 1107 0
DWIDTH 10 0
BBX 10 20 0 0
BITMAP
0000
0000
0000
0000
0000
0C00
0C00
6180
2D00
1200
0000
C0C0
0000
0000
FFC0
0000
0000
0000
0000
0000
ENDCHAR
STARTCHAR E343
ENCODING 58179
SWIDTH 1107 0
DWIDTH 10 0
BBX 10 20 0 0
BITMAP
0000
0000
0000
0000
0000
0000
0000
0C00
0C00
8040
4080
1E00
2100
0000
FFC0
0000
0000
0000
0000
0000
ENDCHAR
STARTCHAR E344
ENCODING 58180
SWIDTH 1107 0
DWIDTH 10 0
BBX 10 20 0 0
BITMAP
0000
0000
0000
0000
0000
0000
0000
2000
6000
E000
FFC0
FFC0
E000
E000
6000
0000
0000
0000
0000
0000
ENDCHAR
STARTCHAR E345
ENCODING 58181
SWIDTH 1107 0
DWIDTH 10 0
BBX 10 20 0 0
BITMAP
0000
0000
0000
0000
0000
0000
0000
0000
0000
0000
0000
0000
0000
0000
0000
0000
0000
0000
0000
0000
ENDCHAR
STARTCHAR E346
ENCODING 58182
SWIDTH 1107 0
DWIDTH 10 0
BBX 10 20 0 0
BITMAP
0000
0000
0000
0000
0000
0300
0E00
1280
32C0
2340
4080
0000
7F80
0000
FF00
0000
3FC0
0000
0000
0000
ENDCHAR
STARTCHAR E347
ENCODING 58183
SWIDTH 1107 0
DWIDTH 10 0
BBX 10 20 0 0
BITMAP
0000
0000
0200
0700
0380
1FC0
3F80
7300
6200
E000
C000
C000
E000
6000
7000
3E00
1F00
0000
0000
0000
ENDCHAR
STARTCHAR E348
ENCODING 58184
SWIDTH 1107 0
DWIDTH 10 0
BBX 10 20 0 0
BITMAP
0000
0000
0800
0C00
0C00
3E00
3E00
6C00
CC00
C000
C000
C0C0
C0C0
C0C0
C0C0
C0C0
7180
3F00
3F00
0C00
ENDCHAR
STARTCHAR E349
ENCODING 58185
SWIDTH 1107 0
DWIDTH 10 0
BBX 10 20 0 0
BITMAP
0000
0000
0000
0000
0000
0000
0300
0180
01C0
FFC0
FFC0
01C0
01C0
0180
0100
0000
0000
0000
0000
0000
ENDCHAR
STARTCHAR E34A
ENCODING 58186
SWIDTH 1107 0
DWIDTH 10 0
BBX 10 20 0 0
BITMAP
0000
0000
0000
0000
0000
0000
0000
0000
0000
0000
0000
0000
0000
0000
0000
0000
0000
0000
0000
0000
ENDCHAR
STARTCHAR E34B
ENCODING 58187
SWIDTH 1107 0
DWIDTH 10 0
BBX 10 20 0 0
BITMAP
0000
0000
0000
0000
0000
0000
0000
0040
0080
0000
FFC0
0000
FF00
0100
0200
0000
0000
0000
0000
0000
ENDCHAR
STARTCHAR E34C
ENCODING 58188
SWIDTH 1107 0
DWIDTH 10 0
BBX 10 20 0 0
BITMAP
0000
0000
0000
0000
0C00
0C00
4080
2100
1E00
0000
2100
A140
0800
1E00
3300
0000
0000
0000
0000
0000
ENDCHAR
STARTCHAR E34D
ENCODING 58189
SWIDTH 1107 0
DWIDTH 10 0
BBX 10 20 0 0
BITMAP
0000
0000
0000
0000
0000
0C00
0C00
4080
6180
1E00
0000
2100
A140
0000
0000
3300
1E00
0000
0000
0000
ENDCHAR
STARTCHAR E34E
ENCODING 58190
SWIDTH 1107 0
DWIDTH 10 0
BBX 10 20 0 0
BITMAP
0040
0040
0040
0040
0040
0040
0040
0040
0040
0040
0040
0040
0040
0040
0040
0040
0040
0040
0040
0040
ENDCHAR
STARTCHAR E34F
ENCODING 58191
SWIDTH 1107 0
DWIDTH 10 0
BBX 10 20 0 0
BITMAP
0000
0000
0000
0000
0000
0000
0000
0000
0000
0000
0000
0000
0000
0000
0000
0000
0000
0000
0000
0000
ENDCHAR
STARTCHAR E350
ENCODING 58192
SWIDTH 1107 0
DWIDTH 10 0
BBX 10 20 0 0
BITMAP
0040
0040
0040
0040
0040
0040
0040
0040
0040
0040
0040
0040
0040
0040
0040
0040
0040
0040
0040
0040
ENDCHAR
STARTCHAR E351
ENCODING 58193
SWIDTH 1107 0
DWIDTH 10 0
BBX 10 20 0 0
BITMAP
0040
0040
0040
0040
0040
0040
0040
0040
0040
0040
0040
0040
0040
0040
0040
0040
0040
0040
0040
0040
ENDCHAR
STARTCHAR E352
ENCODING 58194
SWIDTH 1107 0
DWIDTH 10 0
BBX 10 20 0 0
BITMAP
0000
0000
0000
0000
0000
0F80
0FC0
03C0
07C0
0EC0
1CC0
3800
7000
E000
0000
0000
0000
0000
0000
0000
ENDCHAR
STARTCHAR E353
ENCODING 58195
SWIDTH 1107 0
DWIDTH 10 0
BBX 10 20 0 0
BITMAP
0000
0000
1E00
3F00
7F80
7F80
EDC0
0C00
0C00
0C00
0C00
0C00
0C00
0C00
0C00
0C00
0000
0000
0000
0000
ENDCHAR
STARTCHAR E354
ENCODING 58196
SWIDTH 1107 0
DWIDTH 10 0
BBX 10 20 0 0
BITMAP
0000
0000
1E00
3F00
6180
4080
8040
8040
9040
9C40
8E40
8C40
9840
9040
8040
4080
6180
7380
1E00
0C00
ENDCHAR
STARTCHAR E355
ENCODING 58197
SWIDTH 1107 0
DWIDTH 10 0
BBX 10 20 0 0
BITMAP
0000
0000
1E00
3F00
6180
4080
8040
8040
8240
8E40
9C40
8C40
8C40
8440
8440
4080
6180
7380
1E00
0C00
ENDCHAR
STARTCHAR E356
ENCODING 58198
SWIDTH 1107 0
DWIDTH 10 0
BBX 10 20 0 0
BITMAP
0000
0000
1E00
3F00
6180
4080
8040
8040
9040
8C40
8E40
8E40
8C40
8C40
8040
4080
6180
7380
1E00
0C00
ENDCHAR
STARTCHAR E357
ENCODING 58199
SWIDTH 1107 0
DWIDTH 10 0
BBX 10 20 0 0
BITMAP
0000
0000
1E00
3F00
6180
4080
8040
8040
8C40
8C40
8C40
8C40
9E40
9240
8040
C0C0
6180
7380
1E00
0C00
ENDCHAR
STARTCHAR E358
ENCODING 58200
SWIDTH 1107 0
DWIDTH 10 0
BBX 10 20 0 0
BITMAP
0000
0000
1E00
3F00
6180
4080
8040
8840
8C40
9C40
BC40
8C40
8440
8240
8040
4080
6180
7380
1E00
0C00
ENDCHAR
STARTCHAR E359
ENCODING 58201
SWIDTH 1107 0
DWIDTH 10 0
BBX 10 20 0 0
BITMAP
0000
0000
1E00
3F00
6180
4080
8040
8440
8C40
8E40
8F40
8C40
8840
8040
8040
4080
6180
7380
1E00
0C00
ENDCHAR
STARTCHAR E35A
ENCODING 58202
SWIDTH 1107 0
DWIDTH 10 0
BBX 10 20 0 0
BITMAP
0000
0000
1E00
3F00
6180
4080
8040
8040
9E40
8C40
8C40
8C40
8C40
8C40
8040
C0C0
6180
7380
1E00
0C00
ENDCHAR
STARTCHAR E35B
ENCODING 58203
SWIDTH 1107 0
DWIDTH 10 0
BBX 10 20 0 0
BITMAP
0000
0000
1E00
7F80
6180
4080
8040
8040
8240
8E40
9C40
8C40
8640
8040
8040
C0C0
6180
7380
1E00
0C00
ENDCHAR
STARTCHAR E35C
ENCODING 58204
SWIDTH 1107 0
DWIDTH 10 0
BBX 10 20 0 0
BITMAP
0000
0000
0000
0000
0000
1600
2000
4180
8040
8040
8040
7000
1F80
1F00
0E00
0600
0000
0000
0000
0000
ENDCHAR
STARTCHAR E35D
ENCODING 58205
SWIDTH 1107 0
DWIDTH 10 0
BBX 10 20 0 0
BITMAP
0000
0000
0000
0000
0000
0000
0000
0000
EF40
0000
3D80
FD80
0000
7F00
0000
0000
0000
0000
0000
0000
ENDCHAR
STARTCHAR E35E
ENCODING 58206
SWIDTH 1107 0
DWIDTH 10 0
BBX 10 20 0 0
BITMAP
0000
0000
0000
0000
0000
0000
0000
0000
1C00
3200
4100
C1C0
8040
0000
0000
0400
D2C0
0800
2200
0000
ENDCHAR
STARTCHAR E35F
ENCODING 58207
SWIDTH 1107 0
DWIDTH 10 0
BBX 10 20 0 0
BITMAP
0000
0000
0000
0000
1080
0080
3700
2900
4440
C600
8100
0100
0180
0100
E600
1000
0800
1000
0000
0000
ENDCHAR
STARTCHAR E360
ENCODING 58208
SWIDTH 1107 0
DWIDTH 10 0
BBX 10 20 0 0
BITMAP
0000
0000
0000
0000
0000
0000
0000
1FC0
0640
2040
61C0
80C0
8040
8040
88C0
4380
0800
0200
0000
0000
ENDCHAR
STARTCHAR E361
ENCODING 58209
SWIDTH 1107 0
DWIDTH 10 0
BBX 10 20 0 0
BITMAP
0000
0000
0000
0000
0000
0000
0000
0180
1E80
2680
2240
61C0
80C0
0040
0040
88C0
4380
0800
0200
0000
ENDCHAR
STARTCHAR E362
ENCODING 58210
SWIDTH 1107 0
DWIDTH 10 0
BBX 10 20 0 0
BITMAP
0000
0000
0000
0000
1080
0080
3F00
2900
4440
C600
8100
0100
2180
4100
C600
6000
1800
4000
1000
0000
ENDCHAR
STARTCHAR E363
ENCODING 58211
SWIDTH 1107 0
DWIDTH 10 0
BBX 10 20 0 0
BITMAP
0000
0000
0000
0000
0000
0000
1FC0
0640
2000
61C0
80C0
8040
9040
A0C0
6B80
6800
2A00
2000
1000
0000
ENDCHAR
STARTCHAR E364
ENCODING 58212
SWIDTH 1107 0
DWIDTH 10 0
BBX 10 20 0 0
BITMAP
0000
0000
0000
0000
0000
0180
1E80
2680
2240
61C0
80C0
0040
2040
A0C0
6B80
6800
2A00
3000
1000
0000
ENDCHAR
STARTCHAR E365
ENCODING 58213
SWIDTH 1107 0
DWIDTH 10 0
BBX 10 20 0 0
BITMAP
0000
0000
0000
0000
0000
1080
0080
3F00
2900
4440
C600
8100
0100
2180
4100
C600
6000
0000
4000
0000
ENDCHAR
STARTCHAR E366
ENCODING 58214
SWIDTH 1107 0
DWIDTH 10 0
BBX 10 20 0 0
BITMAP
0000
0000
0000
0000
0000
0000
0000
1FC0
0640
2000
61C0
80C0
8040
9040
A8C0
6380
6800
2200
2000
0000
ENDCHAR
STARTCHAR E367
ENCODING 58215
SWIDTH 1107 0
DWIDTH 10 0
BBX 10 20 0 0
BITMAP
0000
0000
0000
0000
0000
0000
0180
1E80
2680
2240
61C0
80C0
0040
2040
A8C0
6380
6800
2200
2000
0000
ENDCHAR
STARTCHAR E368
ENCODING 58216
SWIDTH 1107 0
DWIDTH 10 0
BBX 10 20 0 0
BITMAP
0000
0000
0000
0C00
0C00
4C80
6180
2D00
1E00
1E00
1C00
9C40
1C00
1E00
1A00
0C00
6180
4080
0C00
0C00
ENDCHAR
STARTCHAR E369
ENCODING 58217
SWIDTH 1107 0
DWIDTH 10 0
BBX 10 20 0 0
BITMAP
0040
0040
0040
0040
0040
0040
0040
0040
0040
0040
0040
0040
0040
0040
0040
0040
0040
0040
0040
0040
ENDCHAR
STARTCHAR E36A
ENCODING 58218
SWIDTH 1107 0
DWIDTH 10 0
BBX 10 20 0 0
BITMAP
0000
0000
0000
0000
0000
0000
0000
0000
0000
0000
0000
0000
0000
0000
0000
0000
0000
0000
0000
0000
ENDCHAR
STARTCHAR E36B
ENCODING 58219
SWIDTH 1107 0
DWIDTH 10 0
BBX 10 20 0 0
BITMAP
0000
0000
0000
0000
0000
0C00
4080
2100
1E00
0000
C0C0
0000
0800
0C00
1500
1500
0000
0000
0000
0000
ENDCHAR
STARTCHAR E36C
ENCODING 58220
SWIDTH 1107 0
DWIDTH 10 0
BBX 10 20 0 0
BITMAP
0000
0000
0000
0000
0000
0000
0000
0000
0000
0000
0000
0000
0000
0000
0000
0000
0000
0000
0000
0000
ENDCHAR
STARTCHAR E36D
ENCODING 58221
SWIDTH 1107 0
DWIDTH 10 0
BBX 10 20 0 0
BITMAP
0000
0000
0000
0000
0000
3E00
3E00
7F80
FFC0
FFC0
FFC0
7F80
1F80
1F00
0E00
0600
0000
0000
0000
0000
ENDCHAR
STARTCHAR E36E
ENCODING 58222
SWIDTH 1107 0
DWIDTH 10 0
BBX 10 20 0 0
BITMAP
0040
0040
0040
0040
0040
0040
0040
0040
0040
0040
0040
0040
0040
0040
0040
0040
0040
0040
0040
0040
ENDCHAR
STARTCHAR E36F
ENCODING 58223
SWIDTH 1107 0
DWIDTH 10 0
BBX 10 20 0 0
BITMAP
0000
0000
0000
0000
0000
0000
0000
0000
3300
1E00
BF40
1E00
3200
0000
0000
0000
0000
0000
0000
0000
ENDCHAR
STARTCHAR E370
ENCODING 58224
SWIDTH 1107 0
DWIDTH 10 0
BBX 10 20 0 0
BITMAP
0000
0000
0000
0000
0000
1000
3000
3800
1000
0000
80C0
8080
8800
0C00
0800
0000
0000
0000
0000
0000
ENDCHAR
STARTCHAR E371
ENCODING 58225
SWIDTH 1107 0
DWIDTH 10 0
BBX 10 20 0 0
BITMAP
0000
0000
0000
0000
0000
0000
0000
0000
0000
0000
0000
0000
0000
0000
0000
0000
0000
0000
0000
0000
ENDCHAR
STARTCHAR E372
ENCODING 58226
SWIDTH 1107 0
DWIDTH 10 0
BBX 10 20 0 0
BITMAP
0040
0040
0040
0040
0040
0040
0040
0040
0040
0040
0040
0040
0040
0040
0040
0040
0040
0040
0040
0040
ENDCHAR
STARTCHAR E373
ENCODING 58227
SWIDTH 1107 0
DWIDTH 10 0
BBX 10 20 0 0
BITMAP
0000
0000
0000
0000
0000
0C00
1E00
3F00
4D80
5B80
4B80
F4C0
7480
6C80
3F00
1C00
0000
0000
0000
0000
ENDCHAR
STARTCHAR E374
ENCODING 58228
SWIDTH 1107 0
DWIDTH 10 0
BBX 10 20 0 0
BITMAP
0000
0000
0000
0000
0000
0000
0000
0000
0000
F580
F580
B380
BA40
0000
0000
0000
0000
0000
0000
0000
ENDCHAR
STARTCHAR E375
ENCODING 58229
SWIDTH 1107 0
DWIDTH 10 0
BBX 10 20 0 0
BITMAP
0000
0000
0000
0000
0000
0000
0C00
1200
0000
0000
0000
0000
FFC0
FFC0
FFC0
0000
0000
0000
0000
0000
ENDCHAR
STARTCHAR E376
ENCODING 58230
SWIDTH 1107 0
DWIDTH 10 0
BBX 10 20 0 0
BITMAP
0000
0000
0000
0000
0000
3800
4C00
4600
8080
0000
0100
FF40
0900
0600
1080
0200
0200
0000
0000
0000
ENDCHAR
STARTCHAR E377
ENCODING 58231
SWIDTH 1107 0
DWIDTH 10 0
BBX 10 20 0 0
BITMAP
0000
0000
0000
0000
1C00
2600
2200
C100
8080
0040
0040
8080
FF40
0400
0200
02C0
0000
0000
0000
0000
ENDCHAR
STARTCHAR E378
ENCODING 58232
SWIDTH 1107 0
DWIDTH 10 0
BBX 10 20 0 0
BITMAP
0000
0000
0000
0000
1800
2600
2200
C100
8080
0040
0040
8080
FF00
0400
0000
03C0
0000
0000
0000
0000
ENDCHAR
STARTCHAR E379
ENCODING 58233
SWIDTH 1107 0
DWIDTH 10 0
BBX 10 20 0 0
BITMAP
0000
0000
0000
0000
0000
0000
0700
0D00
1100
1180
3CC0
24C0
E780
8100
C100
7F00
0000
0000
0000
0000
ENDCHAR
STARTCHAR E37A
ENCODING 58234
SWIDTH 1107 0
DWIDTH 10 0
BBX 10 20 0 0
BITMAP
0000
0000
0000
0000
0000
0000
2000
0840
8080
0000
FFC0
0000
FF40
2100
8A00
0000
0000
0000
0000
0000
ENDCHAR
STARTCHAR E37B
ENCODING 58235
SWIDTH 1107 0
DWIDTH 10 0
BBX 10 20 0 0
BITMAP
0000
0000
0000
0000
0000
0000
0700
0D80
10C0
1040
3C40
24C0
E780
8100
C100
7F00
0000
0000
0000
0000
ENDCHAR
STARTCHAR E37C
ENCODING 58236
SWIDTH 1107 0
DWIDTH 10 0
BBX 10 20 0 0
BITMAP
0000
0000
0000
0000
0000
3F00
C0C0
8040
0000
3300
0000
0000
0000
0000
2800
1800
0000
0000
0000
0000
ENDCHAR
STARTCHAR E37D
ENCODING 58237
SWIDTH 1107 0
DWIDTH 10 0
BBX 10 20 0 0
BITMAP
0000
0000
0000
0000
1080
0080
0700
0900
2840
0000
0900
0600
F880
0000
E000
2000
2000
0000
0000
0000
ENDCHAR
STARTCHAR E37E
ENCODING 58238
SWIDTH 1107 0
DWIDTH 10 0
BBX 10 20 0 0
BITMAP
0000
0000
0000
0000
0000
0180
1E80
0680
2240
61C0
80C0
0040
0040
80C0
7F80
0000
0000
0000
0000
0000
ENDCHAR
STARTCHAR E37F
ENCODING 58239
SWIDTH 1107 0
DWIDTH 10 0
BBX 10 20 0 0
BITMAP
0000
0000
0000
0000
0000
7C00
FC00
F000
F800
DC00
CE00
0700
0380
01C0
0080
0000
0000
0000
0000
0000
ENDCHAR
STARTCHAR E380
ENCODING 58240
SWIDTH 1107 0
DWIDTH 10 0
BBX 10 20 0 0
BITMAP
0000
0000
0000
0000
0000
E000
7000
3800
1CC0
0EC0
07C0
03C0
0FC0
0F80
0000
0000
0000
0000
0000
0000
ENDCHAR
STARTCHAR E381
ENCODING 58241
SWIDTH 1107 0
DWIDTH 10 0
BBX 10 20 0 0
BITMAP
0000
0000
1E00
7F80
6180
4C80
8C40
8C40
8C40
8C40
8C40
8040
8040
8040
8040
C0C0
6180
7380
1E00
0C00
ENDCHAR
STARTCHAR E382
ENCODING 58242
SWIDTH 1107 0
DWIDTH 10 0
BBX 10 20 0 0
BITMAP
0000
0000
1E00
7F80
6180
4C80
8C40
8E40
8C40
8C40
8C40
8040
8040
8040
8040
C0C0
6180
7380
1E00
0C00
ENDCHAR
STARTCHAR E383
ENCODING 58243
SWIDTH 1107 0
DWIDTH 10 0
BBX 10 20 0 0
BITMAP
0000
0000
1E00
7F80
6180
4C80
8C40
8C40
8E40
8E40
8C40
8040
8040
8040
8040
C0C0
6180
7380
1E00
0C00
ENDCHAR
STARTCHAR E384
ENCODING 58244
SWIDTH 1107 0
DWIDTH 10 0
BBX 10 20 0 0
BITMAP
0000
0000
1E00
7F80
6180
4C80
8C40
8C40
8C40
8C40
8E40
8040
8040
8040
8040
C0C0
6180
7380
1E00
0C00
ENDCHAR
STARTCHAR E385
ENCODING 58245
SWIDTH 1107 0
DWIDTH 10 0
BBX 10 20 0 0
BITMAP
0000
0000
1E00
7F80
6180
4C80
8C40
8C40
8C40
8C40
8C40
8640
8240
8040
8040
C0C0
6180
7380
1E00
0C00
ENDCHAR
STARTCHAR E386
ENCODING 58246
SWIDTH 1107 0
DWIDTH 10 0
BBX 10 20 0 0
BITMAP
0000
0000
1E00
7F80
6180
4C80
8C40
8C40
8C40
8C40
8C40
8440
8440
8040
8040
C0C0
6180
7380
1E00
0C00
ENDCHAR
STARTCHAR E387
ENCODING 58247
SWIDTH 1107 0
DWIDTH 10 0
BBX 10 20 0 0
BITMAP
0000
0000
1E00
7F80
6180
4C80
8C40
8C40
8C40
8C40
8C40
8C40
8C40
8C40
8C40
C0C0
6180
7380
1E00
0C00
ENDCHAR
STARTCHAR E388
ENCODING 58248
SWIDTH 1107 0
DWIDTH 10 0
BBX 10 20 0 0
BITMAP
0000
0000
1E00
7F80
6180
4C80
8C40
8C40
8C40
8C40
8C40
8840
8840
8040
8040
C0C0
6180
7380
1E00
0C00
ENDCHAR
STARTCHAR E389
ENCODING 58249
SWIDTH 1107 0
DWIDTH 10 0
BBX 10 20 0 0
BITMAP
0000
0000
1E00
7F80
6180
4C80
8C40
8C40
8C40
8C40
8C40
9840
9040
8040
8040
C0C0
6180
7380
1E00
0C00
ENDCHAR
STARTCHAR E38A
ENCODING 58250
SWIDTH 1107 0
DWIDTH 10 0
BBX 10 20 0 0
BITMAP
0000
0000
1E00
7F80
6180
4C80
8C40
8C40
8C40
8C40
9C40
8040
8040
8040
8040
C0C0
6180
7380
1E00
0C00
ENDCHAR
STARTCHAR E38B
ENCODING 58251
SWIDTH 1107 0
DWIDTH 10 0
BBX 10 20 0 0
BITMAP
0000
0000
1E00
7F80
6180
4C80
8C40
8C40
9C40
9C40
8C40
8040
8040
8040
8040
C0C0
6180
7380
1E00
0C00
ENDCHAR
STARTCHAR E38C
ENCODING 58252
SWIDTH 1107 0
DWIDTH 10 0
BBX 10 20 0 0
BITMAP
0000
0000
1E00
7F80
6180
4C80
8C40
9C40
8C40
8C40
8C40
8040
8040
8040
8040
C0C0
6180
7380
1E00
0C00
ENDCHAR
STARTCHAR E38D
ENCODING 58253
SWIDTH 1107 0
DWIDTH 10 0
BBX 10 20 0 0
BITMAP
0000
0000
1E00
6180
4080
0000
8040
8040
0000
0000
0000
0000
0000
8040
8040
8040
4080
6180
1200
0C00
ENDCHAR
STARTCHAR E38E
ENCODING 58254
SWIDTH 1107 0
DWIDTH 10 0
BBX 10 20 0 0
BITMAP
0000
0000
0000
0000
0000
0000
0000
0000
0000
0000
0000
0000
0000
0000
0000
0000
0000
0000
0000
0000
ENDCHAR
STARTCHAR E38F
ENCODING 58255
SWIDTH 1107 0
DWIDTH 10 0
BBX 10 20 0 0
BITMAP
0000
0000
0000
0000
0000
0000
0000
0000
0000
0000
0000
0000
0000
0000
0000
0000
0000
0000
0000
0000
ENDCHAR
STARTCHAR E390
ENCODING 58256
SWIDTH 1107 0
DWIDTH 10 0
BBX 10 20 0 0
BITMAP
0000
0000
0000
0000
0000
0000
0000
0000
0000
0000
0000
0000
0000
0000
0000
0000
0000
0000
0000
0000
ENDCHAR
STARTCHAR E391
ENCODING 58257
SWIDTH 1107 0
DWIDTH 10 0
BBX 10 20 0 0
BITMAP
0000
0000
0000
0000
0000
0000
0000
0000
0000
0000
0000
0000
0000
0000
0000
0000
0000
0000
0000
0000
ENDCHAR
STARTCHAR E392
ENCODING 58258
SWIDTH 1107 0
DWIDTH 10 0
BBX 10 20 0 0
BITMAP
0000
0000
0000
0000
0000
0000
0000
0000
0000
0000
0000
0000
0000
0000
0000
0000
0000
0000
0000
0000
ENDCHAR
STARTCHAR E393
ENCODING 58259
SWIDTH 1107 0
DWIDTH 10 0
BBX 10 20 0 0
BITMAP
0000
0000
0000
0000
0000
0000
0000
0000
0000
0000
0000
0000
0000
0000
0000
0000
0000
0000
0000
0000
ENDCHAR
STARTCHAR E394
ENCODING 58260
SWIDTH 1107 0
DWIDTH 10 0
BBX 10 20 0 0
BITMAP
0000
0000
0000
0000
0000
0000
0000
0000
0000
0000
0000
0000
0000
0000
0000
0000
0000
0000
0000
0000
ENDCHAR
STARTCHAR E395
ENCODING 58261
SWIDTH 1107 0
DWIDTH 10 0
BBX 10 20 0 0
BITMAP
0000
0000
7800
7C00
7F00
FF00
FF80
FF80
FFC0
FFC0
FFC0
FFC0
FFC0
FFC0
FF80
FF80
FF00
7E00
7800
4000
ENDCHAR
STARTCHAR E396
ENCODING 58262
SWIDTH 1107 0
DWIDTH 10 0
BBX 10 20 0 0
BITMAP
0000
0000
3C00
7E00
7F80
7F80
7FC0
7FC0
7FC0
7FC0
7FC0
7FC0
7FC0
7FC0
7FC0
7FC0
7F80
7F00
7C00
2000
ENDCHAR
STARTCHAR E397
ENCODING 58263
SWIDTH 1107 0
DWIDTH 10 0
BBX 10 20 0 0
BITMAP
0000
0000
7C00
7F00
7F80
FF80
FFC0
FFC0
FFC0
FFC0
FFC0
FFC0
FFC0
FFC0
FFC0
FFC0
FF80
7F00
7C00
2000
ENDCHAR
STARTCHAR E398
ENCODING 58264
SWIDTH 1107 0
DWIDTH 10 0
BBX 10 20 0 0
BITMAP
0000
0000
7C00
FF00
FF80
FF80
FFC0
FFC0
FFC0
FFC0
FFC0
FFC0
FFC0
FFC0
FFC0
FFC0
FF80
FF00
7C00
2000
ENDCHAR
STARTCHAR E399
ENCODING 58265
SWIDTH 1107 0
DWIDTH 10 0
BBX 10 20 0 0
BITMAP
0000
0000
3C00
7F00
FF80
FF80
FFC0
FFC0
FFC0
FFC0
FFC0
FFC0
FFC0
FFC0
FFC0
FFC0
FF80
7F00
7C00
1000
ENDCHAR
STARTCHAR E39A
ENCODING 58266
SWIDTH 1107 0
DWIDTH 10 0
BBX 10 20 0 0
BITMAP
0000
0000
1E00
7F00
7F80
FF80
FFC0
FFC0
FFC0
FFC0
FFC0
FFC0
FFC0
FFC0
FFC0
FFC0
FF80
7F00
3E00
1000
ENDCHAR
STARTCHAR E39B
ENCODING 58267
SWIDTH 1107 0
DWIDTH 10 0
BBX 10 20 0 0
BITMAP
0000
0000
1E00
7F00
7F80
7F80
FFC0
FFC0
FFC0
FFC0
FFC0
FFC0
FFC0
FFC0
FFC0
FFC0
7F80
7F80
1E00
0C00
ENDCHAR
STARTCHAR E39C
ENCODING 58268
SWIDTH 1107 0
DWIDTH 10 0
BBX 10 20 0 0
BITMAP
0000
0000
1F00
3F00
7F80
7FC0
FFC0
FFC0
FFC0
FFC0
FFC0
FFC0
FFC0
FFC0
FFC0
FFC0
7F80
3F80
1F00
0400
ENDCHAR
STARTCHAR E39D
ENCODING 58269
SWIDTH 1107 0
DWIDTH 10 0
BBX 10 20 0 0
BITMAP
0000
0000
1E00
1F00
7F80
7FC0
FFC0
FFC0
FFC0
FFC0
FFC0
FFC0
FFC0
FFC0
FFC0
FFC0
7FC0
3F80
1F00
0200
ENDCHAR
STARTCHAR E39E
ENCODING 58270
SWIDTH 1107 0
DWIDTH 10 0
BBX 10 20 0 0
BITMAP
0000
0000
0F00
1F80
7FC0
7FC0
FFC0
FFC0
FFC0
FFC0
FFC0
FFC0
FFC0
FFC0
FFC0
FFC0
7FC0
3F80
0F00
0200
ENDCHAR
STARTCHAR E39F
ENCODING 58271
SWIDTH 1107 0
DWIDTH 10 0
BBX 10 20 0 0
BITMAP
0000
0000
0F80
1F80
7FC0
7FC0
FFC0
FFC0
FFC0
FFC0
FFC0
FFC0
FFC0
FFC0
FFC0
FFC0
7FC0
3FC0
0F80
0100
ENDCHAR
STARTCHAR E3A0
ENCODING 58272
SWIDTH 1107 0
DWIDTH 10 0
BBX 10 20 0 0
BITMAP
0000
0000
0F00
1F80
7F80
7FC0
FFC0
FFC0
FFC0
FFC0
FFC0
FFC0
FFC0
FFC0
FFC0
FFC0
7FC0
3F80
0F80
0100
ENDCHAR
STARTCHAR E3A1
ENCODING 58273
SWIDTH 1107 0
DWIDTH 10 0
BBX 10 20 0 0
BITMAP
0000
0000
0780
0FC0
3FC0
3FC0
7FC0
7FC0
7FC0
7FC0
7FC0
7FC0
7FC0
7FC0
7FC0
7FC0
3FC0
1FC0
0780
0080
ENDCHAR
STARTCHAR E3A2
ENCODING 58274
SWIDTH 1107 0
DWIDTH 10 0
BBX 10 20 0 0
BITMAP
0000
0000
0000
0000
0000
0000
0000
0000
0000
0000
0000
0000
0000
0000
0000
0000
0000
0000
0000
0000
ENDCHAR
STARTCHAR E3A3
ENCODING 58275
SWIDTH 1107 0
DWIDTH 10 0
BBX 10 20 0 0
BITMAP
0000
0000
0000
0000
0000
0000
0000
0000
0000
0000
0000
0000
0000
0000
0000
0000
0000
0000
0000
0000
ENDCHAR
STARTCHAR E3A4
ENCODING 58276
SWIDTH 1107 0
DWIDTH 10 0
BBX 10 20 0 0
BITMAP
0000
0000
0000
0000
0000
0000
0000
0000
0000
0000
0000
0000
0000
0000
0000
0000
0000
0000
0000
0000
ENDCHAR
STARTCHAR E3A5
ENCODING 58277
SWIDTH 1107 0
DWIDTH 10 0
BBX 10 20 0 0
BITMAP
0000
0000
0000
0000
0000
0000
0000
0000
0000
0000
0000
0000
0000
0000
0000
0000
0000
0000
0000
0000
ENDCHAR
STARTCHAR E3A6
ENCODING 58278
SWIDTH 1107 0
DWIDTH 10 0
BBX 10 20 0 0
BITMAP
0000
0000
0000
0000
0000
0000
0000
0000
0000
0000
0000
0000
0000
0000
0000
0000
0000
0000
0000
0000
ENDCHAR
STARTCHAR E3A7
ENCODING 58279
SWIDTH 1107 0
DWIDTH 10 0
BBX 10 20 0 0
BITMAP
0000
0000
0000
0000
0000
0000
0000
0000
0000
0000
0000
0000
0000
0000
0000
0000
0000
0000
0000
0000
ENDCHAR
STARTCHAR E3A8
ENCODING 58280
SWIDTH 1107 0
DWIDTH 10 0
BBX 10 20 0 0
BITMAP
0000
0000
0000
0000
0000
0000
0000
0000
0000
0000
0000
0000
0000
0000
0000
0000
0000
0000
0000
0000
ENDCHAR
STARTCHAR E3A9
ENCODING 58281
SWIDTH 1107 0
DWIDTH 10 0
BBX 10 20 0 0
BITMAP
0000
0000
1E00
3F00
6180
4080
8C40
8C40
8C40
8C40
8C40
8C40
8C40
9E40
9E40
C0C0
6180
7380
1E00
0C00
ENDCHAR
STARTCHAR E3AA
ENCODING 58282
SWIDTH 1107 0
DWIDTH 10 0
BBX 10 20 0 0
BITMAP
0000
0000
0000
0000
1080
0080
3F00
2900
4440
C600
8100
0100
0180
0100
E600
0000
1800
0000
1000
0000
ENDCHAR
STARTCHAR E3AB
ENCODING 58283
SWIDTH 1107 0
DWIDTH 10 0
BBX 10 20 0 0
BITMAP
0000
0000
0000
0000
0000
0000
1FC0
0640
2000
61C0
80C0
8040
8040
8040
4B80
0800
0A00
0000
1000
0000
ENDCHAR
STARTCHAR E3AC
ENCODING 58284
SWIDTH 1107 0
DWIDTH 10 0
BBX 10 20 0 0
BITMAP
0000
0000
0000
0000
0000
0180
1A80
0680
2240
61C0
80C0
0040
0040
80C0
4B80
0800
0A00
0000
1000
0000
ENDCHAR
STARTCHAR E3AD
ENCODING 58285
SWIDTH 1107 0
DWIDTH 10 0
BBX 10 20 0 0
BITMAP
0000
0000
0000
0000
0000
0000
1C00
3200
4100
C1C0
0040
0000
0000
0000
EAC0
0800
2A00
0000
1000
0000
ENDCHAR
STARTCHAR E3AE
ENCODING 58286
SWIDTH 1107 0
DWIDTH 10 0
BBX 10 20 0 0
BITMAP
0000
0000
0000
0000
0000
0C00
0C00
C0C0
0C00
1200
2100
A140
FDC0
0000
7F00
0000
0000
0000
0000
0000
ENDCHAR
STARTCHAR E3AF
ENCODING 58287
SWIDTH 1107 0
DWIDTH 10 0
BBX 10 20 0 0
BITMAP
0000
0000
0000
0000
0000
0000
0080
FF00
0000
FE00
02C0
0500
0100
0100
01C0
00C0
0000
0000
0000
0000
ENDCHAR
STARTCHAR E3B0
ENCODING 58288
SWIDTH 1107 0
DWIDTH 10 0
BBX 10 20 0 0
BITMAP
0000
0000
0000
0000
0000
0000
0080
FFC0
0000
FF00
0140
0240
0040
0040
0040
00C0
0000
0000
0000
0000
ENDCHAR
STARTCHAR E3B1
ENCODING 58289
SWIDTH 1107 0
DWIDTH 10 0
BBX 10 20 0 0
BITMAP
0000
0000
0000
0000
0000
0000
0200
FF00
0000
FC00
01C0
0540
00C0
0180
03C0
03C0
0000
0000
0000
0000
ENDCHAR
STARTCHAR E3B2
ENCODING 58290
SWIDTH 1107 0
DWIDTH 10 0
BBX 10 20 0 0
BITMAP
0000
0000
0000
0000
0000
0000
0080
FF00
0000
FE00
03C0
0500
0040
0100
01C0
00C0
0000
0000
0000
0000
ENDCHAR
STARTCHAR E3B3
ENCODING 58291
SWIDTH 1107 0
DWIDTH 10 0
BBX 10 20 0 0
BITMAP
0000
0000
0000
0000
0000
0000
0180
FF00
0000
FE00
0240
0480
0040
01C0
0040
0040
0000
0000
0000
0000
ENDCHAR
STARTCHAR E3B4
ENCODING 58292
SWIDTH 1107 0
DWIDTH 10 0
BBX 10 20 0 0
BITMAP
0000
0000
0000
0000
0000
0000
0180
FF00
0000
FE00
02C0
0480
00C0
0000
01C0
00C0
0000
0000
0000
0000
ENDCHAR
STARTCHAR E3B5
ENCODING 58293
SWIDTH 1107 0
DWIDTH 10 0
BBX 10 20 0 0
BITMAP
0000
0000
0000
0000
0000
0000
0180
FF00
0000
FE00
02C0
0400
00C0
0100
00C0
00C0
0000
0000
0000
0000
ENDCHAR
STARTCHAR E3B6
ENCODING 58294
SWIDTH 1107 0
DWIDTH 10 0
BBX 10 20 0 0
BITMAP
0000
0000
0000
0000
0000
0000
0300
FF00
0000
FC00
01C0
04C0
0080
0000
0100
0100
0000
0000
0000
0000
ENDCHAR
STARTCHAR E3B7
ENCODING 58295
SWIDTH 1107 0
DWIDTH 10 0
BBX 10 20 0 0
BITMAP
0000
0000
0000
0000
0000
0000
0200
FF00
0000
FC00
01C0
0540
0080
0340
03C0
0180
0000
0000
0000
0000
ENDCHAR
STARTCHAR E3B8
ENCODING 58296
SWIDTH 1107 0
DWIDTH 10 0
BBX 10 20 0 0
BITMAP
0000
0000
0000
0000
0000
0000
0080
FF80
0000
FE00
03C0
0500
0180
0080
01C0
0080
0000
0000
0000
0000
ENDCHAR
STARTCHAR E3B9
ENCODING 58297
SWIDTH 1107 0
DWIDTH 10 0
BBX 10 20 0 0
BITMAP
0000
0000
0000
0000
0000
0000
0200
FE00
0000
F800
06C0
0BC0
03C0
0340
03C0
0280
0000
0000
0000
0000
ENDCHAR
STARTCHAR E3BA
ENCODING 58298
SWIDTH 1107 0
DWIDTH 10 0
BBX 10 20 0 0
BITMAP
0000
0000
0000
0000
0000
0000
0300
FF00
0000
FC00
0140
0540
01C0
03C0
03C0
03C0
0000
0000
0000
0000
ENDCHAR
STARTCHAR E3BB
ENCODING 58299
SWIDTH 1107 0
DWIDTH 10 0
BBX 10 20 0 0
BITMAP
0000
0000
0000
0000
0000
0000
0200
FE00
0000
F800
06C0
0BC0
0240
02C0
03C0
03C0
0000
0000
0000
0000
ENDCHAR
STARTCHAR E3BC
ENCODING 58300
SWIDTH 1107 0
DWIDTH 10 0
BBX 10 20 0 0
BITMAP
0000
0000
0000
0000
1080
1000
0E00
0900
2140
0100
F100
0200
F880
0080
F000
0000
0000
0000
0000
0000
ENDCHAR
STARTCHAR E3BD
ENCODING 58301
SWIDTH 1107 0
DWIDTH 10 0
BBX 10 20 0 0
BITMAP
0000
0000
0000
0000
0F80
2040
4780
9100
2100
0C00
1000
21C0
2640
2240
FFC0
0000
0000
0000
0000
0000
ENDCHAR
STARTCHAR E3BE
ENCODING 58302
SWIDTH 1107 0
DWIDTH 10 0
BBX 10 20 0 0
BITMAP
0040
0040
0040
0040
0040
0040
0040
0040
0040
0040
0040
0040
0040
0040
0040
0040
0040
0040
0040
0040
ENDCHAR
STARTCHAR E3BF
ENCODING 58303
SWIDTH 1107 0
DWIDTH 10 0
BBX 10 20 0 0
BITMAP
0000
0000
0000
0000
0000
0800
1000
3A00
3F00
3F00
7F00
7F80
7F80
3F80
7F80
FFC0
0000
0000
0000
0000
ENDCHAR
STARTCHAR E3C0
ENCODING 58304
SWIDTH 1107 0
DWIDTH 10 0
BBX 10 20 0 0
BITMAP
0000
0000
0000
0000
1C00
1E00
3E00
1E00
0C00
0400
0C00
1600
3E00
7B00
7980
F3C0
0000
0000
0000
0000
ENDCHAR
STARTCHAR E3C1
ENCODING 58305
SWIDTH 1107 0
DWIDTH 10 0
BBX 10 20 0 0
BITMAP
0040
0040
0040
0040
0040
0040
0040
0040
0040
0040
0040
0040
0040
0040
0040
0040
0040
0040
0040
0040
ENDCHAR
STARTCHAR E3C2
ENCODING 58306
SWIDTH 1107 0
DWIDTH 10 0
BBX 10 20 0 0
BITMAP
0040
0040
0040
0040
0040
0040
0040
0040
0040
0040
0040
0040
0040
0040
0040
0040
0040
0040
0040
0040
ENDCHAR
STARTCHAR E3C3
ENCODING 58307
SWIDTH 1107 0
DWIDTH 10 0
BBX 10 20 0 0
BITMAP
0000
0000
0000
0100
0380
0380
0300
0000
0300
F300
B700
BF80
FF80
FFC0
EB40
6B40
0000
0000
0000
0000
ENDCHAR
STARTCHAR E3C4
ENCODING 58308
SWIDTH 1107 0
DWIDTH 10 0
BBX 10 20 0 0
BITMAP
0000
0000
E000
FC00
FF00
FFC0
FF00
FC00
E000
8000
8000
8000
8000
8000
8000
8000
8000
8000
8000
8000
ENDCHAR
STARTCHAR E3C5
ENCODING 58309
SWIDTH 1107 0
DWIDTH 10 0
BBX 10 20 0 0
BITMAP
0000
0000
E000
FC00
FF00
FFC0
FF00
FC00
E000
8000
F000
FC00
FF00
FFC0
FF00
FC00
E000
8000
8000
8000
ENDCHAR
STARTCHAR E3C6
ENCODING 58310
SWIDTH 1107 0
DWIDTH 10 0
BBX 10 20 0 0
BITMAP
0000
0000
BFC0
BFC0
B0C0
B0C0
BFC0
BFC0
BFC0
8000
8000
8000
8000
8000
8000
8000
8000
8000
8000
8000
ENDCHAR
STARTCHAR E3C7
ENCODING 58311
SWIDTH 1107 0
DWIDTH 10 0
BBX 10 20 0 0
BITMAP
0000
0000
BFC0
BFC0
B0C0
B0C0
BFC0
BFC0
BFC0
BFC0
BFC0
BFC0
B0C0
B0C0
BFC0
BFC0
8000
8000
8000
8000
ENDCHAR
STARTCHAR E3C8
ENCODING 58312
SWIDTH 1107 0
DWIDTH 10 0
BBX 10 20 0 0
BITMAP
0000
0000
1E00
7D80
7E80
7E00
FF40
FF40
FF00
FF80
FF80
FF80
FF00
FF00
FF40
FF40
7E80
7F80
1E00
0C00
ENDCHAR
STARTCHAR E3C9
ENCODING 58313
SWIDTH 1107 0
DWIDTH 10 0
BBX 10 20 0 0
BITMAP
0000
0000
1E00
7D80
7E80
7E00
FE40
FE40
FF00
FF00
FF00
FF00
FF00
FE00
FE40
FE40
7E80
7D80
1E00
0C00
ENDCHAR
STARTCHAR E3CA
ENCODING 58314
SWIDTH 1107 0
DWIDTH 10 0
BBX 10 20 0 0
BITMAP
0000
0000
1E00
7D80
7C80
7E00
FE40
FE40
FE00
FE00
FE00
FE00
FE00
FE40
FE40
FE40
7E80
7D80
1E00
0C00
ENDCHAR
STARTCHAR E3CB
ENCODING 58315
SWIDTH 1107 0
DWIDTH 10 0
BBX 10 20 0 0
BITMAP
0000
0000
1E00
7D80
7C80
7C00
FC40
FE40
FE00
FE00
FE00
FE00
FE00
FE40
FE40
FC40
7C80
7D80
1E00
0C00
ENDCHAR
STARTCHAR E3CC
ENCODING 58316
SWIDTH 1107 0
DWIDTH 10 0
BBX 10 20 0 0
BITMAP
0000
0000
1E00
7D80
7C80
7C00
FC40
FC40
FC00
FC00
FC00
FC00
FC00
FC40
FC40
FC40
7C80
7D80
1A00
0C00
ENDCHAR
STARTCHAR E3CD
ENCODING 58317
SWIDTH 1107 0
DWIDTH 10 0
BBX 10 20 0 0
BITMAP
0000
0000
1E00
7980
7C80
7C00
FC40
FC40
FC00
FC00
FC00
FC00
FC00
FC00
FC40
FC40
7C80
7980
1A00
0C00
ENDCHAR
STARTCHAR E3CE
ENCODING 58318
SWIDTH 1107 0
DWIDTH 10 0
BBX 10 20 0 0
BITMAP
0000
0000
1E00
7980
7880
7800
F840
F840
F800
F800
F800
F800
F800
F840
F840
F840
7880
7980
1A00
0C00
ENDCHAR
STARTCHAR E3CF
ENCODING 58319
SWIDTH 1107 0
DWIDTH 10 0
BBX 10 20 0 0
BITMAP
0000
0000
1E00
7980
7080
7000
F040
F040
F000
F000
F000
F000
F000
F040
F040
F040
7080
7180
1A00
0C00
ENDCHAR
STARTCHAR E3D0
ENCODING 58320
SWIDTH 1107 0
DWIDTH 10 0
BBX 10 20 0 0
BITMAP
0000
0000
1E00
7180
7080
7000
F040
F040
F000
F000
F000
F000
F000
F040
F040
F040
7080
7180
1200
0C00
ENDCHAR
STARTCHAR E3D1
ENCODING 58321
SWIDTH 1107 0
DWIDTH 10 0
BBX 10 20 0 0
BITMAP
0000
0000
1E00
7180
7080
6000
E040
E040
E000
E000
E000
E000
E000
E040
E040
E040
7080
7180
1200
0C00
ENDCHAR
STARTCHAR E3D2
ENCODING 58322
SWIDTH 1107 0
DWIDTH 10 0
BBX 10 20 0 0
BITMAP
0000
0000
1E00
7180
6080
6000
E040
E040
C000
C000
C000
C000
C000
E040
E040
E040
6080
7180
1200
0C00
ENDCHAR
STARTCHAR E3D3
ENCODING 58323
SWIDTH 1107 0
DWIDTH 10 0
BBX 10 20 0 0
BITMAP
0000
0000
1E00
6180
6080
6000
C040
C040
8000
8000
8000
8000
8000
8040
C040
C040
6080
6180
1200
0C00
ENDCHAR
STARTCHAR E3D4
ENCODING 58324
SWIDTH 1107 0
DWIDTH 10 0
BBX 10 20 0 0
BITMAP
0000
0000
1E00
6180
4080
4000
8040
8040
8000
8000
8000
8000
8000
8040
8040
C040
4080
6180
1200
0C00
ENDCHAR
STARTCHAR E3D5
ENCODING 58325
SWIDTH 1107 0
DWIDTH 10 0
BBX 10 20 0 0
BITMAP
0000
0000
1E00
6180
4080
0000
8040
8040
0000
0000
0000
0000
0000
8040
8040
8040
4080
6180
1200
0C00
ENDCHAR
STARTCHAR E3D6
ENCODING 58326
SWIDTH 1107 0
DWIDTH 10 0
BBX 10 20 0 0
BITMAP
0000
0000
1E00
6180
4180
0180
80C0
80C0
0040
0040
0040
0040
0040
8040
80C0
80C0
4180
6180
1200
0C00
ENDCHAR
STARTCHAR E3D7
ENCODING 58327
SWIDTH 1107 0
DWIDTH 10 0
BBX 10 20 0 0
BITMAP
0000
0000
1E00
6380
4180
0180
81C0
81C0
01C0
00C0
00C0
00C0
00C0
81C0
81C0
81C0
4180
6380
1200
0C00
ENDCHAR
STARTCHAR E3D8
ENCODING 58328
SWIDTH 1107 0
DWIDTH 10 0
BBX 10 20 0 0
BITMAP
0000
0000
1E00
6380
4380
0180
81C0
81C0
01C0
01C0
01C0
01C0
01C0
81C0
81C0
81C0
4380
6380
1200
0C00
ENDCHAR
STARTCHAR E3D9
ENCODING 58329
SWIDTH 1107 0
DWIDTH 10 0
BBX 10 20 0 0
BITMAP
0000
0000
1E00
6380
4380
0380
83C0
83C0
01C0
01C0
01C0
01C0
01C0
83C0
83C0
83C0
4380
6380
1600
0C00
ENDCHAR
STARTCHAR E3DA
ENCODING 58330
SWIDTH 1107 0
DWIDTH 10 0
BBX 10 20 0 0
BITMAP
0000
0000
1E00
6380
4380
0380
83C0
83C0
03C0
03C0
03C0
03C0
03C0
83C0
83C0
83C0
4380
6380
1200
0C00
ENDCHAR
STARTCHAR E3DB
ENCODING 58331
SWIDTH 1107 0
DWIDTH 10 0
BBX 10 20 0 0
BITMAP
0000
0000
1E00
6780
4380
0380
83C0
83C0
03C0
03C0
03C0
03C0
03C0
83C0
83C0
83C0
4380
6380
1600
0C00
ENDCHAR
STARTCHAR E3DC
ENCODING 58332
SWIDTH 1107 0
DWIDTH 10 0
BBX 10 20 0 0
BITMAP
0000
0000
1E00
6780
4780
0780
87C0
87C0
07C0
07C0
07C0
07C0
07C0
87C0
87C0
87C0
4780
6780
1600
0C00
ENDCHAR
STARTCHAR E3DD
ENCODING 58333
SWIDTH 1107 0
DWIDTH 10 0
BBX 10 20 0 0
BITMAP
0000
0000
1E00
6780
4780
0780
87C0
8FC0
0FC0
0FC0
0FC0
0FC0
0FC0
8FC0
8FC0
87C0
4780
6780
1600
0C00
ENDCHAR
STARTCHAR E3DE
ENCODING 58334
SWIDTH 1107 0
DWIDTH 10 0
BBX 10 20 0 0
BITMAP
0000
0000
1E00
6780
4F80
0F80
8FC0
8FC0
0FC0
0FC0
0FC0
0FC0
0FC0
0FC0
8FC0
8FC0
4F80
6F80
1600
0C00
ENDCHAR
STARTCHAR E3DF
ENCODING 58335
SWIDTH 1107 0
DWIDTH 10 0
BBX 10 20 0 0
BITMAP
0000
0000
1E00
6F80
4F80
0F80
8FC0
8FC0
0FC0
0FC0
0FC0
0FC0
0FC0
8FC0
8FC0
8FC0
4F80
6F80
1600
0C00
ENDCHAR
STARTCHAR E3E0
ENCODING 58336
SWIDTH 1107 0
DWIDTH 10 0
BBX 10 20 0 0
BITMAP
0000
0000
1E00
6F80
4F80
0F80
8FC0
9FC0
1FC0
1FC0
1FC0
1FC0
1FC0
9FC0
9FC0
8FC0
4F80
6F80
1E00
0C00
ENDCHAR
STARTCHAR E3E1
ENCODING 58337
SWIDTH 1107 0
DWIDTH 10 0
BBX 10 20 0 0
BITMAP
0000
0000
1E00
6F80
5F80
1F80
9FC0
9FC0
3FC0
3FC0
3FC0
3FC0
3FC0
9FC0
9FC0
9FC0
5F80
6F80
1E00
0C00
ENDCHAR
STARTCHAR E3E2
ENCODING 58338
SWIDTH 1107 0
DWIDTH 10 0
BBX 10 20 0 0
BITMAP
0000
0000
1E00
6F80
5F80
1F80
BFC0
BFC0
3FC0
3FC0
7FC0
3FC0
3FC0
3FC0
BFC0
BFC0
5F80
7F80
1E00
0C00
ENDCHAR
STARTCHAR E3E3
ENCODING 58339
SWIDTH 1107 0
DWIDTH 10 0
BBX 10 20 0 0
BITMAP
0000
0000
1E00
7F80
7F80
7F80
FFC0
FFC0
FFC0
FFC0
FFC0
FFC0
FFC0
FFC0
FFC0
FFC0
7F80
7F80
1E00
0C00
ENDCHAR
STARTCHAR E5FA
ENCODING 58874
SWIDTH 1107 0
DWIDTH 10 0
BBX 10 20 0 0
BITMAP
0000
0000
0000
F000
F800
FC00
FFC0
FFC0
0000
7F80
7700
7700
7F00
1000
E7C0
FFC0
FFC0
FFC0
0000
0000
ENDCHAR
STARTCHAR E5FB
ENCODING 58875
SWIDTH 1107 0
DWIDTH 10 0
BBX 10 20 0 0
BITMAP
0000
0000
0000
F000
F800
FC00
FFC0
F3C0
F3C0
EDC0
E5C0
C2C0
E1C0
EDC0
F3C0
F3C0
FFC0
FFC0
0000
0000
ENDCHAR
STARTCHAR E5FC
ENCODING 58876
SWIDTH 1107 0
DWIDTH 10 0
BBX 10 20 0 0
BITMAP
0000
0000
0000
F000
F800
FC00
FFC0
EDC0
E3C0
E1C0
CCC0
EDC0
EDC0
CCC0
E1C0
F1C0
FFC0
FFC0
0000
0000
ENDCHAR
STARTCHAR E5FD
ENCODING 58877
SWIDTH 1107 0
DWIDTH 10 0
BBX 10 20 0 0
BITMAP
0000
0000
0000
F000
F800
FC00
FFC0
FFC0
E0C0
E0C0
C0C0
DEC0
DEC0
CCC0
DEC0
EDC0
FFC0
FFC0
0000
0000
ENDCHAR
STARTCHAR E5FE
ENCODING 58878
SWIDTH 1107 0
DWIDTH 10 0
BBX 10 20 0 0
BITMAP
0000
0000
0000
E000
E000
F000
FF80
FF80
8000
FFC0
FFC0
7FC0
7FC0
7F80
FF80
FF80
FF80
FF80
0000
0000
ENDCHAR
STARTCHAR E5FF
ENCODING 58879
SWIDTH 1107 0
DWIDTH 10 0
BBX 10 20 0 0
BITMAP
0000
0000
0000
F000
F800
FC00
FFC0
FFC0
FFC0
FFC0
FFC0
FFC0
FFC0
FFC0
FFC0
FFC0
FFC0
FFC0
0000
0000
ENDCHAR
STARTCHAR E600
ENCODING 58880
SWIDTH 1107 0
DWIDTH 10 0
BBX 10 20 0 0
BITMAP
0000
0000
0040
0000
0100
0000
0000
0000
0200
0800
0C00
0400
1400
1000
0000
0000
0000
0000
0000
0000
ENDCHAR
STARTCHAR E601
ENCODING 58881
SWIDTH 1107 0
DWIDTH 10 0
BBX 10 20 0 0
BITMAP
0000
0000
F000
F000
0000
0000
7800
7800
0000
0000
3BC0
3BC0
0000
0000
3F40
3F40
0000
0000
7800
7800
ENDCHAR
STARTCHAR E602
ENCODING 58882
SWIDTH 1107 0
DWIDTH 10 0
BBX 10 20 0 0
BITMAP
0000
0000
0000
0000
C000
E000
F000
FC00
FE00
FF00
FFC0
FFC0
FF80
FF00
FE00
FC00
F000
E000
C000
8000
ENDCHAR
STARTCHAR E603
ENCODING 58883
SWIDTH 1107 0
DWIDTH 10 0
BBX 10 20 0 0
BITMAP
0000
0FC0
1800
2000
E000
8040
80C0
0180
0E00
8000
C000
6C00
1800
3000
5000
9000
8000
E000
C000
0000
ENDCHAR
STARTCHAR E604
ENCODING 58884
SWIDTH 1107 0
DWIDTH 10 0
BBX 10 20 0 0
BITMAP
0000
0000
0800
0FC0
0FC0
2F40
3E00
1E00
1C00
3C00
B800
7800
7800
7800
7800
FC00
FC00
7E00
7C00
7C00
ENDCHAR
STARTCHAR E605
ENCODING 58885
SWIDTH 1107 0
DWIDTH 10 0
BBX 10 20 0 0
BITMAP
0000
0000
07C0
0FC0
1FC0
3FC0
7FC0
7FC0
7FC0
FFC0
FFC0
FFC0
FFC0
FFC0
FFC0
FFC0
FFC0
FFC0
FFC0
6000
ENDCHAR
STARTCHAR E606
ENCODING 58886
SWIDTH 1107 0
DWIDTH 10 0
BBX 10 20 0 0
BITMAP
0000
1E00
0E00
0E00
1E00
7E00
FEC0
FEC0
FEC0
E1C0
DFC0
DFC0
DFC0
5FC0
1800
1E00
1C00
1E00
0C00
0000
ENDCHAR
STARTCHAR E607
ENCODING 58887
SWIDTH 1107 0
DWIDTH 10 0
BBX 10 20 0 0
BITMAP
0000
0000
C0C0
C0C0
C1C0
C180
C000
C000
DF80
FFC0
FFC0
C0C0
00C0
00C0
00C0
00C0
80C0
C0C0
00C0
00C0
ENDCHAR
STARTCHAR E608
ENCODING 58888
SWIDTH 1107 0
DWIDTH 10 0
BBX 10 20 0 0
BITMAP
0000
0000
0000
0000
7000
F780
FF80
FFC0
F7C0
FFC0
EFC0
7F80
9F80
5F80
7180
5180
5980
0000
0000
0000
ENDCHAR
STARTCHAR E609
ENCODING 58889
SWIDTH 1107 0
DWIDTH 10 0
BBX 10 20 0 0
BITMAP
0000
0000
0000
0100
3300
3F00
3F00
3F00
3F00
3F00
3F00
3F00
FFC0
FFC0
7F80
3F00
3F00
1E00
0C00
0C00
ENDCHAR
STARTCHAR E60A
ENCODING 58890
SWIDTH 1107 0
DWIDTH 10 0
BBX 10 20 0 0
BITMAP
0000
0000
1E00
2100
2100
3900
7F00
D700
FE00
FF00
7F00
7F00
5B00
7700
7700
6380
3380
A0C0
B1C0
6000
ENDCHAR
STARTCHAR E60B
ENCODING 58891
SWIDTH 1107 0
DWIDTH 10 0
BBX 10 20 0 0
BITMAP
0000
0000
6180
6180
4080
4080
6180
6180
6180
C0C0
8040
C0C0
6180
6180
6180
4080
4080
6180
6180
2000
ENDCHAR
STARTCHAR E60C
ENCODING 58892
SWIDTH 1107 0
DWIDTH 10 0
BBX 10 20 0 0
BITMAP
0000
0000
0000
0000
33C0
33C0
3640
3600
3600
3380
33C0
31C0
30C0
3040
7440
E7C0
E780
0000
0000
0000
ENDCHAR
STARTCHAR E60D
ENCODING 58893
SWIDTH 1107 0
DWIDTH 10 0
BBX 10 20 0 0
BITMAP
0000
0000
0000
FE00
FE00
8000
8000
C000
C180
C180
C180
C180
C800
5C00
5D80
7D80
7FC0
7FC0
0000
0000
ENDCHAR
STARTCHAR E60E
ENCODING 58894
SWIDTH 1107 0
DWIDTH 10 0
BBX 10 20 0 0
BITMAP
0000
0000
0000
1200
1200
3300
6180
6180
C0C0
8040
8040
8040
C0C0
6180
6180
3300
1200
1200
0000
0000
ENDCHAR
STARTCHAR E60F
ENCODING 58895
SWIDTH 1107 0
DWIDTH 10 0
BBX 10 20 0 0
BITMAP
0000
0000
0000
0000
0000
0000
0000
0000
1200
BF40
7F80
F3C0
C0C0
0000
0000
0000
0000
0000
0000
0000
ENDCHAR
STARTCHAR E610
ENCODING 58896
SWIDTH 1107 0
DWIDTH 10 0
BBX 10 20 0 0
BITMAP
0040
0040
0040
0040
0040
0040
0040
0040
0040
0040
0040
0040
0040
0040
0040
0040
0040
0040
0040
0040
ENDCHAR
STARTCHAR E611
ENCODING 58897
SWIDTH 1107 0
DWIDTH 10 0
BBX 10 20 0 0
BITMAP
0000
0000
DEC0
FFC0
FFC0
FFC0
FFC0
FFC0
FFC0
FFC0
FFC0
7F80
7F80
7F80
FFC0
FFC0
FFC0
7F80
3F00
0C00
ENDCHAR
STARTCHAR E612
ENCODING 58898
SWIDTH 1107 0
DWIDTH 10 0
BBX 10 20 0 0
BITMAP
0000
0000
FFC0
FFC0
0000
0000
0000
FF00
FF00
0000
0000
0000
FFC0
FFC0
0000
0000
0000
FC00
FC00
FC00
ENDCHAR
STARTCHAR E613
ENCODING 58899
SWIDTH 1107 0
DWIDTH 10 0
BBX 10 20 0 0
BITMAP
0000
0000
0000
F800
F800
FFC0
FFC0
FFC0
FFC0
FFC0
FFC0
FFC0
FFC0
FFC0
FFC0
FFC0
FFC0
FFC0
0000
0000
ENDCHAR
STARTCHAR E614
ENCODING 58900
SWIDTH 1107 0
DWIDTH 10 0
BBX 10 20 0 0
BITMAP
0000
0000
1980
1980
1980
1180
FFC0
FFC0
FFC0
3300
3300
3300
FFC0
FFC0
FFC0
6200
6200
6600
6600
0000
ENDCHAR
STARTCHAR E615
ENCODING 58901
SWIDTH 1107 0
DWIDTH 10 0
BBX 10 20 0 0
BITMAP
0000
0000
0000
1300
3F00
3E00
3F40
FFC0
F3C0
E1C0
E180
6180
6180
E1C0
F3C0
FFC0
BF00
1F00
3F00
3300
ENDCHAR
STARTCHAR E616
ENCODING 58902
SWIDTH 1107 0
DWIDTH 10 0
BBX 10 20 0 0
BITMAP
0000
0000
0000
0000
0000
0000
0000
FFC0
0000
4900
4900
4100
EFC0
1800
0000
0000
0000
0000
0000
0000
ENDCHAR
STARTCHAR E617
ENCODING 58903
SWIDTH 1107 0
DWIDTH 10 0
BBX 10 20 0 0
BITMAP
0000
0000
0000
0C00
1E00
3F00
7F80
FFC0
FFC0
FFC0
F3C0
F3C0
E1C0
E1C0
E1C0
E1C0
E1C0
E1C0
E1C0
8040
ENDCHAR
STARTCHAR E618
ENCODING 58904
SWIDTH 1107 0
DWIDTH 10 0
BBX 10 20 0 0
BITMAP
0000
0000
0000
1200
1200
3300
6180
6180
C0C0
8040
8040
8040
C0C0
6180
6180
3300
1200
1200
0000
0000
ENDCHAR
STARTCHAR E619
ENCODING 58905
SWIDTH 1107 0
DWIDTH 10 0
BBX 10 20 0 0
BITMAP
0000
0000
E000
F000
FC00
7C00
1E00
8E00
E700
F380
F380
7980
1DC0
1DC0
0DC0
ECC0
EEC0
EEC0
EEC0
0600
ENDCHAR
STARTCHAR E61A
ENCODING 58906
SWIDTH 1107 0
DWIDTH 10 0
BBX 10 20 0 0
BITMAP
0000
0000
0000
3800
7C80
EC80
E480
FF00
FC00
FF80
F840
F0C0
F1C0
8380
8300
4400
7C00
1C00
0800
0000
ENDCHAR
STARTCHAR E61B
ENCODING 58907
SWIDTH 1107 0
DWIDTH 10 0
BBX 10 20 0 0
BITMAP
0000
0000
0000
0000
0D00
9200
40C0
9F00
E1C0
FFC0
FFC0
7FC0
7F80
3F80
BF80
DF00
1F00
0C00
0000
0000
ENDCHAR
STARTCHAR E61C
ENCODING 58908
SWIDTH 1107 0
DWIDTH 10 0
BBX 10 20 0 0
BITMAP
0000
0000
0040
0080
0180
0100
0100
0300
0200
0200
0280
0200
1300
0B00
0700
4600
C600
4600
4F00
C000
ENDCHAR
STARTCHAR E61D
ENCODING 58909
SWIDTH 1107 0
DWIDTH 10 0
BBX 10 20 0 0
BITMAP
0000
0000
0C00
3F00
3F00
F3C0
E1C0
C0C0
CCC0
CE80
DC00
DE80
CDC0
C0C0
C0C0
F3C0
7F80
3F00
0C00
0C00
ENDCHAR
STARTCHAR E61E
ENCODING 58910
SWIDTH 1107 0
DWIDTH 10 0
BBX 10 20 0 0
BITMAP
0000
0000
0C00
3F00
3F00
F3C0
E1C0
C0C0
CCC0
CFC0
DFC0
DFC0
CDC0
C0C0
C0C0
F3C0
7F80
3F00
0C00
0C00
ENDCHAR
STARTCHAR E61F
ENCODING 58911
SWIDTH 1107 0
DWIDTH 10 0
BBX 10 20 0 0
BITMAP
0000
0000
0000
0000
B000
D000
F800
7C00
6FC0
7DC0
3E00
3FC0
6EC0
7F00
7B00
D180
B180
0000
0000
0000
ENDCHAR
STARTCHAR E620
ENCODING 58912
SWIDTH 1107 0
DWIDTH 10 0
BBX 10 20 0 0
BITMAP
0000
0000
00C0
01C0
1DC0
7EC0
7D00
F900
F980
F980
FD80
FF80
FF80
FF80
FF80
FF80
7F00
7E00
3E00
0800
ENDCHAR
STARTCHAR E621
ENCODING 58913
SWIDTH 1107 0
DWIDTH 10 0
BBX 10 20 0 0
BITMAP
0000
0000
0000
0000
0000
0000
0000
0000
0000
0000
0000
0000
0000
0000
0000
0000
0000
0000
0000
0000
ENDCHAR
STARTCHAR E622
ENCODING 58914
SWIDTH 1107 0
DWIDTH 10 0
BBX 10 20 0 0
BITMAP
0000
0000
E3C0
E7C0
E780
EF00
FE00
FE00
FE00
FC00
FC00
FE00
FE00
7E00
6F00
6F80
6780
23C0
23C0
21C0
ENDCHAR
STARTCHAR E623
ENCODING 58915
SWIDTH 1107 0
DWIDTH 10 0
BBX 10 20 0 0
BITMAP
0000
0000
0C00
0C00
0C00
0C00
1E00
FFC0
FFC0
FFC0
7F80
3F00
3F00
3F00
3F00
3F00
3300
0000
0000
0000
ENDCHAR
STARTCHAR E624
ENCODING 58916
SWIDTH 1107 0
DWIDTH 10 0
BBX 10 20 0 0
BITMAP
0000
0000
0C00
1E00
1E00
1E00
1E00
1E00
1E00
0C00
0000
6180
F3C0
F3C0
F3C0
F3C0
F3C0
F3C0
6180
0000
ENDCHAR
STARTCHAR E625
ENCODING 58917
SWIDTH 1107 0
DWIDTH 10 0
BBX 10 20 0 0
BITMAP
0000
0000
0000
3300
0C00
4C80
0000
3F00
3300
AD40
0C00
2D00
B340
7380
0000
0C80
0C80
2100
0000
0000
ENDCHAR
STARTCHAR E626
ENCODING 58918
SWIDTH 1107 0
DWIDTH 10 0
BBX 10 20 0 0
BITMAP
0000
0000
40C0
0040
4280
4800
0000
0000
0000
0000
0000
0000
0000
0000
0000
0000
0000
0040
0000
8040
ENDCHAR
STARTCHAR E627
ENCODING 58919
SWIDTH 1107 0
DWIDTH 10 0
BBX 10 20 0 0
BITMAP
0000
0000
7CC0
FF00
BF40
A0C0
EFC0
FFC0
FFC0
FFC0
FFC0
FFC0
FFC0
FFC0
FFC0
FFC0
FFC0
FFC0
FF40
8000
ENDCHAR
STARTCHAR E628
ENCODING 58920
SWIDTH 1107 0
DWIDTH 10 0
BBX 10 20 0 0
BITMAP
0000
0000
0000
0000
0000
FB80
FBC0
6240
6200
6300
6380
60C0
6040
6240
6240
63C0
0000
0000
0000
0000
ENDCHAR
STARTCHAR E629
ENCODING 58921
SWIDTH 1107 0
DWIDTH 10 0
BBX 10 20 0 0
BITMAP
0000
0000
4B00
5C80
7E00
7B00
7880
7C80
7B00
0D00
FFC0
F3C0
BD40
BB00
ABC0
A9C0
BD40
F640
FFC0
0C00
ENDCHAR
STARTCHAR E62A
ENCODING 58922
SWIDTH 1107 0
DWIDTH 10 0
BBX 10 20 0 0
BITMAP
0000
0000
FFC0
FFC0
FFC0
FFC0
FFC0
FFC0
FFC0
FFC0
0000
FFC0
FFC0
FFC0
FFC0
FFC0
FFC0
FFC0
FFC0
FFC0
ENDCHAR
STARTCHAR E62B
ENCODING 58923
SWIDTH 1107 0
DWIDTH 10 0
BBX 10 20 0 0
BITMAP
0000
0000
F3C0
F3C0
E1C0
E3C0
E380
E780
EF00
EE00
FE00
FC00
FC00
F800
F000
F000
E000
E000
C000
0000
ENDCHAR
STARTCHAR E62C
ENCODING 58924
SWIDTH 1107 0
DWIDTH 10 0
BBX 10 20 0 0
BITMAP
0000
0000
FFC0
7DC0
FFC0
BEC0
DE40
FFC0
ED80
FFC0
F3C0
F3C0
FF80
EDC0
FF40
DEC0
BF40
FFC0
7F80
FFC0
ENDCHAR
STARTCHAR E62D
ENCODING 58925
SWIDTH 1107 0
DWIDTH 10 0
BBX 10 20 0 0
BITMAP
0000
0000
0800
1C00
3C00
3C00
7E00
7E00
FF00
FF80
FFC0
FFC0
FFC0
FFC0
FFC0
FFC0
FFC0
7F80
2700
0C00
ENDCHAR
STARTCHAR E62E
ENCODING 58926
SWIDTH 1107 0
DWIDTH 10 0
BBX 10 20 0 0
BITMAP
0000
0000
0C00
0200
6080
0D00
1000
2000
0000
0C40
8C00
0000
2000
9040
8940
0380
1200
0000
0C00
0000
ENDCHAR
STARTCHAR E62F
ENCODING 58927
SWIDTH 1107 0
DWIDTH 10 0
BBX 10 20 0 0
BITMAP
0000
0000
1C00
1E00
3F80
7F80
7780
C7C0
07C0
8FC0
8FC0
CFC0
EFC0
EFC0
7FC0
7F80
7F80
7F00
0E00
0200
ENDCHAR
STARTCHAR E630
ENCODING 58928
SWIDTH 1107 0
DWIDTH 10 0
BBX 10 20 0 0
BITMAP
0000
0000
0000
0000
0000
0080
0080
1E40
0040
4040
9E40
8080
8080
9E00
4E00
4000
0000
0000
0000
0000
ENDCHAR
STARTCHAR E631
ENCODING 58929
SWIDTH 1107 0
DWIDTH 10 0
BBX 10 20 0 0
BITMAP
0000
0000
F800
9800
9800
F800
F800
0C00
07C0
07C0
07C0
07C0
07C0
0E00
FC00
F800
9800
9800
F800
F800
ENDCHAR
STARTCHAR E632
ENCODING 58930
SWIDTH 1107 0
DWIDTH 10 0
BBX 10 20 0 0
BITMAP
0000
0000
1E00
7F80
7980
7D80
E1C0
EFC0
EFC0
F3C0
E3C0
CFC0
9FC0
9FC0
E0C0
FCC0
7380
7F80
1E00
0C00
ENDCHAR
STARTCHAR E633
ENCODING 58931
SWIDTH 1107 0
DWIDTH 10 0
BBX 10 20 0 0
BITMAP
0000
0000
0000
0100
0000
0200
0600
0C00
1F00
7FC0
FFC0
FFC0
FC00
F800
FC00
FC00
7E00
7F00
3F00
0000
ENDCHAR
STARTCHAR E634
ENCODING 58932
SWIDTH 1107 0
DWIDTH 10 0
BBX 10 20 0 0
BITMAP
0000
0000
FFC0
FF80
FF80
FF00
FE00
FE00
FC00
FC00
F800
FC00
FC00
FE00
FE00
FF00
FF80
FF80
FFC0
FFC0
ENDCHAR
STARTCHAR E635
ENCODING 58933
SWIDTH 1107 0
DWIDTH 10 0
BBX 10 20 0 0
BITMAP
0000
0000
0300
0700
0700
0400
3BC0
7FC0
FFC0
FFC0
FF80
FF80
FFC0
FFC0
FFC0
FFC0
7FC0
7FC0
3F80
1000
ENDCHAR
STARTCHAR E636
ENCODING 58934
SWIDTH 1107 0
DWIDTH 10 0
BBX 10 20 0 0
BITMAP
0000
0000
0000
2100
3300
3300
3300
3300
3300
3300
3300
3300
F3C0
F3C0
7380
7380
3F00
1E00
1E00
0C00
ENDCHAR
STARTCHAR E637
ENCODING 58935
SWIDTH 1107 0
DWIDTH 10 0
BBX 10 20 0 0
BITMAP
0000
0000
0000
0000
0000
0000
0000
4D00
5140
5140
ED80
E480
2080
1C00
0000
0000
0000
0000
0000
0000
ENDCHAR
STARTCHAR E638
ENCODING 58936
SWIDTH 1107 0
DWIDTH 10 0
BBX 10 20 0 0
BITMAP
0000
0000
0000
0000
0C80
0D40
1DC0
FEC0
FEC0
FC80
FC80
FC80
FEC0
FEC0
1DC0
0D40
0C00
0400
0000
0000
ENDCHAR
STARTCHAR E639
ENCODING 58937
SWIDTH 1107 0
DWIDTH 10 0
BBX 10 20 0 0
BITMAP
0000
0000
0000
0000
0FC0
1EC0
2C40
5840
18C0
1180
1780
1F80
39C0
2180
6100
6200
CE00
DC00
F000
C000
ENDCHAR
STARTCHAR E63A
ENCODING 58938
SWIDTH 1107 0
DWIDTH 10 0
BBX 10 20 0 0
BITMAP
0000
0000
0000
2100
6180
7380
F3C0
FFC0
FFC0
FFC0
FFC0
FFC0
FFC0
7F80
7F80
3F00
1E00
1E00
0C00
0C00
ENDCHAR
STARTCHAR E63B
ENCODING 58939
SWIDTH 1107 0
DWIDTH 10 0
BBX 10 20 0 0
BITMAP
0000
0000
0E00
0800
1000
1800
1E00
1C00
1000
3000
7000
6000
6000
FFC0
BE40
BE40
BE40
FE40
7FC0
0180
ENDCHAR
STARTCHAR E63C
ENCODING 58940
SWIDTH 1107 0
DWIDTH 10 0
BBX 10 20 0 0
BITMAP
0000
0000
0000
0000
0000
0000
4E00
DF00
DB00
5180
5000
5000
5000
5FC0
4FC0
43C0
0000
0000
0000
0000
ENDCHAR
STARTCHAR E63D
ENCODING 58941
SWIDTH 1107 0
DWIDTH 10 0
BBX 10 20 0 0
BITMAP
0000
0000
0000
0000
7F80
FFC0
FFC0
FFC0
FFC0
FBC0
F8C0
3800
0400
0780
E7C0
F9C0
7800
0000
0000
0000
ENDCHAR
STARTCHAR E63E
ENCODING 58942
SWIDTH 1107 0
DWIDTH 10 0
BBX 10 20 0 0
BITMAP
0000
0000
0C00
0C00
0500
1D80
1DC0
1DC0
4D80
EC00
0C00
0DC0
7DC0
F7C0
F6C0
F6C0
F6C0
F600
8200
0000
ENDCHAR
STARTCHAR E63F
ENCODING 58943
SWIDTH 1107 0
DWIDTH 10 0
BBX 10 20 0 0
BITMAP
0000
0000
00C0
00C0
01C0
01C0
01C0
0380
0380
0300
0700
CE00
EE00
EE00
7C00
7C00
3C00
1800
1000
0000
ENDCHAR
STARTCHAR E640
ENCODING 58944
SWIDTH 1107 0
DWIDTH 10 0
BBX 10 20 0 0
BITMAP
0000
0000
FFC0
FFC0
8040
8040
8040
8040
8040
8040
8040
8040
8040
8040
8040
8040
8040
FFC0
FFC0
7F80
ENDCHAR
STARTCHAR E641
ENCODING 58945
SWIDTH 1107 0
DWIDTH 10 0
BBX 10 20 0 0
BITMAP
0000
0000
1E00
7380
6180
0800
8840
8840
8940
8A00
8800
8C00
8040
8040
8040
8000
4080
6180
1E00
0C00
ENDCHAR
STARTCHAR E642
ENCODING 58946
SWIDTH 1107 0
DWIDTH 10 0
BBX 10 20 0 0
BITMAP
0000
0000
1E00
7F00
7F80
0180
61C0
D0C0
D0C0
F040
B040
B840
D8C0
D8C0
ED80
E000
7F80
7F80
1E00
0C00
ENDCHAR
STARTCHAR E643
ENCODING 58947
SWIDTH 1107 0
DWIDTH 10 0
BBX 10 20 0 0
BITMAP
0000
0000
0000
0000
0000
0000
0200
0300
1780
3780
79C0
7CC0
EC40
CE00
8400
0000
0000
0000
0000
0000
ENDCHAR
STARTCHAR E644
ENCODING 58948
SWIDTH 1107 0
DWIDTH 10 0
BBX 10 20 0 0
BITMAP
0000
0000
0F00
0FC0
18C0
1040
3040
3040
3040
1040
10C0
1CC0
3F80
3300
3000
6000
C000
C000
C000
8000
ENDCHAR
STARTCHAR E645
ENCODING 58949
SWIDTH 1107 0
DWIDTH 10 0
BBX 10 20 0 0
BITMAP
0000
0000
0000
0000
0040
00C0
01C0
0180
0180
3180
F380
E380
8200
8200
8600
FC00
7C00
0000
0000
0000
ENDCHAR
STARTCHAR E646
ENCODING 58950
SWIDTH 1107 0
DWIDTH 10 0
BBX 10 20 0 0
BITMAP
0000
0000
0000
3C00
7E00
FC00
E400
E000
C480
C480
CFC0
C480
C480
E000
E000
FE00
7E00
7C00
1800
0000
ENDCHAR
STARTCHAR E647
ENCODING 58951
SWIDTH 1107 0
DWIDTH 10 0
BBX 10 20 0 0
BITMAP
0000
0000
0000
0C00
1E00
3F00
FFC0
FFC0
FFC0
EDC0
CCC0
DEC0
DEC0
CCC0
FFC0
FFC0
FFC0
3F00
3F00
0C00
ENDCHAR
STARTCHAR E648
ENCODING 58952
SWIDTH 1107 0
DWIDTH 10 0
BBX 10 20 0 0
BITMAP
0000
0000
0000
3C00
7E00
FC00
E4C0
E1C0
C1C0
C100
C100
C3C0
C100
E080
E000
FE00
7E00
7C00
1800
0000
ENDCHAR
STARTCHAR E649
ENCODING 58953
SWIDTH 1107 0
DWIDTH 10 0
BBX 10 20 0 0
BITMAP
0000
0000
1FC0
3FC0
7FC0
F840
F000
E000
E000
E000
E000
E000
E000
E000
E000
F000
7FC0
3FC0
1FC0
0600
ENDCHAR
STARTCHAR E64A
ENCODING 58954
SWIDTH 1107 0
DWIDTH 10 0
BBX 10 20 0 0
BITMAP
0000
0000
FFC0
FFC0
FFC0
8C40
8C40
FFC0
8C40
8C40
FFC0
8C40
8C40
FFC0
8C40
8C40
FFC0
FFC0
FFC0
FFC0
ENDCHAR
STARTCHAR E64B
ENCODING 58955
SWIDTH 1107 0
DWIDTH 10 0
BBX 10 20 0 0
BITMAP
0000
0000
0800
3C00
7E00
7C00
E400
E000
E000
C340
C340
C340
EF80
E000
E400
7E00
7E00
3C00
1800
0000
ENDCHAR
STARTCHAR E64C
ENCODING 58956
SWIDTH 1107 0
DWIDTH 10 0
BBX 10 20 0 0
BITMAP
0000
0000
0000
0000
4100
3F80
1F80
1FC0
8FC0
8FC0
87C0
83C0
83C0
81C0
01C0
40C0
2080
0080
1080
0F80
ENDCHAR
STARTCHAR E64D
ENCODING 58957
SWIDTH 1107 0
DWIDTH 10 0
BBX 10 20 0 0
BITMAP
0000
0000
7FC0
FFC0
FFC0
FFC0
FFC0
FFC0
1E00
8040
FFC0
FFC0
FFC0
7F80
0000
FFC0
FFC0
FFC0
FFC0
1E00
ENDCHAR
STARTCHAR E64E
ENCODING 58958
SWIDTH 1107 0
DWIDTH 10 0
BBX 10 20 0 0
BITMAP
0000
0000
FFC0
FFC0
0000
0000
0000
FC00
FC00
0000
0000
0000
FFC0
FFC0
0000
0000
0000
FF00
FF00
FF00
ENDCHAR
STARTCHAR E64F
ENCODING 58959
SWIDTH 1107 0
DWIDTH 10 0
BBX 10 20 0 0
BITMAP
0000
0000
0000
0E00
1E00
7F80
F3C0
F3C0
F3C0
7B80
7F80
0000
6180
7F80
3F00
1E00
0C00
0000
0000
0000
ENDCHAR
STARTCHAR E650
ENCODING 58960
SWIDTH 1107 0
DWIDTH 10 0
BBX 10 20 0 0
BITMAP
0000
0000
0000
0000
0000
0800
0000
3880
0080
7CC0
FFC0
FF80
FF00
FF00
9E00
1C00
0000
0000
0000
0000
ENDCHAR
STARTCHAR E651
ENCODING 58961
SWIDTH 1107 0
DWIDTH 10 0
BBX 10 20 0 0
BITMAP
0000
0000
FE00
FF00
FF80
C3C0
C1C0
C1C0
C0C0
C0C0
C0C0
C0C0
C0C0
C1C0
C1C0
C3C0
FF80
FF00
FF00
F800
ENDCHAR
STARTCHAR E652
ENCODING 58962
SWIDTH 1107 0
DWIDTH 10 0
BBX 10 20 0 0
BITMAP
0000
3800
3800
3800
3800
3CC0
7FC0
7FC0
FFC0
FFC0
FF80
FF00
FF00
FE00
FC00
FC00
F000
F000
C000
0000
ENDCHAR
STARTCHAR E653
ENCODING 58963
SWIDTH 1107 0
DWIDTH 10 0
BBX 10 20 0 0
BITMAP
0000
0000
0800
1C00
3C00
3C00
6000
4E00
CF00
C780
C3C0
F1C0
F9C0
F9C0
81C0
C7C0
FFC0
63C0
3F00
0C00
ENDCHAR
STARTCHAR E654
ENCODING 58964
SWIDTH 1107 0
DWIDTH 10 0
BBX 10 20 0 0
BITMAP
0000
0000
0000
0C00
0C00
0C00
1E00
1200
1200
1200
3300
7380
7F80
7380
F3C0
FFC0
FFC0
0000
0000
0000
ENDCHAR
STARTCHAR E655
ENCODING 58965
SWIDTH 1107 0
DWIDTH 10 0
BBX 10 20 0 0
BITMAP
0000
0000
0000
3F00
7F80
7380
6180
4C80
DEC0
DEC0
DEC0
DEC0
DEC0
4C80
6580
7380
7380
3F00
0000
0000
ENDCHAR
STARTCHAR E656
ENCODING 58966
SWIDTH 1107 0
DWIDTH 10 0
BBX 10 20 0 0
BITMAP
0000
0000
0000
0400
0C00
1E00
1E00
3F00
3F80
7F80
FFC0
FFC0
3F00
1C00
4080
7380
3F00
1E00
0E00
0C00
ENDCHAR
STARTCHAR E657
ENCODING 58967
SWIDTH 1107 0
DWIDTH 10 0
BBX 10 20 0 0
BITMAP
0000
0000
4000
4000
E800
EC40
FCC0
FFC0
FFC0
FFC0
FFC0
FFC0
FFC0
FFC0
FFC0
FFC0
FFC0
7F80
1E00
0C00
ENDCHAR
STARTCHAR E658
ENCODING 58968
SWIDTH 1107 0
DWIDTH 10 0
BBX 10 20 0 0
BITMAP
0000
0000
1200
0000
9080
E0C0
F0C0
F840
F040
D0C0
E0C0
E4C0
FCC0
E1C0
F1C0
7FC0
7F80
3F00
1E00
0000
ENDCHAR
STARTCHAR E659
ENCODING 58969
SWIDTH 1107 0
DWIDTH 10 0
BBX 10 20 0 0
BITMAP
0000
0000
0000
0000
0000
1000
3000
3100
5900
5980
1B80
1880
1F80
FC80
8C40
0EC0
0600
0000
0000
0000
ENDCHAR
STARTCHAR E65A
ENCODING 58970
SWIDTH 1107 0
DWIDTH 10 0
BBX 10 20 0 0
BITMAP
0000
0000
0C00
0C00
1E00
1E00
3700
7B80
6B80
F9C0
D9C0
E9C0
6980
7380
3300
1E00
1E00
0C00
0C00
0000
ENDCHAR
STARTCHAR E65B
ENCODING 58971
SWIDTH 1107 0
DWIDTH 10 0
BBX 10 20 0 0
BITMAP
0000
0000
1E00
3F00
7F80
7F80
C0C0
C0C0
C0C0
8040
8040
8040
C0C0
C0C0
A1C0
B3C0
4380
7380
1300
0000
ENDCHAR
STARTCHAR E65C
ENCODING 58972
SWIDTH 1107 0
DWIDTH 10 0
BBX 10 20 0 0
BITMAP
0000
0000
0000
4080
4080
4080
4080
C0C0
E1C0
E1C0
FFC0
FFC0
FFC0
FFC0
FFC0
7F80
3F00
3F00
0C00
0C00
ENDCHAR
STARTCHAR E65D
ENCODING 58973
SWIDTH 1107 0
DWIDTH 10 0
BBX 10 20 0 0
BITMAP
0000
0000
0C00
0C00
0E00
1600
3300
7380
7980
F8C0
F8C0
FAC0
FB80
7380
7300
3200
1E00
1C00
0C00
0000
ENDCHAR
STARTCHAR E65E
ENCODING 58974
SWIDTH 1107 0
DWIDTH 10 0
BBX 10 20 0 0
BITMAP
0000
0000
0000
0000
0000
0000
0000
7180
FFC0
8440
BC40
9C40
FFC0
F780
0000
0000
0000
0000
0000
0000
ENDCHAR
STARTCHAR E65F
ENCODING 58975
SWIDTH 1107 0
DWIDTH 10 0
BBX 10 20 0 0
BITMAP
0000
0000
1200
1200
1E00
BF40
FFC0
FFC0
FFC0
DEC0
AD40
AD40
DEC0
FFC0
B340
FFC0
7F80
7F80
1E00
0000
ENDCHAR
STARTCHAR E660
ENCODING 58976
SWIDTH 1107 0
DWIDTH 10 0
BBX 10 20 0 0
BITMAP
0000
0000
0000
0000
01C0
0140
1C40
7E40
7FC0
3FC0
CFC0
FF80
FF00
FF00
FE00
9A00
9200
0000
0000
0000
ENDCHAR
STARTCHAR E661
ENCODING 58977
SWIDTH 1107 0
DWIDTH 10 0
BBX 10 20 0 0
BITMAP
0000
0000
0000
0000
0000
7F80
3F00
3F00
1E00
9E40
CCC0
4C80
4C80
4C80
6C80
0C00
0000
0000
0000
0000
ENDCHAR
STARTCHAR E662
ENCODING 58978
SWIDTH 1107 0
DWIDTH 10 0
BBX 10 20 0 0
BITMAP
0000
0000
0C00
0C00
1E00
A140
C0C0
D2C0
A040
A140
8040
8040
C0C0
C0C0
FFC0
C0C0
1E00
0C00
0C00
0C00
ENDCHAR
STARTCHAR E663
ENCODING 58979
SWIDTH 1107 0
DWIDTH 10 0
BBX 10 20 0 0
BITMAP
0000
0000
1000
3000
7000
F000
F000
EFC0
DF80
BF40
7EC0
FDC0
03C0
F7C0
E7C0
C780
8700
0600
0400
0000
ENDCHAR
STARTCHAR E664
ENCODING 58980
SWIDTH 1107 0
DWIDTH 10 0
BBX 10 20 0 0
BITMAP
0000
0000
C000
C080
E1C0
E1C0
6380
6F00
3F00
3D00
3840
3800
3800
33C0
7180
7000
7000
7000
E000
2000
ENDCHAR
STARTCHAR E665
ENCODING 58981
SWIDTH 1107 0
DWIDTH 10 0
BBX 10 20 0 0
BITMAP
0000
0000
9FC0
DFC0
DFC0
9FC0
1FC0
0000
1FC0
9FC0
DFC0
DFC0
9FC0
0000
0000
9FC0
DFC0
DFC0
9FC0
0000
ENDCHAR
STARTCHAR E666
ENCODING 58982
SWIDTH 1107 0
DWIDTH 10 0
BBX 10 20 0 0
BITMAP
0000
0000
F3C0
3F00
8C40
8C40
8C40
9E40
9E40
3F00
7F80
7F80
BF40
9E40
9E40
8C40
8C40
1E00
F3C0
E1C0
ENDCHAR
STARTCHAR E667
ENCODING 58983
SWIDTH 1107 0
DWIDTH 10 0
BBX 10 20 0 0
BITMAP
0000
0000
0000
3F00
3F00
7F80
7F80
6180
E1C0
E1C0
E1C0
E1C0
E1C0
6180
7380
7F80
7F80
3F00
0000
0000
ENDCHAR
STARTCHAR E668
ENCODING 58984
SWIDTH 1107 0
DWIDTH 10 0
BBX 10 20 0 0
BITMAP
0000
0000
0000
0080
0D80
3F00
7200
4E80
8C40
8C40
9840
D0C0
7180
2F00
6C00
4000
0000
0000
0000
0000
ENDCHAR
STARTCHAR E669
ENCODING 58985
SWIDTH 1107 0
DWIDTH 10 0
BBX 10 20 0 0
BITMAP
0000
0000
FFC0
FFC0
FFC0
FFC0
EFC0
E7C0
E7C0
F7C0
F7C0
C3C0
DBC0
DBC0
FFC0
FFC0
FFC0
FFC0
FFC0
0000
ENDCHAR
STARTCHAR E66A
ENCODING 58986
SWIDTH 1107 0
DWIDTH 10 0
BBX 10 20 0 0
BITMAP
0000
0000
1E00
6180
4080
8C00
8C40
8C40
8040
9C00
0C00
0C00
8C40
8C40
8C40
9E40
4080
6180
1E00
0C00
ENDCHAR
STARTCHAR E66B
ENCODING 58987
SWIDTH 1107 0
DWIDTH 10 0
BBX 10 20 0 0
BITMAP
0000
0000
1E00
61C0
61C0
01C0
81C0
8C40
9E40
9E40
1E00
1E00
9E40
8C40
8040
8040
4080
6180
1E00
0C00
ENDCHAR
STARTCHAR E66C
ENCODING 58988
SWIDTH 1107 0
DWIDTH 10 0
BBX 10 20 0 0
BITMAP
0000
0000
0200
0200
0200
0240
0140
0140
3DC0
7FC0
7FC0
7FC0
FF40
FFC0
FFC0
FFC0
FF00
7E00
7E00
6200
ENDCHAR
STARTCHAR E66D
ENCODING 58989
SWIDTH 1107 0
DWIDTH 10 0
BBX 10 20 0 0
BITMAP
0000
0000
01C0
01C0
01C0
01C0
01C0
01C0
01C0
01C0
01C0
01C0
01C0
01C0
01C0
C1C0
FFC0
FFC0
FF80
1C00
ENDCHAR
STARTCHAR E66E
ENCODING 58990
SWIDTH 1107 0
DWIDTH 10 0
BBX 10 20 0 0
BITMAP
0000
0000
3100
4000
C080
C000
8000
8080
4000
0100
7F80
FF80
F880
F900
FF80
E380
E340
0300
1300
0E00
ENDCHAR
STARTCHAR E66F
ENCODING 58991
SWIDTH 1107 0
DWIDTH 10 0
BBX 10 20 0 0
BITMAP
0000
0000
0000
00C0
8FC0
FF80
7E00
0A00
7F80
2200
2200
B780
E780
3680
2680
2680
F780
A680
8680
0000
ENDCHAR
STARTCHAR E670
ENCODING 58992
SWIDTH 1107 0
DWIDTH 10 0
BBX 10 20 0 0
BITMAP
0000
0000
0C00
0800
3D00
3D80
7D80
7D80
6D80
CD80
DD80
DDC0
CDC0
EDC0
EDC0
8DC0
DDC0
FDC0
3DC0
0000
ENDCHAR
STARTCHAR E671
ENCODING 58993
SWIDTH 1107 0
DWIDTH 10 0
BBX 10 20 0 0
BITMAP
0000
0000
4000
5800
5A80
5A80
5B00
5B80
5B80
5800
5F80
5F80
5000
5FC0
6000
FFC0
FFC0
4000
4000
4000
ENDCHAR
STARTCHAR E672
ENCODING 58994
SWIDTH 1107 0
DWIDTH 10 0
BBX 10 20 0 0
BITMAP
0000
1E00
3F00
3300
3300
2100
2100
2100
FFC0
FFC0
FFC0
FFC0
FFC0
FFC0
FFC0
FFC0
FFC0
FFC0
FFC0
0000
ENDCHAR
STARTCHAR E673
ENCODING 58995
SWIDTH 1107 0
DWIDTH 10 0
BBX 10 20 0 0
BITMAP
0000
0000
0000
C0C0
E1C0
E1C0
F3C0
F3C0
FFC0
DEC0
DEC0
DEC0
CCC0
C0C0
C0C0
C0C0
C0C0
C0C0
C0C0
0000
ENDCHAR
STARTCHAR E674
ENCODING 58996
SWIDTH 1107 0
DWIDTH 10 0
BBX 10 20 0 0
BITMAP
0000
0000
0000
0000
0000
0000
0000
0000
0000
0000
0000
0000
0000
0000
0000
0000
0000
0000
0000
0000
ENDCHAR
STARTCHAR E675
ENCODING 58997
SWIDTH 1107 0
DWIDTH 10 0
BBX 10 20 0 0
BITMAP
0000
0000
0000
0000
7F80
7FC0
4040
0000
9600
9D00
9800
9C00
9780
8380
4000
7FC0
7F80
0000
0000
0000
ENDCHAR
STARTCHAR E676
ENCODING 58998
SWIDTH 1107 0
DWIDTH 10 0
BBX 10 20 0 0
BITMAP
0000
0000
FC00
0600
0500
0400
0780
0080
0080
0000
0780
08C0
0240
0200
0300
0200
0240
08C0
0780
F300
ENDCHAR
STARTCHAR E677
ENCODING 58999
SWIDTH 1107 0
DWIDTH 10 0
BBX 10 20 0 0
BITMAP
0000
0000
0000
0000
4C80
7F80
FFC0
E3C0
80C0
0000
8C40
5E80
7F80
7F80
3F00
0C00
0000
0000
0000
0000
ENDCHAR
STARTCHAR E678
ENCODING 59000
SWIDTH 1107 0
DWIDTH 10 0
BBX 10 20 0 0
BITMAP
0000
0000
FF00
FF80
FF80
C380
C380
FF80
FF80
FF80
FF80
FF80
FF80
FF80
FF80
FF80
FF80
FF80
FF00
FF00
ENDCHAR
STARTCHAR E679
ENCODING 59001
SWIDTH 1107 0
DWIDTH 10 0
BBX 10 20 0 0
BITMAP
0000
0000
0C00
0A00
1200
1200
4000
7180
7380
7380
7380
7380
6180
E1C0
E1C0
E1C0
E1C0
E1C0
4080
0000
ENDCHAR
STARTCHAR E67A
ENCODING 59002
SWIDTH 1107 0
DWIDTH 10 0
BBX 10 20 0 0
BITMAP
0000
0000
0000
FFC0
FFC0
FFC0
FFC0
FFC0
0EC0
0E40
06C0
01C0
01C0
97C0
D7C0
D7C0
F7C0
0BC0
0000
0000
ENDCHAR
STARTCHAR E67B
ENCODING 59003
SWIDTH 1107 0
DWIDTH 10 0
BBX 10 20 0 0
BITMAP
0000
0000
FFC0
FFC0
8040
8040
FFC0
8040
FFC0
8040
8040
FFC0
D840
8FC0
8FC0
8FC0
8FC0
FFC0
FFC0
7F80
ENDCHAR
STARTCHAR E67C
ENCODING 59004
SWIDTH 1107 0
DWIDTH 10 0
BBX 10 20 0 0
BITMAP
0000
0000
0000
8040
8040
8040
A640
EF40
E940
0100
0F00
0D00
8900
EF40
EF40
A440
8040
8040
0000
0000
ENDCHAR
STARTCHAR E67D
ENCODING 59005
SWIDTH 1107 0
DWIDTH 10 0
BBX 10 20 0 0
BITMAP
0000
0000
0800
0C00
0C00
0C00
0C00
0C00
0C00
0C00
0C00
1400
13C0
1C40
31C0
6000
E000
E000
C000
0000
ENDCHAR
STARTCHAR E67E
ENCODING 59006
SWIDTH 1107 0
DWIDTH 10 0
BBX 10 20 0 0
BITMAP
0000
0000
0700
C700
CF80
DF80
FFC0
FFC0
FFC0
FFC0
FFC0
3FC0
3540
3140
2140
2240
2640
2640
2040
2040
ENDCHAR
STARTCHAR E67F
ENCODING 59007
SWIDTH 1107 0
DWIDTH 10 0
BBX 10 20 0 0
BITMAP
0000
0000
FFC0
FFC0
FFC0
8FC0
87C0
93C0
9040
9040
85C0
8DC0
9E40
9E40
9C40
9CC0
FFC0
FFC0
FFC0
FFC0
ENDCHAR
STARTCHAR E680
ENCODING 59008
SWIDTH 1107 0
DWIDTH 10 0
BBX 10 20 0 0
BITMAP
0000
0000
E1C0
A140
9F00
A140
E1C0
4280
0200
0400
0C00
0800
1000
1000
E1C0
A100
3F00
A100
E1C0
41C0
ENDCHAR
STARTCHAR E681
ENCODING 59009
SWIDTH 1107 0
DWIDTH 10 0
BBX 10 20 0 0
BITMAP
0000
0000
FE00
FE00
FE00
FE00
FE00
0000
1FC0
1FC0
1FC0
1FC0
1FC0
0000
01C0
01C0
01C0
01C0
01C0
0000
ENDCHAR
STARTCHAR E682
ENCODING 59010
SWIDTH 1107 0
DWIDTH 10 0
BBX 10 20 0 0
BITMAP
0000
0000
2100
2100
2100
1E00
3F00
7FC0
9E40
8C00
0C00
AD40
AD40
CCC0
4C80
7F80
3F00
3F00
0C00
0C00
ENDCHAR
STARTCHAR E683
ENCODING 59011
SWIDTH 1107 0
DWIDTH 10 0
BBX 10 20 0 0
BITMAP
0000
0000
0000
8000
C000
E000
F000
7800
3C00
1E00
0E00
1E00
3C00
7800
F000
E000
C000
8FC0
0FC0
0000
ENDCHAR
STARTCHAR E684
ENCODING 59012
SWIDTH 1107 0
DWIDTH 10 0
BBX 10 20 0 0
BITMAP
0000
0000
0C00
0C00
0800
1A00
1A00
3900
3100
3000
7000
F080
F080
F0C0
F040
F040
70C0
2300
3C00
2000
ENDCHAR
STARTCHAR E685
ENCODING 59013
SWIDTH 1107 0
DWIDTH 10 0
BBX 10 20 0 0
BITMAP
0000
0000
0000
C0C0
C0C0
BF40
CCC0
8C40
B340
3300
B340
8040
CCC0
F3C0
CC40
4080
1200
3F00
1E00
0C00
ENDCHAR
STARTCHAR E686
ENCODING 59014
SWIDTH 1107 0
DWIDTH 10 0
BBX 10 20 0 0
BITMAP
0000
0000
0000
0000
0000
0C00
5E80
BF40
AE40
A240
BD40
2D80
2F00
1F00
1E00
0C00
0000
0000
0000
0000
ENDCHAR
STARTCHAR E687
ENCODING 59015
SWIDTH 1107 0
DWIDTH 10 0
BBX 10 20 0 0
BITMAP
0000
0000
FFC0
FFC0
FFC0
FFC0
FFC0
FFC0
FFC0
FFC0
FFC0
E600
E200
FBC0
F200
E3C0
F3C0
F200
FFC0
FFC0
ENDCHAR
STARTCHAR E688
ENCODING 59016
SWIDTH 1107 0
DWIDTH 10 0
BBX 10 20 0 0
BITMAP
0000
0000
F180
F3C0
F3C0
F3C0
F3C0
F3C0
F3C0
F180
F000
F000
F000
F000
F000
F000
F000
F000
F000
6000
ENDCHAR
STARTCHAR E689
ENCODING 59017
SWIDTH 1107 0
DWIDTH 10 0
BBX 10 20 0 0
BITMAP
0000
0000
FF00
FC00
FBC0
F3C0
E2C0
E1C0
E1C0
E1C0
C3C0
C780
8700
8F00
1F00
1F80
1F80
3FC0
3FC0
7FC0
ENDCHAR
STARTCHAR E68A
ENCODING 59018
SWIDTH 1107 0
DWIDTH 10 0
BBX 10 20 0 0
BITMAP
0000
0000
0000
0000
3F00
7F80
F0C0
EF40
CF80
CF80
CD80
CF80
EFC0
6F80
3F80
0D80
0DC0
0CC0
0000
0000
ENDCHAR
STARTCHAR E68B
ENCODING 59019
SWIDTH 1107 0
DWIDTH 10 0
BBX 10 20 0 0
BITMAP
0000
0000
0000
0C00
3700
6D80
6180
7E80
FEC0
D2C0
9E40
9E40
9240
FBC0
FBC0
4080
61C0
7380
3F00
0C00
ENDCHAR
STARTCHAR E68C
ENCODING 59020
SWIDTH 1107 0
DWIDTH 10 0
BBX 10 20 0 0
BITMAP
0000
0000
0000
0000
6000
7E00
FF80
FFC0
FFC0
FFC0
FFC0
FFC0
FFC0
FF80
FE00
3800
1800
0000
0000
0000
ENDCHAR
STARTCHAR E68D
ENCODING 59021
SWIDTH 1107 0
DWIDTH 10 0
BBX 10 20 0 0
BITMAP
0000
0000
1E00
3F80
7F80
7F80
F800
F800
FFC0
F000
F000
FFC0
FFC0
E000
E000
FFC0
7F80
7F80
1F00
0C00
ENDCHAR
STARTCHAR E68E
ENCODING 59022
SWIDTH 1107 0
DWIDTH 10 0
BBX 10 20 0 0
BITMAP
0000
0000
0040
0FC0
FFC0
FFC0
FFC0
F800
00C0
7FC0
FFC0
FFC0
FF00
E000
07C0
FFC0
FFC0
FFC0
FE00
0000
ENDCHAR
STARTCHAR E68F
ENCODING 59023
SWIDTH 1107 0
DWIDTH 10 0
BBX 10 20 0 0
BITMAP
0000
0000
0000
3C00
7E00
6600
C300
8100
8180
8180
8180
8180
8100
C300
6700
7F80
3D80
01C0
00C0
0040
ENDCHAR
STARTCHAR E690
ENCODING 59024
SWIDTH 1107 0
DWIDTH 10 0
BBX 10 20 0 0
BITMAP
0000
0000
6000
7000
FFC0
FFC0
7000
2000
0180
0380
FFC0
FFC0
0380
0000
1C00
FFC0
FFC0
FFC0
1C00
0000
ENDCHAR
STARTCHAR E691
ENCODING 59025
SWIDTH 1107 0
DWIDTH 10 0
BBX 10 20 0 0
BITMAP
0000
0000
0C00
0C00
3F00
7F80
7180
61C0
7000
7C00
3F00
0F80
0380
E1C0
E1C0
7380
7F80
1E00
0C00
0C00
ENDCHAR
STARTCHAR E692
ENCODING 59026
SWIDTH 1107 0
DWIDTH 10 0
BBX 10 20 0 0
BITMAP
0000
0000
FFC0
FFC0
E1C0
C0C0
8040
C0C0
C4C0
E1C0
FFC0
FFC0
FFC0
FFC0
FFC0
FFC0
FFC0
FFC0
FFC0
7F80
ENDCHAR
STARTCHAR E693
ENCODING 59027
SWIDTH 1107 0
DWIDTH 10 0
BBX 10 20 0 0
BITMAP
0000
3F00
7F80
FFC0
FFC0
FFC0
FFC0
7F80
7F80
3F00
3F00
3F00
1E00
0000
3E00
3E00
0000
3E00
3E00
0000
ENDCHAR
STARTCHAR E694
ENCODING 59028
SWIDTH 1107 0
DWIDTH 10 0
BBX 10 20 0 0
BITMAP
0000
1E00
3F40
7FC0
7F80
FE00
FC00
E000
C000
8080
8100
8000
8200
8C40
7800
2180
7F80
1E00
0C00
0000
ENDCHAR
STARTCHAR E695
ENCODING 59029
SWIDTH 1107 0
DWIDTH 10 0
BBX 10 20 0 0
BITMAP
0000
0000
4080
F3C0
FFC0
F3C0
E1C0
EDC0
E1C0
6180
6180
7380
3300
1200
1A00
1200
0000
0000
0C00
0000
ENDCHAR
STARTCHAR E696
ENCODING 59030
SWIDTH 1107 0
DWIDTH 10 0
BBX 10 20 0 0
BITMAP
0000
1E00
3F80
7F80
7F80
F3C0
E1C0
EFC0
EFC0
F3C0
F9C0
FDC0
E5C0
E1C0
FF80
7F80
7F80
1E00
0C00
0000
ENDCHAR
STARTCHAR E697
ENCODING 59031
SWIDTH 1107 0
DWIDTH 10 0
BBX 10 20 0 0
BITMAP
0000
0000
0F80
1FC0
38C0
E040
E240
8F40
9FC0
98C0
8040
C240
FE40
FC40
98C0
81C0
C300
EE00
7C00
1000
ENDCHAR
STARTCHAR E698
ENCODING 59032
SWIDTH 1107 0
DWIDTH 10 0
BBX 10 20 0 0
BITMAP
0000
0000
7000
F800
F800
FC00
E000
E000
EFC0
EFC0
6FC0
0FC0
0FC0
0FC0
0FC0
0FC0
0FC0
0FC0
0FC0
0FC0
ENDCHAR
STARTCHAR E699
ENCODING 59033
SWIDTH 1107 0
DWIDTH 10 0
BBX 10 20 0 0
BITMAP
0000
0000
0000
0100
0100
0180
3180
2980
1D80
1FC0
0FC0
0FC0
0780
87C0
7FC0
7FC0
1F00
0400
0000
0000
ENDCHAR
STARTCHAR E69A
ENCODING 59034
SWIDTH 1107 0
DWIDTH 10 0
BBX 10 20 0 0
BITMAP
0000
0000
0000
8000
C000
E000
E000
ECC0
EDC0
6DC0
2DC0
0DC0
0D80
0900
0C00
0C00
0C00
0C00
0C00
0000
ENDCHAR
STARTCHAR E69B
ENCODING 59035
SWIDTH 1107 0
DWIDTH 10 0
BBX 10 20 0 0
BITMAP
0000
0000
0000
0000
0000
0000
E340
4100
5D80
5C80
5180
5840
7A40
1000
1000
1C00
0000
0000
0000
0000
ENDCHAR
STARTCHAR E69C
ENCODING 59036
SWIDTH 1107 0
DWIDTH 10 0
BBX 10 20 0 0
BITMAP
0000
0000
FFC0
FFC0
8040
8040
8040
8040
8240
8640
9C40
9C40
9C40
8840
8040
8040
8040
FFC0
FFC0
7F80
ENDCHAR
STARTCHAR E69D
ENCODING 59037
SWIDTH 1107 0
DWIDTH 10 0
BBX 10 20 0 0
BITMAP
0000
0000
FFC0
FFC0
FFC0
FFC0
FFC0
FFC0
FFC0
C240
C040
EDC0
EDC0
EC40
EE40
EF40
EF40
EC40
FFC0
FFC0
ENDCHAR
STARTCHAR E69E
ENCODING 59038
SWIDTH 1107 0
DWIDTH 10 0
BBX 10 20 0 0
BITMAP
0000
0DC0
0DC0
6DC0
6DC0
2180
8000
9F00
3F80
7F80
FF00
FE00
FC00
F800
7180
7180
3F00
1E00
0400
0000
ENDCHAR
STARTCHAR E69F
ENCODING 59039
SWIDTH 1107 0
DWIDTH 10 0
BBX 10 20 0 0
BITMAP
0000
0000
1E00
7F80
7F80
7F80
EFC0
E7C0
E3C0
E1C0
E0C0
E1C0
E3C0
E3C0
EFC0
EFC0
7F80
7F80
1E00
0C00
ENDCHAR
STARTCHAR E6A0
ENCODING 59040
SWIDTH 1107 0
DWIDTH 10 0
BBX 10 20 0 0
BITMAP
0000
0000
0000
D2C0
F3C0
7380
6D80
6D80
7F80
3F00
3300
1E00
1E00
1E00
0C00
0C00
0C00
0C00
0000
0000
ENDCHAR
STARTCHAR E6A1
ENCODING 59041
SWIDTH 1107 0
DWIDTH 10 0
BBX 10 20 0 0
BITMAP
0000
0000
F3C0
F3C0
FFC0
FFC0
FFC0
FFC0
FFC0
FFC0
FFC0
FFC0
E440
E040
EAC0
EA40
EBC0
FFC0
FFC0
FFC0
ENDCHAR
STARTCHAR E6A2
ENCODING 59042
SWIDTH 1107 0
DWIDTH 10 0
BBX 10 20 0 0
BITMAP
0000
0000
0000
0000
0000
0000
B580
B580
B500
FC40
FC40
FFC0
FBC0
4A40
4A40
4A40
0000
0000
0000
0000
ENDCHAR
STARTCHAR E6A3
ENCODING 59043
SWIDTH 1107 0
DWIDTH 10 0
BBX 10 20 0 0
BITMAP
0000
0000
0C00
3F00
3F00
F3C0
CCC0
BF40
DEC0
EDC0
F3C0
FFC0
FFC0
FFC0
4C80
FFC0
7F80
3F00
0C00
0400
ENDCHAR
STARTCHAR E6A4
ENCODING 59044
SWIDTH 1107 0
DWIDTH 10 0
BBX 10 20 0 0
BITMAP
0000
0000
0800
1800
1800
1800
1F80
07C0
35C0
F580
F100
E380
7580
7580
3580
1F80
1D80
1C80
3080
0000
ENDCHAR
STARTCHAR E6A5
ENCODING 59045
SWIDTH 1107 0
DWIDTH 10 0
BBX 10 20 0 0
BITMAP
0000
0000
1C00
FFC0
FC00
FC00
FF80
FC00
DC00
DF80
DC00
AF80
AC00
FF80
FC00
FF80
FC00
FFC0
1C00
0000
ENDCHAR
STARTCHAR E6A6
ENCODING 59046
SWIDTH 1107 0
DWIDTH 10 0
BBX 10 20 0 0
BITMAP
0000
0000
0C00
7C00
FC00
FF80
FF80
AC00
AF80
9C00
DF80
9C00
AF80
AD80
FF80
FD80
FFC0
FC00
1C00
0000
ENDCHAR
STARTCHAR E6A7
ENCODING 59047
SWIDTH 1107 0
DWIDTH 10 0
BBX 10 20 0 0
BITMAP
0000
0000
0C00
0C00
3C00
3E00
7C00
3C00
3C00
7C00
FC00
FC00
FC00
FE00
FE00
FEC0
FF80
FF00
FE00
3000
ENDCHAR
STARTCHAR E6A8
ENCODING 59048
SWIDTH 1107 0
DWIDTH 10 0
BBX 10 20 0 0
BITMAP
0000
0000
0000
0000
0000
0000
0000
0000
0000
0000
0000
0000
0000
0000
0000
0000
0000
0000
0000
0000
ENDCHAR
STARTCHAR E6A9
ENCODING 59049
SWIDTH 1107 0
DWIDTH 10 0
BBX 10 20 0 0
BITMAP
0000
0000
0000
0000
0040
0180
FFC0
DF40
BE40
8640
8E40
8C40
9C40
9840
9040
BEC0
FFC0
6000
8000
0000
ENDCHAR
STARTCHAR E6AA
ENCODING 59050
SWIDTH 1107 0
DWIDTH 10 0
BBX 10 20 0 0
BITMAP
0000
0000
FBC0
FBC0
F7C0
F7C0
FBC0
FBC0
FFC0
F7C0
F7C0
FBC0
FFC0
F3C0
FFC0
F3C0
F3C0
FFC0
FFC0
FFC0
ENDCHAR
STARTCHAR E6AB
ENCODING 59051
SWIDTH 1107 0
DWIDTH 10 0
BBX 10 20 0 0
BITMAP
0000
0000
0000
3F00
3F00
7F80
7F80
7F80
D140
BD40
B040
9C40
F140
7F80
7F80
7F80
7F80
3F00
0000
0000
ENDCHAR
STARTCHAR E6AC
ENCODING 59052
SWIDTH 1107 0
DWIDTH 10 0
BBX 10 20 0 0
BITMAP
0000
0000
E1C0
E1C0
F3C0
F3C0
7380
7380
7380
7380
7B80
7B80
3B00
3F00
3F00
1E00
1C00
1C00
1C00
0000
ENDCHAR
STARTCHAR E6AD
ENCODING 59053
SWIDTH 1107 0
DWIDTH 10 0
BBX 10 20 0 0
BITMAP
0000
0000
0000
F800
0800
FFC0
FFC0
FFC0
FFC0
FFC0
FFC0
FFC0
FFC0
FFC0
FFC0
FFC0
FFC0
FFC0
0000
0000
ENDCHAR
STARTCHAR E6AE
ENCODING 59054
SWIDTH 1107 0
DWIDTH 10 0
BBX 10 20 0 0
BITMAP
0000
0000
2080
30C0
70C0
B8C0
B8C0
78C0
1CC0
1EC0
2EC0
2FC0
27C0
2740
2780
2380
A1C0
61C0
2080
2000
ENDCHAR
STARTCHAR E6AF
ENCODING 59055
SWIDTH 1107 0
DWIDTH 10 0
BBX 10 20 0 0
BITMAP
0000
0000
3000
3880
3AC0
3BC0
1BC0
1F80
2180
4080
8040
2000
0100
0100
2100
2100
8040
4080
2100
0C00
ENDCHAR
STARTCHAR E6B0
ENCODING 59056
SWIDTH 1107 0
DWIDTH 10 0
BBX 10 20 0 0
BITMAP
0000
0000
0000
7080
7800
7E00
FE00
EC00
ED00
AD00
B980
9280
D280
D280
F000
E040
7000
7880
1E00
0C00
ENDCHAR
STARTCHAR E6B1
ENCODING 59057
SWIDTH 1107 0
DWIDTH 10 0
BBX 10 20 0 0
BITMAP
0000
0000
E000
B000
1000
0800
0800
0800
0800
1C00
1C00
1C00
3400
3000
6200
6200
E200
C100
C1C0
00C0
ENDCHAR
STARTCHAR E6B2
ENCODING 59058
SWIDTH 1107 0
DWIDTH 10 0
BBX 10 20 0 0
BITMAP
0000
0000
C0C0
C0C0
8040
9E40
9E40
8C40
8C40
8C40
8C40
8C40
8C40
8C40
8C40
8C40
8C40
8040
C0C0
C0C0
ENDCHAR
STARTCHAR E6B3
ENCODING 59059
SWIDTH 1107 0
DWIDTH 10 0
BBX 10 20 0 0
BITMAP
0000
0000
3F00
2100
2100
6180
6180
6D80
CCC0
CCC0
CCC0
9E40
BF40
FFC0
E1C0
F1C0
7F80
3F00
1E00
0C00
ENDCHAR
STARTCHAR E6B4
ENCODING 59060
SWIDTH 1107 0
DWIDTH 10 0
BBX 10 20 0 0
BITMAP
0000
0000
DF80
0000
F7C0
0000
E1C0
E1C0
0000
BFC0
0000
FD80
0000
0000
E000
0000
E000
0000
E000
0000
ENDCHAR
STARTCHAR E6B5
ENCODING 59061
SWIDTH 1107 0
DWIDTH 10 0
BBX 10 20 0 0
BITMAP
0000
0000
0000
0100
0180
03C0
8340
4D40
BFC0
5780
3FC0
15C0
1C80
00C0
01C0
0180
0280
0300
0000
0000
ENDCHAR
STARTCHAR E700
ENCODING 59136
SWIDTH 1107 0
DWIDTH 10 0
BBX 10 20 0 0
BITMAP
0000
0000
0000
C000
E000
E000
E000
F000
EE00
EFC0
E7C0
E3C0
E1C0
E3C0
CFC0
9F80
7F00
FE00
F800
7000
ENDCHAR
STARTCHAR E701
ENCODING 59137
SWIDTH 1107 0
DWIDTH 10 0
BBX 10 20 0 0
BITMAP
0000
0000
0C00
0C00
0C00
CCC0
CCC0
EDC0
FFC0
3F00
1E00
3F00
FFC0
FFC0
CCC0
CCC0
0C00
0C00
0C00
0C00
ENDCHAR
STARTCHAR E702
ENCODING 59138
SWIDTH 1107 0
DWIDTH 10 0
BBX 10 20 0 0
BITMAP
0000
0000
0C00
0C00
0E00
1E00
3300
7380
7B80
F9C0
F8C0
FAC0
FBC0
7380
7380
3300
1E00
1E00
0C00
0400
ENDCHAR
STARTCHAR E703
ENCODING 59139
SWIDTH 1107 0
DWIDTH 10 0
BBX 10 20 0 0
BITMAP
0000
0000
7F80
C0C0
C0C0
FFC0
FFC0
FFC0
F3C0
FFC0
EDC0
FFC0
F3C0
7F80
5E80
6180
7F80
3F00
3F00
0C00
ENDCHAR
STARTCHAR E704
ENCODING 59140
SWIDTH 1107 0
DWIDTH 10 0
BBX 10 20 0 0
BITMAP
0000
0000
8000
6000
9800
8000
0400
0000
0200
0000
0000
0100
2100
6080
1040
0000
0000
0040
0000
0000
ENDCHAR
STARTCHAR E705
ENCODING 59141
SWIDTH 1107 0
DWIDTH 10 0
BBX 10 20 0 0
BITMAP
0000
0000
3300
8040
0000
0000
0000
C0C0
3F00
0000
C0C0
3F00
0000
0000
C0C0
3F00
0000
8040
6180
0C00
ENDCHAR
STARTCHAR E706
ENCODING 59142
SWIDTH 1107 0
DWIDTH 10 0
BBX 10 20 0 0
BITMAP
0000
0000
7F80
C0C0
C0C0
FFC0
FFC0
FFC0
7F80
8040
F3C0
FFC0
FFC0
7F80
0000
E1C0
FFC0
FFC0
7F80
0C00
ENDCHAR
STARTCHAR E707
ENCODING 59143
SWIDTH 1107 0
DWIDTH 10 0
BBX 10 20 0 0
BITMAP
0000
0000
0000
7380
7380
FFC0
F3C0
6180
0000
6180
F3C0
F3C0
F3C0
7F80
0C00
3F00
1E00
0C00
0C00
0000
ENDCHAR
STARTCHAR E708
ENCODING 59144
SWIDTH 1107 0
DWIDTH 10 0
BBX 10 20 0 0
BITMAP
0000
0000
0000
4080
6180
FFC0
FFC0
FFC0
FFC0
FFC0
C0C0
8040
9240
9240
9240
8040
4080
7F80
0000
0000
ENDCHAR
STARTCHAR E709
ENCODING 59145
SWIDTH 1107 0
DWIDTH 10 0
BBX 10 20 0 0
BITMAP
0000
0000
1E00
3F00
7F80
7F80
C0C0
C0C0
C0C0
8040
8040
8040
C0C0
C0C0
E1C0
B3C0
4380
7380
3300
0000
ENDCHAR
STARTCHAR E70A
ENCODING 59146
SWIDTH 1107 0
DWIDTH 10 0
BBX 10 20 0 0
BITMAP
0000
0000
1E00
7F80
6180
4080
8040
9240
9E40
9E40
9E40
8040
8040
8040
8040
C0C0
6180
7380
1E00
0C00
ENDCHAR
STARTCHAR E70B
ENCODING 59147
SWIDTH 1107 0
DWIDTH 10 0
BBX 10 20 0 0
BITMAP
0000
0000
1E00
7F80
7F00
7E00
3300
3300
3380
9380
99C0
91C0
95C0
9D40
DD40
CD40
4C80
6C80
0E00
0C00
ENDCHAR
STARTCHAR E70C
ENCODING 59148
SWIDTH 1107 0
DWIDTH 10 0
BBX 10 20 0 0
BITMAP
0000
0000
0180
01C0
03C0
83C0
87C0
EEC0
ECC0
FCC0
B8C0
BCC0
FCC0
EEC0
CFC0
83C0
03C0
01C0
0180
0100
ENDCHAR
STARTCHAR E70D
ENCODING 59149
SWIDTH 1107 0
DWIDTH 10 0
BBX 10 20 0 0
BITMAP
0000
0280
07C0
0000
0080
0800
0100
1300
1C00
0E00
3800
1C00
4C00
7000
3800
B000
6000
F000
6000
0000
ENDCHAR
STARTCHAR E70E
ENCODING 59150
SWIDTH 1107 0
DWIDTH 10 0
BBX 10 20 0 0
BITMAP
0000
0000
0200
1E00
3F00
3F00
3F00
8040
FFC0
FFC0
FFC0
FFC0
FFC0
FFC0
3F00
3F00
1200
1200
1200
0000
ENDCHAR
STARTCHAR E70F
ENCODING 59151
SWIDTH 1107 0
DWIDTH 10 0
BBX 10 20 0 0
BITMAP
0000
0000
01C0
1FC0
FFC0
FFC0
FFC0
FFC0
FFC0
FFC0
0000
FFC0
FFC0
FFC0
FFC0
FFC0
FFC0
7FC0
03C0
0000
ENDCHAR
STARTCHAR E710
ENCODING 59152
SWIDTH 1107 0
DWIDTH 10 0
BBX 10 20 0 0
BITMAP
0000
0000
0040
0440
0640
0240
0040
1140
1D80
0680
2000
3E00
0780
7180
7F80
0180
7F80
0180
FF80
FF80
ENDCHAR
STARTCHAR E711
ENCODING 59153
SWIDTH 1107 0
DWIDTH 10 0
BBX 10 20 0 0
BITMAP
0000
0000
0300
0200
0600
0400
73C0
FFC0
FFC0
FF80
FF80
FF80
FF80
FFC0
FFC0
FFC0
FFC0
7FC0
7F80
0100
ENDCHAR
STARTCHAR E712
ENCODING 59154
SWIDTH 1107 0
DWIDTH 10 0
BBX 10 20 0 0
BITMAP
0000
0000
1C00
3E00
2E00
3E00
0200
0600
2300
0300
0100
4180
4180
C180
0380
2200
2200
0600
1C00
0100
ENDCHAR
STARTCHAR E713
ENCODING 59155
SWIDTH 1107 0
DWIDTH 10 0
BBX 10 20 0 0
BITMAP
0000
0000
0000
0800
0400
0400
0400
0000
0A00
1200
F6C0
DD40
BD40
AFC0
6180
6080
4080
4040
8040
0000
ENDCHAR
STARTCHAR E714
ENCODING 59156
SWIDTH 1107 0
DWIDTH 10 0
BBX 10 20 0 0
BITMAP
0000
0000
FC40
FC40
FC40
0000
0000
0000
0000
FFC0
FFC0
FFC0
0000
0000
0000
0000
F3C0
F3C0
F3C0
0000
ENDCHAR
STARTCHAR E715
ENCODING 59157
SWIDTH 1107 0
DWIDTH 10 0
BBX 10 20 0 0
BITMAP
0000
0000
0000
0000
0000
0000
0000
0000
0000
C800
4840
0840
0000
0000
0000
0000
0000
0000
0000
0000
ENDCHAR
STARTCHAR E716
ENCODING 59158
SWIDTH 1107 0
DWIDTH 10 0
BBX 10 20 0 0
BITMAP
0000
0000
0000
0C00
1E00
3F00
6D80
CCC0
8C40
8C40
F3C0
E1C0
F3C0
9E40
8C40
CCC0
6D80
3F00
1E00
0C00
ENDCHAR
STARTCHAR E717
ENCODING 59159
SWIDTH 1107 0
DWIDTH 10 0
BBX 10 20 0 0
BITMAP
0000
0000
0000
0000
0000
0000
0000
0000
A800
3800
7CC0
7880
F9C0
0000
0000
0000
0000
0000
0000
0000
ENDCHAR
STARTCHAR E718
ENCODING 59160
SWIDTH 1107 0
DWIDTH 10 0
BBX 10 20 0 0
BITMAP
0000
0000
0000
0C00
3300
2100
C0C0
0000
1700
1900
1800
1F00
1000
1800
1F00
1000
F0C0
6180
0300
0C00
ENDCHAR
STARTCHAR E719
ENCODING 59161
SWIDTH 1107 0
DWIDTH 10 0
BBX 10 20 0 0
BITMAP
0000
0000
0000
0000
0000
0000
0000
0000
0400
0400
AD00
3F40
2D00
0000
0000
0000
0000
0000
0000
0000
ENDCHAR
STARTCHAR E71A
ENCODING 59162
SWIDTH 1107 0
DWIDTH 10 0
BBX 10 20 0 0
BITMAP
0000
0000
FFC0
8040
8040
8040
9240
9240
9240
8C40
8C40
8C40
8C40
8C40
8C40
8040
8040
8040
FFC0
FFC0
ENDCHAR
STARTCHAR E71B
ENCODING 59163
SWIDTH 1107 0
DWIDTH 10 0
BBX 10 20 0 0
BITMAP
0000
0000
0000
0000
0000
0000
0000
0400
0400
0000
2D00
B940
A8C0
ED80
0000
0000
0000
0000
0000
0000
ENDCHAR
STARTCHAR E71C
ENCODING 59164
SWIDTH 1107 0
DWIDTH 10 0
BBX 10 20 0 0
BITMAP
0000
0000
0000
0000
0000
0000
0000
0200
CEC0
1300
0200
3300
EFC0
0200
0000
0000
0000
0000
0000
0000
ENDCHAR
STARTCHAR E71D
ENCODING 59165
SWIDTH 1107 0
DWIDTH 10 0
BBX 10 20 0 0
BITMAP
0000
0000
0000
0000
0000
0000
0000
2000
0000
BDC0
3B00
B940
6100
0300
0000
0000
0000
0000
0000
0000
ENDCHAR
STARTCHAR E71E
ENCODING 59166
SWIDTH 1107 0
DWIDTH 10 0
BBX 10 20 0 0
BITMAP
0000
0000
0000
0000
0000
0000
0000
FFC0
0000
4900
4900
4100
EFC0
1800
0000
0000
0000
0000
0000
0000
ENDCHAR
STARTCHAR E71F
ENCODING 59167
SWIDTH 1107 0
DWIDTH 10 0
BBX 10 20 0 0
BITMAP
0000
0000
0000
0000
0000
0000
0000
0000
9EC0
94C0
0600
2000
0000
0000
0000
0000
0000
0000
0000
0000
ENDCHAR
STARTCHAR E720
ENCODING 59168
SWIDTH 1107 0
DWIDTH 10 0
BBX 10 20 0 0
BITMAP
0000
0000
0000
0000
0000
0000
1C00
1F00
1F80
7F80
7FC0
7FC0
FFC0
FFC0
FFC0
0000
0000
0000
0000
0000
ENDCHAR
STARTCHAR E721
ENCODING 59169
SWIDTH 1107 0
DWIDTH 10 0
BBX 10 20 0 0
BITMAP
0000
0000
0180
0780
0FC0
11C0
3140
6240
6240
C240
FE40
C240
6240
6240
3140
11C0
0DC0
07C0
0180
0000
ENDCHAR
STARTCHAR E722
ENCODING 59170
SWIDTH 1107 0
DWIDTH 10 0
BBX 10 20 0 0
BITMAP
0000
0000
D2C0
0C00
8040
8C40
7F80
4080
9240
EDC0
4080
4C80
4C80
6100
8040
8040
1E00
2100
0200
0C00
ENDCHAR
STARTCHAR E723
ENCODING 59171
SWIDTH 1107 0
DWIDTH 10 0
BBX 10 20 0 0
BITMAP
0000
0000
0000
0000
EE00
EE00
EE00
00C0
01C0
EDC0
EC00
CD80
01C0
01C0
1D80
1C00
1C00
0000
0000
0000
ENDCHAR
STARTCHAR E724
ENCODING 59172
SWIDTH 1107 0
DWIDTH 10 0
BBX 10 20 0 0
BITMAP
0000
0000
40C0
0040
4680
4800
0000
0000
0000
0000
0000
0000
0000
0000
0000
0000
0000
0040
0000
0040
ENDCHAR
STARTCHAR E725
ENCODING 59173
SWIDTH 1107 0
DWIDTH 10 0
BBX 10 20 0 0
BITMAP
0000
0000
E000
3000
30C0
E1C0
C300
C300
C1C0
C0C0
C1C0
C1C0
FF80
FF00
F800
E000
3000
3000
E000
C000
ENDCHAR
STARTCHAR E726
ENCODING 59174
SWIDTH 1107 0
DWIDTH 10 0
BBX 10 20 0 0
BITMAP
0000
0000
0400
EC00
3F00
3F80
EDC0
C4C0
C0C0
C0C0
C0C0
C0C0
C0C0
C0C0
C0C0
E1C0
2100
2100
E1C0
C0C0
ENDCHAR
STARTCHAR E727
ENCODING 59175
SWIDTH 1107 0
DWIDTH 10 0
BBX 10 20 0 0
BITMAP
0000
0000
E000
A000
A000
E000
6000
6000
7000
7080
7DC0
4F40
4F40
41C0
4000
E000
A000
A000
E000
4000
ENDCHAR
STARTCHAR E728
ENCODING 59176
SWIDTH 1107 0
DWIDTH 10 0
BBX 10 20 0 0
BITMAP
0000
0000
0000
0000
C400
AF80
2F80
C4C0
C0C0
C0C0
C0C0
C0C0
C0C0
C0C0
C0C0
C0C0
7900
7D00
08C0
0000
ENDCHAR
STARTCHAR E729
ENCODING 59177
SWIDTH 1107 0
DWIDTH 10 0
BBX 10 20 0 0
BITMAP
0000
0000
0000
0000
0000
0C00
1E00
1E00
3300
F3C0
E1C0
F3C0
3300
1E00
1E00
0C00
0000
0000
0000
0000
ENDCHAR
STARTCHAR E72A
ENCODING 59178
SWIDTH 1107 0
DWIDTH 10 0
BBX 10 20 0 0
BITMAP
0000
0000
1800
3800
7000
6C00
DE00
BE00
BF00
BF00
FF00
BF40
BF40
BF40
DEC0
FD80
6180
7F80
1E00
0C00
ENDCHAR
STARTCHAR E72B
ENCODING 59179
SWIDTH 1107 0
DWIDTH 10 0
BBX 10 20 0 0
BITMAP
0000
0000
0000
0000
0000
F000
6000
2380
3300
1240
1C40
0C40
0C40
0C40
0C00
1E40
0000
0000
0000
0000
ENDCHAR
STARTCHAR E72C
ENCODING 59180
SWIDTH 1107 0
DWIDTH 10 0
BBX 10 20 0 0
BITMAP
0000
0000
0000
0000
0000
0000
F9C0
F9C0
F9C0
6600
6600
6600
67C0
67C0
67C0
0000
0000
0000
0000
0000
ENDCHAR
STARTCHAR E72D
ENCODING 59181
SWIDTH 1107 0
DWIDTH 10 0
BBX 10 20 0 0
BITMAP
0000
0000
0180
0080
C080
CF80
8F80
CF80
C7C0
C1C0
E1C0
F0C0
F840
7C40
7C40
7C40
4040
4000
4000
2000
ENDCHAR
STARTCHAR E72E
ENCODING 59182
SWIDTH 1107 0
DWIDTH 10 0
BBX 10 20 0 0
BITMAP
0000
0000
0000
0000
0000
0000
0000
0000
0080
12C0
76C0
7D80
7F80
7DC0
FEC0
0000
0000
0000
0000
0000
ENDCHAR
STARTCHAR E72F
ENCODING 59183
SWIDTH 1107 0
DWIDTH 10 0
BBX 10 20 0 0
BITMAP
0000
0000
1E00
7F80
7F80
7F80
FFC0
F3C0
F3C0
EBC0
EBC0
E1C0
E9C0
F3C0
F3C0
FFC0
7F80
7F80
1E00
0C00
ENDCHAR
STARTCHAR E730
ENCODING 59184
SWIDTH 1107 0
DWIDTH 10 0
BBX 10 20 0 0
BITMAP
0000
0000
0F80
1FC0
3FC0
7A40
7A00
2800
2800
2800
0800
0C00
0C00
5C00
5E00
1EC0
1FC0
17C0
07C0
0400
ENDCHAR
STARTCHAR E731
ENCODING 59185
SWIDTH 1107 0
DWIDTH 10 0
BBX 10 20 0 0
BITMAP
0000
0000
0000
0E00
1E00
1F00
3700
7380
7380
7380
73C0
E1C0
E1C0
E000
FFC0
DFC0
5FC0
3F80
3F80
0000
ENDCHAR
STARTCHAR E732
ENCODING 59186
SWIDTH 1107 0
DWIDTH 10 0
BBX 10 20 0 0
BITMAP
0000
0000
0000
0000
EDC0
DD80
9B80
8040
8040
8040
8040
8040
8040
8040
8040
FFC0
FFC0
FFC0
0000
0000
ENDCHAR
STARTCHAR E733
ENCODING 59187
SWIDTH 1107 0
DWIDTH 10 0
BBX 10 20 0 0
BITMAP
0000
0000
6180
7380
3300
1E00
FFC0
FFC0
FFC0
8040
8040
8040
8040
8C40
8C40
9E40
FFC0
F3C0
F3C0
0000
ENDCHAR
STARTCHAR E734
ENCODING 59188
SWIDTH 1107 0
DWIDTH 10 0
BBX 10 20 0 0
BITMAP
0000
0000
0000
0000
F000
F800
0C00
CD80
CDC0
CEC0
7AC0
3AC0
3CC0
0CC0
3000
3FC0
1FC0
0000
0000
0000
ENDCHAR
STARTCHAR E735
ENCODING 59189
SWIDTH 1107 0
DWIDTH 10 0
BBX 10 20 0 0
BITMAP
0000
0000
0E00
0F80
E3C0
F1C0
FE40
9C40
8040
8040
8040
8040
8040
E1C0
F7C0
7F80
1E00
0800
0000
0000
ENDCHAR
STARTCHAR E736
ENCODING 59190
SWIDTH 1107 0
DWIDTH 10 0
BBX 10 20 0 0
BITMAP
0000
0000
0000
FFC0
FFC0
FFC0
C0C0
C0C0
DFC0
DFC0
C0C0
C0C0
FCC0
CCC0
CCC0
C0C0
F3C0
FFC0
FFC0
3F00
ENDCHAR
STARTCHAR E737
ENCODING 59191
SWIDTH 1107 0
DWIDTH 10 0
BBX 10 20 0 0
BITMAP
0000
0000
0040
03C0
FFC0
FFC0
FF80
FE00
00C0
1FC0
FFC0
FFC0
FF80
F040
03C0
FFC0
FFC0
FF80
FE00
8000
ENDCHAR
STARTCHAR E738
ENCODING 59192
SWIDTH 1107 0
DWIDTH 10 0
BBX 10 20 0 0
BITMAP
0000
0000
0400
0900
1400
2800
0800
2C00
1400
00C0
0600
0000
FE80
0000
7E00
0040
FE00
3E00
0000
0000
ENDCHAR
STARTCHAR E739
ENCODING 59193
SWIDTH 1107 0
DWIDTH 10 0
BBX 10 20 0 0
BITMAP
0000
0000
0240
0EC0
0F80
1CC0
3B80
7FC0
7DC0
7D40
17C0
FCC0
FFC0
7EC0
BB40
9FC0
DFC0
1FC0
1D80
0000
ENDCHAR
STARTCHAR E73A
ENCODING 59194
SWIDTH 1107 0
DWIDTH 10 0
BBX 10 20 0 0
BITMAP
0000
0000
1E00
7F80
7D80
7180
F3C0
EDC0
DEC0
DEC0
BFC0
9EC0
DEC0
EDC0
F3C0
F1C0
7D80
7F80
1E00
0C00
ENDCHAR
STARTCHAR E73B
ENCODING 59195
SWIDTH 1107 0
DWIDTH 10 0
BBX 10 20 0 0
BITMAP
0000
0000
0A00
0BC0
0FC0
2E00
3C00
1E00
1C00
3C00
B800
7800
7800
7800
7800
FC00
FC00
7E00
7C00
0000
ENDCHAR
STARTCHAR E73C
ENCODING 59196
SWIDTH 1107 0
DWIDTH 10 0
BBX 10 20 0 0
BITMAP
0000
0000
1E00
0E00
0E00
1E00
7EC0
FEC0
FEC0
FFC0
E1C0
FFC0
DFC0
DFC0
DFC0
1E00
1E00
1C00
1E00
0C00
ENDCHAR
STARTCHAR E73D
ENCODING 59197
SWIDTH 1107 0
DWIDTH 10 0
BBX 10 20 0 0
BITMAP
0000
0000
0000
0000
0000
0000
0800
0800
EFC0
9340
9340
B340
F1C0
8000
8000
0000
0000
0000
0000
0000
ENDCHAR
STARTCHAR E73E
ENCODING 59198
SWIDTH 1107 0
DWIDTH 10 0
BBX 10 20 0 0
BITMAP
0000
0000
0000
0000
0000
FFC0
FFC0
9240
9240
8240
8240
A040
B240
B2C0
FFC0
FFC0
0000
0000
0000
0000
ENDCHAR
STARTCHAR E73F
ENCODING 59199
SWIDTH 1107 0
DWIDTH 10 0
BBX 10 20 0 0
BITMAP
0000
0000
0000
0000
4000
2000
0000
8000
1040
0100
00C0
4B00
4C00
2440
0440
0180
0200
0000
0000
0000
ENDCHAR
STARTCHAR E740
ENCODING 59200
SWIDTH 1107 0
DWIDTH 10 0
BBX 10 20 0 0
BITMAP
0000
0000
0000
0C00
1E00
3300
7380
C0C0
8040
9240
B340
B340
B340
B340
B340
B340
B340
3300
1E00
0C00
ENDCHAR
STARTCHAR E741
ENCODING 59201
SWIDTH 1107 0
DWIDTH 10 0
BBX 10 20 0 0
BITMAP
0000
0000
C0C0
E1C0
F7C0
FFC0
6D80
5C80
7F80
7280
7300
7180
7F80
5F80
4D80
FFC0
FFC0
F3C0
C0C0
0000
ENDCHAR
STARTCHAR E742
ENCODING 59202
SWIDTH 1107 0
DWIDTH 10 0
BBX 10 20 0 0
BITMAP
0000
0000
0800
0C00
1E00
3F00
7F80
FFC0
FFC0
FFC0
FFC0
FFC0
E300
C300
C000
C300
6E00
3F80
3900
0C00
ENDCHAR
STARTCHAR E743
ENCODING 59203
SWIDTH 1107 0
DWIDTH 10 0
BBX 10 20 0 0
BITMAP
0000
0000
1E00
7F80
7F80
7F80
FFC0
FFC0
BFC0
DFC0
DFC0
FFC0
FFC0
EDC0
F3C0
FFC0
7B80
7B80
1600
0C00
ENDCHAR
STARTCHAR E744
ENCODING 59204
SWIDTH 1107 0
DWIDTH 10 0
BBX 10 20 0 0
BITMAP
0000
03C0
0E00
1F80
3F80
7F80
51C0
31C0
71C0
7FC0
7FC0
F000
F000
F1C0
FB80
BF80
9F80
8E00
4000
0000
ENDCHAR
STARTCHAR E745
ENCODING 59205
SWIDTH 1107 0
DWIDTH 10 0
BBX 10 20 0 0
BITMAP
0000
0000
1200
0000
9080
E040
E0C0
E840
F040
D0C0
E0C0
E4C0
FCC0
E1C0
F1C0
7F80
7F80
3F00
1E00
0000
ENDCHAR
STARTCHAR E746
ENCODING 59206
SWIDTH 1107 0
DWIDTH 10 0
BBX 10 20 0 0
BITMAP
0000
0000
3F00
3F00
6180
F3C0
E1C0
E1C0
C0C0
C0C0
C0C0
C0C0
C0C0
E1C0
E1C0
E1C0
E1C0
7380
3F00
0C00
ENDCHAR
STARTCHAR E747
ENCODING 59207
SWIDTH 1107 0
DWIDTH 10 0
BBX 10 20 0 0
BITMAP
0000
0000
FFC0
FFC0
FFC0
E1C0
E0C0
ECC0
ECC0
EDC0
E1C0
ECC0
EEC0
EEC0
E0C0
E1C0
FFC0
FFC0
FFC0
7F80
ENDCHAR
STARTCHAR E748
ENCODING 59208
SWIDTH 1107 0
DWIDTH 10 0
BBX 10 20 0 0
BITMAP
0000
0000
0C00
3F00
2D00
5E80
BF40
B540
7780
7B80
7F80
7780
7B80
AF40
BF40
5E80
2D00
3F00
0C00
0000
ENDCHAR
STARTCHAR E749
ENCODING 59209
SWIDTH 1107 0
DWIDTH 10 0
BBX 10 20 0 0
BITMAP
0000
0000
0000
FFC0
FFC0
FFC0
C0C0
C0C0
FEC0
FEC0
F0C0
F0C0
FCC0
CCC0
CCC0
C0C0
F3C0
FFC0
FFC0
3F00
ENDCHAR
STARTCHAR E74A
ENCODING 59210
SWIDTH 1107 0
DWIDTH 10 0
BBX 10 20 0 0
BITMAP
0000
0000
7FC0
7FC0
7FC0
00C0
00C0
7FC0
FFC0
FFC0
0180
0180
C180
C180
E380
FF80
FF00
3C00
1000
0000
ENDCHAR
STARTCHAR E74B
ENCODING 59211
SWIDTH 1107 0
DWIDTH 10 0
BBX 10 20 0 0
BITMAP
0000
0000
0000
0000
1C00
6000
4000
8000
8400
3800
8000
9100
4F00
6300
A800
B000
C000
0000
0000
0000
ENDCHAR
STARTCHAR E74C
ENCODING 59212
SWIDTH 1107 0
DWIDTH 10 0
BBX 10 20 0 0
BITMAP
0000
0000
C6C0
DEC0
6180
2100
0000
8040
C0C0
3300
8040
4080
4080
C0C0
4080
1E00
B340
0000
0000
0C00
ENDCHAR
STARTCHAR E74D
ENCODING 59213
SWIDTH 1107 0
DWIDTH 10 0
BBX 10 20 0 0
BITMAP
0000
0000
0000
2800
4400
8080
8480
1700
0400
0780
0840
0040
0040
8080
8300
4400
7C00
1C00
0800
0000
ENDCHAR
STARTCHAR E74E
ENCODING 59214
SWIDTH 1107 0
DWIDTH 10 0
BBX 10 20 0 0
BITMAP
0000
0000
0000
0000
33C0
33C0
3640
3600
3600
3380
33C0
31C0
30C0
3040
7440
E7C0
E780
0000
0000
0000
ENDCHAR
STARTCHAR E74F
ENCODING 59215
SWIDTH 1107 0
DWIDTH 10 0
BBX 10 20 0 0
BITMAP
0000
0000
0000
FFC0
FFC0
C0C0
C0C0
CCC0
CEC0
CFC0
C0C0
C0C0
FCC0
CCC0
CCC0
C0C0
F3C0
FFC0
FFC0
3F00
ENDCHAR
STARTCHAR E750
ENCODING 59216
SWIDTH 1107 0
DWIDTH 10 0
BBX 10 20 0 0
BITMAP
0000
0000
0000
1000
0200
0200
8200
9100
90C0
9800
9800
8E00
87C0
C180
E000
6000
7840
3F80
1F80
0000
ENDCHAR
STARTCHAR E751
ENCODING 59217
SWIDTH 1107 0
DWIDTH 10 0
BBX 10 20 0 0
BITMAP
0000
0000
0000
0000
2D00
9200
C0C0
9E00
E0C0
7FC0
FFC0
7FC0
7F80
BF80
BF80
5F00
1F00
0E00
0000
0000
ENDCHAR
STARTCHAR E752
ENCODING 59218
SWIDTH 1107 0
DWIDTH 10 0
BBX 10 20 0 0
BITMAP
0000
0000
0000
0000
C0C0
E1C0
FFC0
9E40
9E40
FFC0
E1C0
E1C0
E1C0
FFC0
9E40
9E40
FFC0
E1C0
C0C0
8040
ENDCHAR
STARTCHAR E753
ENCODING 59219
SWIDTH 1107 0
DWIDTH 10 0
BBX 10 20 0 0
BITMAP
0000
0000
0000
1E00
3F80
F3C0
F3C0
F3C0
F3C0
FFC0
EDC0
EDC0
C0C0
CEC0
DEC0
DEC0
FFC0
7F80
3F00
0C00
ENDCHAR
STARTCHAR E754
ENCODING 59220
SWIDTH 1107 0
DWIDTH 10 0
BBX 10 20 0 0
BITMAP
0000
0000
0000
FFC0
FFC0
FE40
FE40
9E40
9F40
9FC0
9E40
8C40
CCC0
C0C0
E1C0
7380
7F80
3F00
0C00
0000
ENDCHAR
STARTCHAR E755
ENCODING 59221
SWIDTH 1107 0
DWIDTH 10 0
BBX 10 20 0 0
BITMAP
0000
0000
0000
0000
0100
0100
5180
2180
2980
1D80
1FC0
0FC0
0FC0
0380
87C0
7FC0
3FC0
1E00
0000
0000
ENDCHAR
STARTCHAR E756
ENCODING 59222
SWIDTH 1107 0
DWIDTH 10 0
BBX 10 20 0 0
BITMAP
0000
0000
0080
0140
0100
3300
6240
6640
6780
6600
B600
9600
9600
6600
0400
0400
0800
6800
7800
2000
ENDCHAR
STARTCHAR E757
ENCODING 59223
SWIDTH 1107 0
DWIDTH 10 0
BBX 10 20 0 0
BITMAP
0000
0000
1E00
7F80
7F80
7C80
FEC0
EFC0
F2C0
D9C0
EBC0
ABC0
A3C0
F3C0
F7C0
F7C0
7F80
7F80
1E00
0C00
ENDCHAR
STARTCHAR E758
ENCODING 59224
SWIDTH 1107 0
DWIDTH 10 0
BBX 10 20 0 0
BITMAP
0000
0000
0000
0000
0000
0000
4000
C040
C040
CD40
5D00
C2C0
F7C0
8040
8040
0000
0000
0000
0000
0000
ENDCHAR
STARTCHAR E759
ENCODING 59225
SWIDTH 1107 0
DWIDTH 10 0
BBX 10 20 0 0
BITMAP
0000
0000
0180
0000
0000
0000
0400
2000
0000
52C0
1340
3300
0000
0000
0000
0000
0000
0000
8000
0000
ENDCHAR
STARTCHAR E75A
ENCODING 59226
SWIDTH 1107 0
DWIDTH 10 0
BBX 10 20 0 0
BITMAP
0000
0000
FFC0
8C40
8C40
8C40
8C40
8C40
8C40
8C40
8C40
8C40
8FC0
8FC0
8FC0
8FC0
FFC0
FFC0
FFC0
FFC0
ENDCHAR
STARTCHAR E75B
ENCODING 59227
SWIDTH 1107 0
DWIDTH 10 0
BBX 10 20 0 0
BITMAP
0000
0000
0000
8040
7F80
1E00
4000
6D80
6D80
3300
1300
1E00
1E00
0C00
0E00
1600
1200
1200
1200
0000
ENDCHAR
STARTCHAR E75C
ENCODING 59228
SWIDTH 1107 0
DWIDTH 10 0
BBX 10 20 0 0
BITMAP
0000
0000
0C00
6D80
6180
0000
C0C0
FFC0
EDC0
E1C0
7380
3F00
1E00
1E00
0E00
0600
3700
3300
3300
2100
ENDCHAR
STARTCHAR E75D
ENCODING 59229
SWIDTH 1107 0
DWIDTH 10 0
BBX 10 20 0 0
BITMAP
0000
0000
0380
07C0
0FC0
0FC0
5FC0
DFC0
BFC0
BFC0
BFC0
FFC0
FFC0
FFC0
FFC0
FFC0
7F80
3F00
3F00
0C00
ENDCHAR
STARTCHAR E75E
ENCODING 59230
SWIDTH 1107 0
DWIDTH 10 0
BBX 10 20 0 0
BITMAP
0000
0000
0000
1E00
7F80
FFC0
E1C0
C0C0
C0C0
C0C0
C0C0
E1C0
FFC0
7F80
7F80
FFC0
E1C0
F3C0
7F80
1E00
ENDCHAR
STARTCHAR E75F
ENCODING 59231
SWIDTH 1107 0
DWIDTH 10 0
BBX 10 20 0 0
BITMAP
0000
0000
1E00
1200
3300
7380
7380
F2C0
BE40
B040
2000
A840
AC40
A7C0
6380
6180
2100
1200
1E00
0C00
ENDCHAR
STARTCHAR E760
ENCODING 59232
SWIDTH 1107 0
DWIDTH 10 0
BBX 10 20 0 0
BITMAP
0000
0000
FFC0
FFC0
FE40
FE40
FE00
FE00
FFC0
9DC0
9DC0
9FC0
03C0
73C0
F3C0
F3C0
FFC0
FFC0
FFC0
FFC0
ENDCHAR
STARTCHAR E761
ENCODING 59233
SWIDTH 1107 0
DWIDTH 10 0
BBX 10 20 0 0
BITMAP
0000
0000
03C0
0FC0
3FC0
7FC0
7FC0
FFC0
FFC0
FFC0
E3C0
8180
F780
EB80
FF80
FF80
7F00
7E00
3E00
0800
ENDCHAR
STARTCHAR E762
ENCODING 59234
SWIDTH 1107 0
DWIDTH 10 0
BBX 10 20 0 0
BITMAP
0000
0000
0000
0000
0000
0400
0E00
7E00
7D00
6F80
EF80
DF80
FFC0
BFC0
FFC0
1FC0
0000
0000
0000
0000
ENDCHAR
STARTCHAR E763
ENCODING 59235
SWIDTH 1107 0
DWIDTH 10 0
BBX 10 20 0 0
BITMAP
0040
0040
0040
0040
0040
0040
0040
0040
0040
0040
0040
0040
0040
0040
0040
0040
0040
0040
0040
0040
ENDCHAR
STARTCHAR E764
ENCODING 59236
SWIDTH 1107 0
DWIDTH 10 0
BBX 10 20 0 0
BITMAP
0000
0000
0000
2300
2480
2880
2000
7E00
B080
0040
0C00
A400
3140
0100
4100
4800
4400
5100
0200
0000
ENDCHAR
STARTCHAR E765
ENCODING 59237
SWIDTH 1107 0
DWIDTH 10 0
BBX 10 20 0 0
BITMAP
0000
0000
0000
0000
0000
0000
0000
0000
2100
2100
3300
3300
2100
0000
0000
0000
0000
0000
0000
0000
ENDCHAR
STARTCHAR E766
ENCODING 59238
SWIDTH 1107 0
DWIDTH 10 0
BBX 10 20 0 0
BITMAP
0000
0000
8000
A000
D000
E800
7C00
7C00
7E80
FE40
FF40
FF40
FFC0
FE80
7F80
7F40
7FC0
1F80
1E00
0800
ENDCHAR
STARTCHAR E767
ENCODING 59239
SWIDTH 1107 0
DWIDTH 10 0
BBX 10 20 0 0
BITMAP
0000
0000
0000
0100
0000
4080
2000
8040
0600
0100
3E80
0180
4700
8440
1F00
1080
31C0
1000
0000
0600
ENDCHAR
STARTCHAR E768
ENCODING 59240
SWIDTH 1107 0
DWIDTH 10 0
BBX 10 20 0 0
BITMAP
0000
0000
1200
6180
4080
6C00
F240
8000
2900
2900
2900
2500
2500
0040
93C0
8D40
0000
6180
1200
0C00
ENDCHAR
STARTCHAR E769
ENCODING 59241
SWIDTH 1107 0
DWIDTH 10 0
BBX 10 20 0 0
BITMAP
0000
0000
1E00
7F80
7B80
7B80
F3C0
E1C0
D9C0
88C0
A040
A040
A040
A040
8040
D8C0
6180
7F80
1E00
0C00
ENDCHAR
STARTCHAR E76A
ENCODING 59242
SWIDTH 1107 0
DWIDTH 10 0
BBX 10 20 0 0
BITMAP
0000
0000
1E00
7F80
7F80
0180
6DC0
DEC0
D6C0
B740
B740
BB40
DAC0
DAC0
ED80
E000
7F80
7F80
1E00
0C00
ENDCHAR
STARTCHAR E76B
ENCODING 59243
SWIDTH 1107 0
DWIDTH 10 0
BBX 10 20 0 0
BITMAP
0000
0C00
1200
1200
3300
4C80
4C80
CCC0
1200
1200
1200
C8C0
4C80
4C80
2100
1200
1200
0800
0C00
0000
ENDCHAR
STARTCHAR E76C
ENCODING 59244
SWIDTH 1107 0
DWIDTH 10 0
BBX 10 20 0 0
BITMAP
0000
0000
0000
0000
0000
0000
2EC0
AA80
AA00
A000
C200
4000
5000
5B00
16C0
0000
0000
0000
0000
0000
ENDCHAR
STARTCHAR E76D
ENCODING 59245
SWIDTH 1107 0
DWIDTH 10 0
BBX 10 20 0 0
BITMAP
0000
0000
0000
0C00
3580
7100
8C40
E5C0
7380
9E40
EDC0
7380
9E40
EDC0
7380
1E00
0C00
0000
0000
0000
ENDCHAR
STARTCHAR E76E
ENCODING 59246
SWIDTH 1107 0
DWIDTH 10 0
BBX 10 20 0 0
BITMAP
0000
0000
1200
1000
0000
0080
1180
0880
08C0
0880
8980
0080
08C0
1040
7900
0100
0100
0100
0400
0200
ENDCHAR
STARTCHAR E76F
ENCODING 59247
SWIDTH 1107 0
DWIDTH 10 0
BBX 10 20 0 0
BITMAP
0000
0000
C0C0
E1C0
E1C0
E1C0
E1C0
E1C0
EDC0
EDC0
F3C0
FFC0
FFC0
FFC0
FFC0
F3C0
F3C0
E1C0
E1C0
0000
ENDCHAR
STARTCHAR E770
ENCODING 59248
SWIDTH 1107 0
DWIDTH 10 0
BBX 10 20 0 0
BITMAP
0000
0000
3F00
7380
FFC0
DEC0
A140
FFC0
7F80
7F80
7F80
AD40
BF40
DEC0
6180
3F00
0C00
2000
7F80
2000
ENDCHAR
STARTCHAR E771
ENCODING 59249
SWIDTH 1107 0
DWIDTH 10 0
BBX 10 20 0 0
BITMAP
0000
0000
1E00
3F00
7F80
7F80
FFC0
FFC0
F3C0
E1C0
E1C0
E1C0
E1C0
F3C0
F3C0
F3C0
7380
7380
2100
0000
ENDCHAR
STARTCHAR E772
ENCODING 59250
SWIDTH 1107 0
DWIDTH 10 0
BBX 10 20 0 0
BITMAP
0000
0000
13C0
73C0
F3C0
F3C0
F3C0
F1C0
F9C0
F980
F880
FC00
7C00
7E00
7E00
7E00
3E00
1C00
1C00
0000
ENDCHAR
STARTCHAR E773
ENCODING 59251
SWIDTH 1107 0
DWIDTH 10 0
BBX 10 20 0 0
BITMAP
0000
0000
0000
0C00
1C00
0D00
03C0
01C0
00C0
C0C0
C0C0
C0C0
C0C0
C0C0
C0C0
F3C0
FFC0
3F00
3F00
0C00
ENDCHAR
STARTCHAR E774
ENCODING 59252
SWIDTH 1107 0
DWIDTH 10 0
BBX 10 20 0 0
BITMAP
0000
0000
3000
3800
1C00
1E00
1E00
3F00
6380
E1C0
F1C0
F8C0
8040
8040
F8C0
F1C0
E1C0
7380
3F00
0C00
ENDCHAR
STARTCHAR E775
ENCODING 59253
SWIDTH 1107 0
DWIDTH 10 0
BBX 10 20 0 0
BITMAP
0000
0000
0000
0000
0000
0000
0C00
0000
7DC0
FBC0
2E40
80C0
82C0
8040
0000
0000
0000
0000
0000
0000
ENDCHAR
STARTCHAR E776
ENCODING 59254
SWIDTH 1107 0
DWIDTH 10 0
BBX 10 20 0 0
BITMAP
0000
0000
0000
0000
0000
0000
0000
0000
0000
0000
5580
F140
4740
0000
0000
0000
0000
0000
0000
0000
ENDCHAR
STARTCHAR E777
ENCODING 59255
SWIDTH 1107 0
DWIDTH 10 0
BBX 10 20 0 0
BITMAP
0000
0000
0000
0000
B000
D000
F800
7C00
6FC0
7DC0
3E00
3FC0
6EC0
6F00
7B00
D180
9180
0000
0000
0000
ENDCHAR
STARTCHAR E778
ENCODING 59256
SWIDTH 1107 0
DWIDTH 10 0
BBX 10 20 0 0
BITMAP
0000
0000
0000
0000
0000
0000
FBC0
F7C0
17C0
2300
6700
6700
4000
F600
F400
0000
0000
0000
0000
0000
ENDCHAR
STARTCHAR E779
ENCODING 59257
SWIDTH 1107 0
DWIDTH 10 0
BBX 10 20 0 0
BITMAP
0000
0000
7180
8000
8100
1B00
3500
0380
C8C0
4900
1100
0400
A800
0000
0300
0300
0800
0800
0600
0000
ENDCHAR
STARTCHAR E77A
ENCODING 59258
SWIDTH 1107 0
DWIDTH 10 0
BBX 10 20 0 0
BITMAP
0000
0000
3F00
7F80
FFC0
FFC0
7F80
7F80
7380
7780
FFC0
FFC0
0000
0000
1200
7F80
FFC0
F3C0
F3C0
4080
ENDCHAR
STARTCHAR E77B
ENCODING 59259
SWIDTH 1107 0
DWIDTH 10 0
BBX 10 20 0 0
BITMAP
0000
0000
60C0
60C0
61C0
6000
6000
7FC0
7FC0
70C0
00C0
00C0
00C0
00C0
00C0
40C0
60C0
40C0
00C0
00C0
ENDCHAR
STARTCHAR E77C
ENCODING 59260
SWIDTH 1107 0
DWIDTH 10 0
BBX 10 20 0 0
BITMAP
0000
0000
0000
0800
3400
0100
1000
0300
1200
18C0
1A00
1A00
2000
0C00
2A00
A000
1000
C200
4000
0C00
ENDCHAR
STARTCHAR E77D
ENCODING 59261
SWIDTH 1107 0
DWIDTH 10 0
BBX 10 20 0 0
BITMAP
0000
0000
1E00
3180
60C0
C040
8040
0840
0000
1040
1040
0000
0500
0000
8000
8000
4000
2000
0000
0C00
ENDCHAR
STARTCHAR E77E
ENCODING 59262
SWIDTH 1107 0
DWIDTH 10 0
BBX 10 20 0 0
BITMAP
0000
0000
FFC0
FFC0
8040
BF40
AD40
9E40
FFC0
FFC0
FFC0
FFC0
FFC0
FFC0
EDC0
EDC0
EDC0
FFC0
FFC0
FFC0
ENDCHAR
STARTCHAR E77F
ENCODING 59263
SWIDTH 1107 0
DWIDTH 10 0
BBX 10 20 0 0
BITMAP
0000
0000
0000
0000
0000
0000
0000
3CC0
7DC0
6DC0
ED80
CD80
CD80
CF00
0000
0000
0000
0000
0000
0000
ENDCHAR
STARTCHAR E780
ENCODING 59264
SWIDTH 1107 0
DWIDTH 10 0
BBX 10 20 0 0
BITMAP
0000
0000
0000
0400
0400
0E00
1E00
1C00
3C00
7C00
FF80
EFC0
E7C0
E1C0
F1C0
D0C0
80C0
8040
80C0
4080
ENDCHAR
STARTCHAR E781
ENCODING 59265
SWIDTH 1107 0
DWIDTH 10 0
BBX 10 20 0 0
BITMAP
0000
0000
FFC0
FFC0
FFC0
FFC0
FFC0
FFC0
FFC0
FFC0
F240
F140
F1C0
F240
F240
F3C0
E140
E440
FFC0
FFC0
ENDCHAR
STARTCHAR E782
ENCODING 59266
SWIDTH 1107 0
DWIDTH 10 0
BBX 10 20 0 0
BITMAP
0000
0000
0000
00C0
F1C0
F1C0
FBC0
FFC0
FDC0
7DC0
3FC0
0EC0
0380
0700
0F00
0F00
0E00
0E00
0C00
0C00
ENDCHAR
STARTCHAR E783
ENCODING 59267
SWIDTH 1107 0
DWIDTH 10 0
BBX 10 20 0 0
BITMAP
0000
0000
0000
4800
0000
5200
0080
0040
0080
A200
2200
0900
11C0
2800
1480
1100
0280
7B00
0400
0000
ENDCHAR
STARTCHAR E784
ENCODING 59268
SWIDTH 1107 0
DWIDTH 10 0
BBX 10 20 0 0
BITMAP
0000
0000
0000
0C00
3F00
7380
F3C0
F3C0
E1C0
E1C0
C0C0
C0C0
8040
C0C0
8040
8C40
FFC0
7380
3F00
0C00
ENDCHAR
STARTCHAR E785
ENCODING 59269
SWIDTH 1107 0
DWIDTH 10 0
BBX 10 20 0 0
BITMAP
0000
0000
0000
0C00
0C00
0C00
1E00
1E00
5E80
1E00
1E00
3F00
7F80
3F00
7F80
FFC0
3300
E1C0
4080
2100
ENDCHAR
STARTCHAR E786
ENCODING 59270
SWIDTH 1107 0
DWIDTH 10 0
BBX 10 20 0 0
BITMAP
0000
0000
0000
0000
0000
3E00
5600
8200
8980
8440
8240
8700
83C0
8A40
8480
4800
0800
2800
0000
0000
ENDCHAR
STARTCHAR E787
ENCODING 59271
SWIDTH 1107 0
DWIDTH 10 0
BBX 10 20 0 0
BITMAP
0000
0000
FF80
83C0
0F80
0000
0000
0000
8040
FFC0
1E00
0000
0000
C0C0
7F80
0000
0000
0000
F3C0
1E00
ENDCHAR
STARTCHAR E788
ENCODING 59272
SWIDTH 1107 0
DWIDTH 10 0
BBX 10 20 0 0
BITMAP
0000
0000
0000
0800
0E00
3F80
3FC0
7FC0
FFC0
01C0
01C0
00C0
00C0
01C0
F3C0
7780
3F80
3E00
0000
0000
ENDCHAR
STARTCHAR E789
ENCODING 59273
SWIDTH 1107 0
DWIDTH 10 0
BBX 10 20 0 0
BITMAP
0000
0000
1E00
7380
6180
4080
8040
8040
9340
A440
A440
A440
BB40
8040
8040
C040
6180
7180
1E00
0C00
ENDCHAR
STARTCHAR E78A
ENCODING 59274
SWIDTH 1107 0
DWIDTH 10 0
BBX 10 20 0 0
BITMAP
0000
0000
0000
0000
0000
0000
0000
0000
0200
3200
E680
62C0
B340
0000
0000
0000
0000
0000
0000
0000
ENDCHAR
STARTCHAR E78B
ENCODING 59275
SWIDTH 1107 0
DWIDTH 10 0
BBX 10 20 0 0
BITMAP
0000
0000
1200
6180
0000
0000
8040
7780
7500
7500
7500
7500
4500
4500
8040
8040
0000
4080
1200
0C00
ENDCHAR
STARTCHAR E78C
ENCODING 59276
SWIDTH 1107 0
DWIDTH 10 0
BBX 10 20 0 0
BITMAP
0000
0000
0000
2000
4000
C000
E000
F000
FC00
FF00
FF80
FFC0
FFC0
7FC0
1FC0
07C0
01C0
00C0
0080
0100
ENDCHAR
STARTCHAR E78D
ENCODING 59277
SWIDTH 1107 0
DWIDTH 10 0
BBX 10 20 0 0
BITMAP
0000
0000
0000
0000
0000
0000
0000
2080
2480
7E00
7E80
7EC0
7FC0
FE00
C400
3400
0000
0000
0000
0000
ENDCHAR
STARTCHAR E78E
ENCODING 59278
SWIDTH 1107 0
DWIDTH 10 0
BBX 10 20 0 0
BITMAP
0000
0000
0C00
0C00
7F80
7F80
6380
6180
6180
4080
C0C0
C0C0
C0C0
4C80
6D80
5E80
1E00
3F00
7F80
0000
ENDCHAR
STARTCHAR E78F
ENCODING 59279
SWIDTH 1107 0
DWIDTH 10 0
BBX 10 20 0 0
BITMAP
0000
0000
0000
0000
0000
0000
0000
0000
0000
0000
0000
0000
0000
0000
0000
0000
0000
0000
0000
0000
ENDCHAR
STARTCHAR E790
ENCODING 59280
SWIDTH 1107 0
DWIDTH 10 0
BBX 10 20 0 0
BITMAP
0000
0000
0000
0000
0000
0000
0000
0000
0000
0000
C0C0
C080
0000
0000
0000
0000
0000
0000
0000
0000
ENDCHAR
STARTCHAR E791
ENCODING 59281
SWIDTH 1107 0
DWIDTH 10 0
BBX 10 20 0 0
BITMAP
0000
0000
0DC0
1FC0
1EC0
3C40
7C40
7C00
7FC0
FBC0
F1C0
E1C0
E1C0
11C0
9DC0
9FC0
9C40
FC40
FF80
6000
ENDCHAR
STARTCHAR E792
ENCODING 59282
SWIDTH 1107 0
DWIDTH 10 0
BBX 10 20 0 0
BITMAP
0000
0000
0000
0000
0000
7000
1A00
6E80
1F00
7D80
FFC0
73C0
15C0
0900
3040
C000
0000
0000
0000
0000
ENDCHAR
STARTCHAR E793
ENCODING 59283
SWIDTH 1107 0
DWIDTH 10 0
BBX 10 20 0 0
BITMAP
0000
0000
0040
0040
0F00
1E80
3F80
7D80
7F80
7F80
7B80
F780
FF80
FF80
FF80
FF00
FE00
FE00
FC00
C000
ENDCHAR
STARTCHAR E794
ENCODING 59284
SWIDTH 1107 0
DWIDTH 10 0
BBX 10 20 0 0
BITMAP
0000
0000
0000
0000
0000
3800
8800
F800
6400
C800
0800
8000
8000
2000
C000
D780
9780
DFC0
0000
0000
ENDCHAR
STARTCHAR E795
ENCODING 59285
SWIDTH 1107 0
DWIDTH 10 0
BBX 10 20 0 0
BITMAP
0000
0000
0000
FFC0
FFC0
FFC0
9FC0
9FC0
CFC0
EFC0
CFC0
9FC0
91C0
FFC0
FFC0
FFC0
FFC0
FFC0
0000
0000
ENDCHAR
STARTCHAR E796
ENCODING 59286
SWIDTH 1107 0
DWIDTH 10 0
BBX 10 20 0 0
BITMAP
0000
0000
0000
0000
0000
2500
6580
6580
4480
8C40
8C40
8C40
4880
6980
6980
2100
0000
0000
0000
0000
ENDCHAR
STARTCHAR E797
ENCODING 59287
SWIDTH 1107 0
DWIDTH 10 0
BBX 10 20 0 0
BITMAP
0000
0000
0000
0000
0000
8000
0000
0000
0000
01C0
81C0
0000
0000
0000
0000
0000
0000
0000
0000
0000
ENDCHAR
STARTCHAR E798
ENCODING 59288
SWIDTH 1107 0
DWIDTH 10 0
BBX 10 20 0 0
BITMAP
0000
0000
0C00
0E00
1E00
3F00
7E80
7F80
7FC0
FFC0
FFC0
FFC0
FFC0
7FC0
7FC0
2FC0
1FC0
1F80
0F80
0F80
ENDCHAR
STARTCHAR E799
ENCODING 59289
SWIDTH 1107 0
DWIDTH 10 0
BBX 10 20 0 0
BITMAP
0000
0C00
0C00
6D80
7F80
7F80
7380
6180
E1C0
E1C0
E1C0
6180
6180
7380
7F80
7F80
4C80
0C00
0C00
0000
ENDCHAR
STARTCHAR E79A
ENCODING 59290
SWIDTH 1107 0
DWIDTH 10 0
BBX 10 20 0 0
BITMAP
0000
0000
0000
0000
0000
0000
0000
0000
0000
0000
0800
1AC0
0600
0000
0000
0000
0000
0000
0000
0000
ENDCHAR
STARTCHAR E79B
ENCODING 59291
SWIDTH 1107 0
DWIDTH 10 0
BBX 10 20 0 0
BITMAP
0000
0000
0000
1E00
3180
C040
8040
E180
9B00
8E00
8400
8400
8400
8400
8400
8400
8440
6480
1500
0E00
ENDCHAR
STARTCHAR E79C
ENCODING 59292
SWIDTH 1107 0
DWIDTH 10 0
BBX 10 20 0 0
BITMAP
0000
0000
FFC0
0000
0000
0000
0000
7000
4000
4680
4680
4680
5280
7100
0000
0000
0000
0000
FFC0
FFC0
ENDCHAR
STARTCHAR E79D
ENCODING 59293
SWIDTH 1107 0
DWIDTH 10 0
BBX 10 20 0 0
BITMAP
0000
0000
FFC0
FFC0
8040
8040
F3C0
F3C0
E1C0
E1C0
E1C0
E1C0
E1C0
F3C0
F3C0
8040
8040
FFC0
FFC0
0000
ENDCHAR
STARTCHAR E79E
ENCODING 59294
SWIDTH 1107 0
DWIDTH 10 0
BBX 10 20 0 0
BITMAP
0000
0000
1000
3F00
5F80
3F80
FFC0
FFC0
8000
FFC0
0000
FFC0
8000
FFC0
FFC0
3F80
7F80
3F00
1C00
0000
ENDCHAR
STARTCHAR E79F
ENCODING 59295
SWIDTH 1107 0
DWIDTH 10 0
BBX 10 20 0 0
BITMAP
0000
0000
0000
0000
0000
0C00
1E00
1200
6000
E5C0
F1C0
F3C0
FBC0
F3C0
F3C0
7F80
0000
0000
0000
0000
ENDCHAR
STARTCHAR E7A0
ENCODING 59296
SWIDTH 1107 0
DWIDTH 10 0
BBX 10 20 0 0
BITMAP
0000
0000
0000
0000
E000
8000
1C00
BE00
E200
6100
6100
6100
6100
0200
0600
FFC0
FFC0
0000
0000
0000
ENDCHAR
STARTCHAR E7A1
ENCODING 59297
SWIDTH 1107 0
DWIDTH 10 0
BBX 10 20 0 0
BITMAP
0000
6D80
7F80
7F80
0C00
0C00
0580
0080
BC40
CCC0
FFC0
B340
FFC0
FFC0
FFC0
BF40
3300
0000
0000
0000
ENDCHAR
STARTCHAR E7A2
ENCODING 59298
SWIDTH 1107 0
DWIDTH 10 0
BBX 10 20 0 0
BITMAP
0000
0000
0000
0000
0000
C000
E000
E000
7000
7000
3800
3000
7000
6000
E000
C7C0
87C0
0000
0000
0000
ENDCHAR
STARTCHAR E7A3
ENCODING 59299
SWIDTH 1107 0
DWIDTH 10 0
BBX 10 20 0 0
BITMAP
0000
0000
FF00
8180
80C0
80C0
8040
8040
9640
A540
8C40
A940
9A40
9A40
8040
8040
8040
8040
FFC0
FFC0
ENDCHAR
STARTCHAR E7A4
ENCODING 59300
SWIDTH 1107 0
DWIDTH 10 0
BBX 10 20 0 0
BITMAP
0040
0040
0040
0040
0040
0040
0040
0040
0040
0040
0040
0040
0040
0040
0040
0040
0040
0040
0040
0040
ENDCHAR
STARTCHAR E7A5
ENCODING 59301
SWIDTH 1107 0
DWIDTH 10 0
BBX 10 20 0 0
BITMAP
0000
0000
0000
8000
4000
0800
2400
5000
0280
ABC0
5540
0280
2BC0
1D40
0480
0AC0
0700
0000
0000
0000
ENDCHAR
STARTCHAR E7A6
ENCODING 59302
SWIDTH 1107 0
DWIDTH 10 0
BBX 10 20 0 0
BITMAP
0000
0000
0000
0000
0000
0000
0000
0000
0000
7440
E4C0
6400
0000
0000
0000
0000
0000
0000
0000
0000
ENDCHAR
STARTCHAR E7A7
ENCODING 59303
SWIDTH 1107 0
DWIDTH 10 0
BBX 10 20 0 0
BITMAP
0000
0000
0C00
0C00
1E00
1E00
3300
7380
6980
E9C0
D8C0
F9C0
6980
7B80
3300
1E00
1E00
0C00
0C00
0000
ENDCHAR
STARTCHAR E7A8
ENCODING 59304
SWIDTH 1107 0
DWIDTH 10 0
BBX 10 20 0 0
BITMAP
0000
0000
0000
0C00
3700
6D80
6180
7E80
FE40
D3C0
9E40
9E40
9240
FBC0
FBC0
4080
E1C0
6180
3F00
0C00
ENDCHAR
STARTCHAR E7A9
ENCODING 59305
SWIDTH 1107 0
DWIDTH 10 0
BBX 10 20 0 0
BITMAP
0000
0000
0000
0080
0080
0000
0000
0C00
1E00
1E00
1E00
1E00
1E00
0C00
0000
8040
0000
4080
0000
0C00
ENDCHAR
STARTCHAR E7AA
ENCODING 59306
SWIDTH 1107 0
DWIDTH 10 0
BBX 10 20 0 0
BITMAP
0000
0000
FFC0
FFC0
FFC0
FFC0
F3C0
EDC0
EFC0
EFC0
F3C0
FDC0
FDC0
EDC0
F1C0
FFC0
FFC0
FFC0
FFC0
FFC0
ENDCHAR
STARTCHAR E7AB
ENCODING 59307
SWIDTH 1107 0
DWIDTH 10 0
BBX 10 20 0 0
BITMAP
0000
0000
0000
0C00
0C00
0C00
0E00
1E00
1E00
0200
3D00
3D00
6180
6D80
6D80
E0C0
FFC0
FFC0
0000
0000
ENDCHAR
STARTCHAR E7AC
ENCODING 59308
SWIDTH 1107 0
DWIDTH 10 0
BBX 10 20 0 0
BITMAP
0000
0000
0000
0F00
1080
0040
4C40
1C40
9E40
9E40
9E40
9E40
9E40
8C80
8C80
C080
6780
7C00
0000
0000
ENDCHAR
STARTCHAR E7AD
ENCODING 59309
SWIDTH 1107 0
DWIDTH 10 0
BBX 10 20 0 0
BITMAP
0000
0000
0000
0000
06C0
0FC0
0FC0
0FC0
D800
7400
FC00
FC00
DC00
7000
7000
7000
7000
2000
0000
0000
ENDCHAR
STARTCHAR E7AE
ENCODING 59310
SWIDTH 1107 0
DWIDTH 10 0
BBX 10 20 0 0
BITMAP
0000
0000
0000
0000
0000
0000
0000
3800
7600
4600
C500
8040
0340
8000
F800
7540
0000
0000
0000
0000
ENDCHAR
STARTCHAR E7AF
ENCODING 59311
SWIDTH 1107 0
DWIDTH 10 0
BBX 10 20 0 0
BITMAP
0000
0000
0000
0000
FFC0
FFC0
83C0
8040
F040
F840
F840
F9C0
F9C0
E3C0
83C0
FFC0
FFC0
0000
0000
0000
ENDCHAR
STARTCHAR E7B0
ENCODING 59312
SWIDTH 1107 0
DWIDTH 10 0
BBX 10 20 0 0
BITMAP
0000
0000
0000
0000
0000
0C00
0C00
1480
1400
1480
FF40
4000
8000
0000
0000
1C00
0000
0000
0000
0000
ENDCHAR
STARTCHAR E7B1
ENCODING 59313
SWIDTH 1107 0
DWIDTH 10 0
BBX 10 20 0 0
BITMAP
0000
0000
0000
0000
0000
8C40
0C00
0C00
0000
0000
1FC0
0FC0
0FC0
0F40
8E00
8640
0000
0000
0000
0000
ENDCHAR
STARTCHAR E7B2
ENCODING 59314
SWIDTH 1107 0
DWIDTH 10 0
BBX 10 20 0 0
BITMAP
0000
0000
0000
3F00
7F80
7F80
6180
6180
EDC0
CCC0
4C80
CCC0
EDC0
E1C0
6180
7F80
7F80
3F00
1E00
0000
ENDCHAR
STARTCHAR E7B3
ENCODING 59315
SWIDTH 1107 0
DWIDTH 10 0
BBX 10 20 0 0
BITMAP
0000
0000
1E00
7F80
7F80
7F80
FFC0
C0C0
C0C0
A140
8040
D2C0
F2C0
D2C0
D2C0
F3C0
7F80
7F80
1E00
0C00
ENDCHAR
STARTCHAR E7B4
ENCODING 59316
SWIDTH 1107 0
DWIDTH 10 0
BBX 10 20 0 0
BITMAP
0000
0000
FFC0
0000
0000
0000
1200
1800
1A00
1A00
1E00
1E00
0600
2600
0000
0000
0000
0000
FFC0
0000
ENDCHAR
STARTCHAR E7B5
ENCODING 59317
SWIDTH 1107 0
DWIDTH 10 0
BBX 10 20 0 0
BITMAP
0000
0000
FEC0
FFC0
FFC0
FFC0
0FC0
0FC0
CFC0
EFC0
EFC0
EFC0
EDC0
1DC0
1DC0
FDC0
F9C0
F1C0
F0C0
4000
ENDCHAR
STARTCHAR E7B6
ENCODING 59318
SWIDTH 1107 0
DWIDTH 10 0
BBX 10 20 0 0
BITMAP
0000
0000
0000
0000
0000
0000
3300
3200
3600
2600
6600
7640
64C0
6CC0
4CC0
0000
0000
0000
0000
0000
ENDCHAR
STARTCHAR E7B7
ENCODING 59319
SWIDTH 1107 0
DWIDTH 10 0
BBX 10 20 0 0
BITMAP
0000
0000
0C00
1F00
3F80
7380
61C0
6000
C180
C180
E1C0
4040
00C0
80C0
C1C0
F180
3F80
1F00
0E00
0000
ENDCHAR
STARTCHAR E7B8
ENCODING 59320
SWIDTH 1107 0
DWIDTH 10 0
BBX 10 20 0 0
BITMAP
0000
0000
FFC0
0000
0000
0000
3000
2800
2A00
2800
3200
2100
2200
0000
0000
0000
0000
0000
FFC0
0000
ENDCHAR
STARTCHAR E7B9
ENCODING 59321
SWIDTH 1107 0
DWIDTH 10 0
BBX 10 20 0 0
BITMAP
0000
0000
0000
0C00
0C00
0C00
1E00
1E00
1E00
0200
3D00
3D00
6180
6D80
6D80
E0C0
FFC0
FFC0
0000
0000
ENDCHAR
STARTCHAR E7BA
ENCODING 59322
SWIDTH 1107 0
DWIDTH 10 0
BBX 10 20 0 0
BITMAP
0000
0000
0000
3300
4C00
4C80
0000
3F00
F380
AD40
0C00
2D00
B340
7F80
0000
4C80
4C80
2100
0000
0000
ENDCHAR
STARTCHAR E7BB
ENCODING 59323
SWIDTH 1107 0
DWIDTH 10 0
BBX 10 20 0 0
BITMAP
0000
0000
0000
1E00
3F00
6380
7980
E1C0
80C0
9840
8C40
C040
C040
C0C0
2FC0
01C0
0140
0000
0200
0000
ENDCHAR
STARTCHAR E7BC
ENCODING 59324
SWIDTH 1107 0
DWIDTH 10 0
BBX 10 20 0 0
BITMAP
0000
0000
1E00
7F80
7F80
7F80
FFC0
D5C0
FFC0
BFC0
BDC0
BEC0
BF40
DFC0
ECC0
FFC0
7F80
7F80
1E00
0C00
ENDCHAR
STARTCHAR E7BD
ENCODING 59325
SWIDTH 1107 0
DWIDTH 10 0
BBX 10 20 0 0
BITMAP
0000
0000
0000
0000
0000
0000
0000
0000
0000
0000
0000
0000
0000
0000
0000
0000
0000
0000
0000
0000
ENDCHAR
STARTCHAR E7BE
ENCODING 59326
SWIDTH 1107 0
DWIDTH 10 0
BBX 10 20 0 0
BITMAP
0000
0000
0000
0000
0000
0000
0000
0000
0000
0000
0000
0000
0000
0000
0000
0000
0000
0000
0000
0000
ENDCHAR
STARTCHAR E7BF
ENCODING 59327
SWIDTH 1107 0
DWIDTH 10 0
BBX 10 20 0 0
BITMAP
0000
0000
0000
0000
0000
0000
0000
0000
0000
0000
0000
0000
0000
0000
0000
0000
0000
0000
0000
0000
ENDCHAR
STARTCHAR E7C0
ENCODING 59328
SWIDTH 1107 0
DWIDTH 10 0
BBX 10 20 0 0
BITMAP
0000
0000
0000
0000
0000
0000
0000
0000
0000
0000
0000
0000
0000
0000
0000
0000
0000
0000
0000
0000
ENDCHAR
STARTCHAR E7C1
ENCODING 59329
SWIDTH 1107 0
DWIDTH 10 0
BBX 10 20 0 0
BITMAP
0000
0000
0000
0000
0000
0000
0000
0000
0000
0000
0000
0000
0000
0000
0000
0000
0000
0000
0000
0000
ENDCHAR
STARTCHAR E7C2
ENCODING 59330
SWIDTH 1107 0
DWIDTH 10 0
BBX 10 20 0 0
BITMAP
0000
0000
0000
0000
0000
0000
0000
0000
0000
0000
0000
0000
0000
0000
0000
0000
0000
0000
0000
0000
ENDCHAR
STARTCHAR E7C3
ENCODING 59331
SWIDTH 1107 0
DWIDTH 10 0
BBX 10 20 0 0
BITMAP
0000
0000
0000
0000
0000
0000
0000
0000
0000
0000
0000
0000
0000
0000
0000
0000
0000
0000
0000
0000
ENDCHAR
STARTCHAR E7C4
ENCODING 59332
SWIDTH 1107 0
DWIDTH 10 0
BBX 10 20 0 0
BITMAP
0040
0040
0040
0040
0040
0040
0040
0040
0040
0040
0040
0040
0040
0040
0040
0040
0040
0040
0040
0040
ENDCHAR
STARTCHAR E7C5
ENCODING 59333
SWIDTH 1107 0
DWIDTH 10 0
BBX 10 20 0 0
BITMAP
0000
0000
F7C0
F3C0
E380
E780
E700
EE00
FE00
FC00
F840
FE00
F4C0
E5C0
E6C0
C3C0
4400
0000
0000
0000
ENDCHAR
STARTCHAR EA60
ENCODING 60000
SWIDTH 1107 0
DWIDTH 10 0
BBX 10 20 0 0
BITMAP
0000
0000
0C00
0C00
0C00
0C00
0C00
0C00
0C00
0C00
FFC0
0C00
0C00
0C00
0C00
0C00
0C00
0C00
0C00
0C00
ENDCHAR
STARTCHAR EA61
ENCODING 60001
SWIDTH 1107 0
DWIDTH 10 0
BBX 10 20 0 0
BITMAP
0000
0000
3F80
7FC0
7FC0
7FC0
7FC0
7FC0
7FC0
7FC0
7FC0
7F80
3F80
1F00
1100
1100
1100
1F00
0000
0000
ENDCHAR
STARTCHAR EA62
ENCODING 60002
SWIDTH 1107 0
DWIDTH 10 0
BBX 10 20 0 0
BITMAP
0000
0000
FFC0
C040
E040
C040
C040
E040
C040
E040
E040
C040
C040
FFC0
8040
8040
B840
FBC0
2800
2000
ENDCHAR
STARTCHAR EA63
ENCODING 60003
SWIDTH 1107 0
DWIDTH 10 0
BBX 10 20 0 0
BITMAP
0000
E1C0
B340
9240
B340
E1C0
4080
4080
2100
3300
0C00
0C00
0C00
0C00
0C00
1200
1200
0C00
0C00
0000
ENDCHAR
STARTCHAR EA64
ENCODING 60004
SWIDTH 1107 0
DWIDTH 10 0
BBX 10 20 0 0
BITMAP
0000
0000
E000
2400
3F00
2C80
E480
4080
4080
4080
4080
4080
4080
4080
E1C0
2100
3300
2100
E1C0
4080
ENDCHAR
STARTCHAR EA65
ENCODING 60005
SWIDTH 1107 0
DWIDTH 10 0
BBX 10 20 0 0
BITMAP
0000
0000
0000
0000
FFC0
FFC0
0000
5E80
5E80
0000
6180
0000
0000
5E80
0000
FFC0
FFC0
0000
0000
0000
ENDCHAR
STARTCHAR EA66
ENCODING 60006
SWIDTH 1107 0
DWIDTH 10 0
BBX 10 20 0 0
BITMAP
0000
0000
0000
0F80
0080
1180
0180
20C0
40C0
0080
8180
0100
8240
8240
4440
6F80
2800
1000
0000
0000
ENDCHAR
STARTCHAR EA67
ENCODING 60007
SWIDTH 1107 0
DWIDTH 10 0
BBX 10 20 0 0
BITMAP
0040
0040
0040
0040
0040
0040
0040
0040
0040
0040
0040
0040
0040
0040
0040
0040
0040
0040
0040
0040
ENDCHAR
STARTCHAR EA68
ENCODING 60008
SWIDTH 1107 0
DWIDTH 10 0
BBX 10 20 0 0
BITMAP
0000
0000
E000
9000
1000
91C0
E240
2200
2240
21C0
2180
2100
3E00
2000
E000
9000
1000
9000
E000
6000
ENDCHAR
STARTCHAR EA69
ENCODING 60009
SWIDTH 1107 0
DWIDTH 10 0
BBX 10 20 0 0
BITMAP
0000
0000
0000
0C00
1E00
2D00
6C80
9E40
1200
2100
7F80
7F80
2100
1200
0C00
0C00
1200
6180
4080
8040
ENDCHAR
STARTCHAR EA6A
ENCODING 60010
SWIDTH 1107 0
DWIDTH 10 0
BBX 10 20 0 0
BITMAP
0000
0000
0000
0C00
0C00
0C00
0C00
0C00
FFC0
F3C0
6180
3300
1200
1200
1E00
1E00
3300
2100
2100
0000
ENDCHAR
STARTCHAR EA6B
ENCODING 60011
SWIDTH 1107 0
DWIDTH 10 0
BBX 10 20 0 0
BITMAP
0000
0000
FFC0
FFC0
0000
0000
0000
0000
0000
0000
0000
0000
0000
0000
EFC0
2000
3000
2000
2000
0000
ENDCHAR
STARTCHAR EA6C
ENCODING 60012
SWIDTH 1107 0
DWIDTH 10 0
BBX 10 20 0 0
BITMAP
0000
0000
0C00
0C00
0C00
0000
1200
1200
1200
0C00
2D00
2D00
4C80
4C80
0000
8C40
8040
8040
FFC0
0000
ENDCHAR
STARTCHAR EA6D
ENCODING 60013
SWIDTH 1107 0
DWIDTH 10 0
BBX 10 20 0 0
BITMAP
0000
0000
0000
0F00
08C0
1040
3000
2000
2000
2000
2000
1000
1040
1880
3700
2000
4000
4000
8000
0000
ENDCHAR
STARTCHAR EA6E
ENCODING 60014
SWIDTH 1107 0
DWIDTH 10 0
BBX 10 20 0 0
BITMAP
0000
0000
FF00
E100
F100
9000
8080
8080
8040
87C0
8040
8080
8180
8000
8100
8100
8F00
EE00
3000
0000
ENDCHAR
STARTCHAR EA6F
ENCODING 60015
SWIDTH 1107 0
DWIDTH 10 0
BBX 10 20 0 0
BITMAP
0000
0000
FF00
E100
F100
9000
8000
8200
8200
87C0
8400
8200
8200
8000
8100
8100
8F00
EE00
3000
0000
ENDCHAR
STARTCHAR EA70
ENCODING 60016
SWIDTH 1107 0
DWIDTH 10 0
BBX 10 20 0 0
BITMAP
0000
0000
0000
0000
0000
0C00
3F00
6180
4080
9E40
9240
9240
1200
1200
1E00
0C00
0000
0000
0000
0000
ENDCHAR
STARTCHAR EA71
ENCODING 60017
SWIDTH 1107 0
DWIDTH 10 0
BBX 10 20 0 0
BITMAP
0000
0000
1E00
7F80
7F80
7F80
FFC0
FFC0
FFC0
FFC0
FFC0
FFC0
FFC0
FFC0
FFC0
FFC0
7F80
7F80
1E00
0C00
ENDCHAR
STARTCHAR EA72
ENCODING 60018
SWIDTH 1107 0
DWIDTH 10 0
BBX 10 20 0 0
BITMAP
0000
0000
FFC0
FFC0
8040
8040
8040
8040
8040
8040
8040
8040
8040
8040
8040
8040
8040
8040
FFC0
FFC0
ENDCHAR
STARTCHAR EA73
ENCODING 60019
SWIDTH 1107 0
DWIDTH 10 0
BBX 10 20 0 0
BITMAP
0000
0000
0000
01C0
0140
0200
0240
0440
0C80
0980
1100
1200
2200
6400
6C00
6800
9000
B000
E000
C000
ENDCHAR
STARTCHAR EA74
ENCODING 60020
SWIDTH 1107 0
DWIDTH 10 0
BBX 10 20 0 0
BITMAP
0000
1E00
2100
4080
0000
8040
8C40
8040
0C00
0C00
0C00
8C40
8C40
8040
0000
4080
6180
1E00
0C00
0000
ENDCHAR
STARTCHAR EA75
ENCODING 60021
SWIDTH 1107 0
DWIDTH 10 0
BBX 10 20 0 0
BITMAP
0000
0000
1E00
3300
2100
0000
0000
0000
0000
FFC0
FFC0
8040
8040
8040
8040
8040
8040
8040
FFC0
FFC0
ENDCHAR
STARTCHAR EA76
ENCODING 60022
SWIDTH 1107 0
DWIDTH 10 0
BBX 10 20 0 0
BITMAP
0000
0000
8040
8040
C0C0
6180
6180
3300
1200
1E00
0C00
0C00
1E00
1200
3300
6180
6180
C0C0
8040
8040
ENDCHAR
STARTCHAR EA77
ENCODING 60023
SWIDTH 1107 0
DWIDTH 10 0
BBX 10 20 0 0
BITMAP
0000
0000
0000
0000
1E00
1200
2100
0080
0080
4100
E1C0
A080
4000
4000
6180
2100
1E00
0000
0000
0000
ENDCHAR
STARTCHAR EA78
ENCODING 60024
SWIDTH 1107 0
DWIDTH 10 0
BBX 10 20 0 0
BITMAP
0000
0000
FFC0
FFC0
0000
0000
0000
0000
0000
0100
0100
0100
0100
0100
0100
F140
1B00
1D80
3D00
0000
ENDCHAR
STARTCHAR EA79
ENCODING 60025
SWIDTH 1107 0
DWIDTH 10 0
BBX 10 20 0 0
BITMAP
0000
0000
3F00
1200
1200
1200
1200
1200
1200
1200
3300
2100
2100
3F00
4080
4080
8040
8040
FFC0
FFC0
ENDCHAR
STARTCHAR EA7A
ENCODING 60026
SWIDTH 1107 0
DWIDTH 10 0
BBX 10 20 0 0
BITMAP
0000
0000
FFC0
FFC0
0000
0000
0000
0000
0000
0000
0000
0000
0000
0000
0000
FFC0
0C00
0C00
3F00
0000
ENDCHAR
STARTCHAR EA7B
ENCODING 60027
SWIDTH 1107 0
DWIDTH 10 0
BBX 10 20 0 0
BITMAP
0000
0000
FE00
0300
0280
0240
0200
03C0
0000
0000
0000
0000
0000
0000
0000
0000
0000
0000
FFC0
FFC0
ENDCHAR
STARTCHAR EA7C
ENCODING 60028
SWIDTH 1107 0
DWIDTH 10 0
BBX 10 20 0 0
BITMAP
0000
0000
0000
0000
0000
0000
0000
0000
0000
8C40
8C40
8C40
0000
0000
0000
0000
0000
0000
0000
0000
ENDCHAR
STARTCHAR EA7D
ENCODING 60029
SWIDTH 1107 0
DWIDTH 10 0
BBX 10 20 0 0
BITMAP
0000
0000
0000
2000
2000
4000
C000
8000
F800
8700
C100
4080
20C0
3040
0040
0040
0040
0040
0040
0000
ENDCHAR
STARTCHAR EA7E
ENCODING 60030
SWIDTH 1107 0
DWIDTH 10 0
BBX 10 20 0 0
BITMAP
0000
0C00
7380
3300
6D80
6D80
DEC0
DEC0
0000
0000
0000
8040
8040
9240
9240
F3C0
7380
1E00
0C00
0000
ENDCHAR
STARTCHAR EA7F
ENCODING 60031
SWIDTH 1107 0
DWIDTH 10 0
BBX 10 20 0 0
BITMAP
0000
0000
FC00
0800
0A00
0900
0F00
0F00
0000
0000
0000
0000
0000
0000
0000
07C0
F000
0000
0000
0000
ENDCHAR
STARTCHAR EA80
ENCODING 60032
SWIDTH 1107 0
DWIDTH 10 0
BBX 10 20 0 0
BITMAP
0000
0000
F000
0FC0
0040
0FC0
F040
F040
0040
0000
0000
0100
0100
0100
0100
F3C0
0100
0100
0100
0100
ENDCHAR
STARTCHAR EA81
ENCODING 60033
SWIDTH 1107 0
DWIDTH 10 0
BBX 10 20 0 0
BITMAP
0000
0000
1E00
1200
FFC0
FFC0
4080
5E80
5E80
5E80
5E80
5E80
5E80
5E80
5E80
5E80
5E80
4080
7F80
3F00
ENDCHAR
STARTCHAR EA82
ENCODING 60034
SWIDTH 1107 0
DWIDTH 10 0
BBX 10 20 0 0
BITMAP
0000
1E00
6100
4080
0800
8840
E840
0840
0800
0800
0C00
0400
0240
0240
8040
4080
6180
1E00
0C00
0000
ENDCHAR
STARTCHAR EA83
ENCODING 60035
SWIDTH 1107 0
DWIDTH 10 0
BBX 10 20 0 0
BITMAP
0000
0000
0000
F000
0FC0
0000
0000
0FC0
F000
0000
0000
0000
0000
0000
0000
0000
0000
FFC0
0000
0000
ENDCHAR
STARTCHAR EA84
ENCODING 60036
SWIDTH 1107 0
DWIDTH 10 0
BBX 10 20 0 0
BITMAP
0000
0000
1E00
6180
4080
0000
8040
9E40
9E40
3F00
3F00
3F00
9E40
9E40
AC40
9C40
4C80
6D80
1E00
0C00
ENDCHAR
STARTCHAR EA85
ENCODING 60037
SWIDTH 1107 0
DWIDTH 10 0
BBX 10 20 0 0
BITMAP
0000
0000
FFC0
0000
0000
0000
0000
2000
1000
1000
0800
0800
1000
1000
2700
2700
0000
0000
FFC0
FFC0
ENDCHAR
STARTCHAR EA86
ENCODING 60038
SWIDTH 1107 0
DWIDTH 10 0
BBX 10 20 0 0
BITMAP
0000
0000
07C0
0C00
0840
18C0
1080
3180
23C0
6000
4000
4040
7880
1100
3200
2400
6800
5000
7000
2000
ENDCHAR
STARTCHAR EA87
ENCODING 60039
SWIDTH 1107 0
DWIDTH 10 0
BBX 10 20 0 0
BITMAP
0000
1E00
2180
4080
0000
8040
9240
9240
8C40
0C40
8C40
8040
9240
8040
0000
4080
6180
1E00
0C00
0000
ENDCHAR
STARTCHAR EA88
ENCODING 60040
SWIDTH 1107 0
DWIDTH 10 0
BBX 10 20 0 0
BITMAP
0000
0000
0000
0000
0000
C0C0
0400
0E00
1100
2300
3D00
2900
2300
1C00
1800
C0C0
0000
0000
0000
0000
ENDCHAR
STARTCHAR EA8A
ENCODING 60042
SWIDTH 1107 0
DWIDTH 10 0
BBX 10 20 0 0
BITMAP
0000
0000
0000
C0C0
0000
0000
0000
0000
0000
0000
0000
0000
0000
0000
0000
0000
0000
C0C0
0000
0000
ENDCHAR
STARTCHAR EA8B
ENCODING 60043
SWIDTH 1107 0
DWIDTH 10 0
BBX 10 20 0 0
BITMAP
0000
0000
6100
6180
4080
4080
4080
4080
4080
8040
8040
8040
4080
4080
4080
4080
4080
4080
6180
0000
ENDCHAR
STARTCHAR EA8C
ENCODING 60044
SWIDTH 1107 0
DWIDTH 10 0
BBX 10 20 0 0
BITMAP
0000
0000
0C00
3300
6100
C0C0
8040
C0C0
2300
1200
0C00
0C00
0C00
0C00
0C00
CCC0
6D80
3F00
1E00
0C00
ENDCHAR
STARTCHAR EA8F
ENCODING 60047
SWIDTH 1107 0
DWIDTH 10 0
BBX 10 20 0 0
BITMAP
0000
0000
0000
0000
FFC0
F800
F800
D800
9900
B880
8780
B880
9980
D900
F800
F800
FFC0
0000
0000
0000
ENDCHAR
STARTCHAR EA90
ENCODING 60048
SWIDTH 1107 0
DWIDTH 10 0
BBX 10 20 0 0
BITMAP
0000
0000
0000
0000
0000
0000
0000
FFC0
0000
0000
0000
0000
0000
FFC0
0000
0000
0000
0000
0000
0000
ENDCHAR
STARTCHAR EA91
ENCODING 60049
SWIDTH 1107 0
DWIDTH 10 0
BBX 10 20 0 0
BITMAP
0000
0000
0000
FFC0
0000
0000
0000
0000
FFC0
0000
0000
0000
E1C0
0000
0000
0000
0000
E1C0
0000
0000
ENDCHAR
STARTCHAR EA92
ENCODING 60050
SWIDTH 1107 0
DWIDTH 10 0
BBX 10 20 0 0
BITMAP
0000
0000
0000
0000
0000
1E00
1E00
0C00
0C00
8C40
0C40
8C40
8C40
0C00
0C00
0C00
0000
0000
0000
0000
ENDCHAR
STARTCHAR EA93
ENCODING 60051
SWIDTH 1107 0
DWIDTH 10 0
BBX 10 20 0 0
BITMAP
0000
0000
0000
0000
0000
0000
1000
1000
5440
FEC0
3380
F300
B300
3300
FEC0
0440
0000
0000
0000
0000
ENDCHAR
STARTCHAR EA94
ENCODING 60052
SWIDTH 1107 0
DWIDTH 10 0
BBX 10 20 0 0
BITMAP
0000
0000
0F00
1180
0080
F040
9040
11C0
0000
C000
4000
0000
0000
0000
0000
0000
0000
0000
1FC0
0000
ENDCHAR
STARTCHAR EA95
ENCODING 60053
SWIDTH 1107 0
DWIDTH 10 0
BBX 10 20 0 0
BITMAP
0000
0000
0000
0FC0
0800
0B80
0B80
0800
0380
F800
FC00
05C0
7400
0400
7400
7400
0400
FC00
0000
0000
ENDCHAR
STARTCHAR EA96
ENCODING 60054
SWIDTH 1107 0
DWIDTH 10 0
BBX 10 20 0 0
BITMAP
0000
0000
FFC0
0000
F800
0000
0000
0000
C000
0000
0000
0000
F800
0000
0000
0000
C000
0000
FFC0
FFC0
ENDCHAR
STARTCHAR EA97
ENCODING 60055
SWIDTH 1107 0
DWIDTH 10 0
BBX 10 20 0 0
BITMAP
0000
0000
0780
0C40
0840
0040
1000
0000
7000
7C40
FC40
FC80
FD80
FE00
FE00
FC00
FC00
FC00
7800
1000
ENDCHAR
STARTCHAR EA98
ENCODING 60056
SWIDTH 1107 0
DWIDTH 10 0
BBX 10 20 0 0
BITMAP
0000
0000
FFC0
FFC0
0000
0000
FFC0
8040
8040
8040
9E40
8040
8040
8040
8040
8040
8040
8040
FFC0
0000
ENDCHAR
STARTCHAR EA99
ENCODING 60057
SWIDTH 1107 0
DWIDTH 10 0
BBX 10 20 0 0
BITMAP
0000
0000
0000
0000
0000
0000
0000
0000
0000
4080
C0C0
8040
FFC0
8040
C0C0
4080
0000
0000
0000
0000
ENDCHAR
STARTCHAR EA9A
ENCODING 60058
SWIDTH 1107 0
DWIDTH 10 0
BBX 10 20 0 0
BITMAP
0000
0000
0000
0000
0000
0000
0000
0000
0000
0000
0000
0000
8040
C0C0
6180
3300
1E00
0C00
0000
0000
ENDCHAR
STARTCHAR EA9B
ENCODING 60059
SWIDTH 1107 0
DWIDTH 10 0
BBX 10 20 0 0
BITMAP
0000
0000
0000
0000
0000
1000
2000
0000
4000
8000
FFC0
C000
4000
2000
3000
1000
0000
0000
0000
0000
ENDCHAR
STARTCHAR EA9C
ENCODING 60060
SWIDTH 1107 0
DWIDTH 10 0
BBX 10 20 0 0
BITMAP
0000
0000
0000
0000
0400
0200
0300
0100
0080
00C0
FFC0
00C0
0080
0100
0300
0200
0000
0000
0000
0000
ENDCHAR
STARTCHAR EA9D
ENCODING 60061
SWIDTH 1107 0
DWIDTH 10 0
BBX 10 20 0 0
BITMAP
0000
0000
0000
0000
0000
0000
0000
0000
0000
0000
0000
0000
0000
0000
0000
0000
0000
0000
0000
0000
ENDCHAR
STARTCHAR EA9E
ENCODING 60062
SWIDTH 1107 0
DWIDTH 10 0
BBX 10 20 0 0
BITMAP
0000
0000
0000
0000
0000
0000
0000
0000
0000
0000
0000
0000
0000
0000
0000
0000
0000
0000
0000
0000
ENDCHAR
STARTCHAR EA9F
ENCODING 60063
SWIDTH 1107 0
DWIDTH 10 0
BBX 10 20 0 0
BITMAP
0000
0000
0000
0000
0000
0000
0000
0000
0000
0000
0000
0000
0000
0000
0000
0000
0000
0000
0000
0000
ENDCHAR
STARTCHAR EAA0
ENCODING 60064
SWIDTH 1107 0
DWIDTH 10 0
BBX 10 20 0 0
BITMAP
0000
0000
0000
0000
0000
0000
0000
0000
0000
0000
0000
0000
0000
0000
0000
0000
0000
0000
0000
0000
ENDCHAR
STARTCHAR EAA1
ENCODING 60065
SWIDTH 1107 0
DWIDTH 10 0
BBX 10 20 0 0
BITMAP
0000
0000
0000
0400
0E00
1300
2180
40C0
8040
0000
0000
0000
0000
0000
0000
0000
0000
0000
0000
0000
ENDCHAR
STARTCHAR EAA2
ENCODING 60066
SWIDTH 1107 0
DWIDTH 10 0
BBX 10 20 0 0
BITMAP
0000
0000
0C00
3F00
2100
4080
4080
C080
C0C0
C0C0
C0C0
C0C0
C0C0
8040
8040
8040
FFC0
1200
0C00
0000
ENDCHAR
STARTCHAR EAA3
ENCODING 60067
SWIDTH 1107 0
DWIDTH 10 0
BBX 10 20 0 0
BITMAP
0000
0000
FF80
FFC0
80C0
80C0
80C0
80C0
81C0
FF80
FF80
81C0
80C0
8040
8040
8040
80C0
81C0
FF80
FE00
ENDCHAR
STARTCHAR EAA4
ENCODING 60068
SWIDTH 1107 0
DWIDTH 10 0
BBX 10 20 0 0
BITMAP
0000
0000
0000
FFC0
0C00
0C00
0C00
6D80
0C00
6D80
6D80
0C00
6D80
0C00
0C00
0C00
FFC0
0C00
0000
0000
ENDCHAR
STARTCHAR EAA5
ENCODING 60069
SWIDTH 1107 0
DWIDTH 10 0
BBX 10 20 0 0
BITMAP
0000
0000
FFC0
8040
8040
8040
8040
8040
8040
8040
8040
8040
8C40
9E40
9240
8040
A140
E1C0
C0C0
8040
ENDCHAR
STARTCHAR EAA6
ENCODING 60070
SWIDTH 1107 0
DWIDTH 10 0
BBX 10 20 0 0
BITMAP
0000
1E00
3F80
7B80
6180
C0C0
DEC0
9E40
9E40
8040
8040
9E40
DE40
C0C0
6180
7380
7F80
1E00
0C00
0000
ENDCHAR
STARTCHAR EAA7
ENCODING 60071
SWIDTH 1107 0
DWIDTH 10 0
BBX 10 20 0 0
BITMAP
0000
0000
1E00
7F80
7F80
7F80
E0C0
E0C0
FFC0
FFC0
FFC0
FFC0
FFC0
E0C0
E0C0
FFC0
7F80
7F80
1E00
0C00
ENDCHAR
STARTCHAR EAA8
ENCODING 60072
SWIDTH 1107 0
DWIDTH 10 0
BBX 10 20 0 0
BITMAP
0000
0000
0000
3F00
3F00
6180
6180
6180
C0C0
C0C0
8040
80C0
C0C0
6180
6180
6180
7F80
3F00
0000
0000
ENDCHAR
STARTCHAR EAA9
ENCODING 60073
SWIDTH 1107 0
DWIDTH 10 0
BBX 10 20 0 0
BITMAP
0000
0000
0000
3F00
3F80
7F80
7F80
7F80
FFC0
FFC0
FFC0
FFC0
FFC0
7F80
7F80
7F80
7F80
3F00
0000
0000
ENDCHAR
STARTCHAR EAAA
ENCODING 60074
SWIDTH 1107 0
DWIDTH 10 0
BBX 10 20 0 0
BITMAP
0000
0000
0000
0C00
0C00
1E00
1E00
3300
7380
6180
E1C0
C0C0
E1C0
6180
7380
3300
1E00
1E00
0C00
0C00
ENDCHAR
STARTCHAR EAAB
ENCODING 60075
SWIDTH 1107 0
DWIDTH 10 0
BBX 10 20 0 0
BITMAP
0000
0000
0000
0C00
0C00
1E00
1E00
3F00
7F80
7F80
FFC0
FFC0
FFC0
7F80
7F80
3F00
1E00
1E00
0C00
0C00
ENDCHAR
STARTCHAR EAAC
ENCODING 60076
SWIDTH 1107 0
DWIDTH 10 0
BBX 10 20 0 0
BITMAP
0000
0000
0000
1E00
1E00
0000
FFC0
0000
8000
8040
6D80
3300
1200
0C00
0000
0000
FFC0
FFC0
0000
0000
ENDCHAR
STARTCHAR EAAD
ENCODING 60077
SWIDTH 1107 0
DWIDTH 10 0
BBX 10 20 0 0
BITMAP
0000
0000
3F00
2100
4080
DEC0
B340
A140
AD40
2D40
AD40
AD40
8C40
CC80
4C80
2D00
0C00
0C00
0C00
0C00
ENDCHAR
STARTCHAR EAAE
ENCODING 60078
SWIDTH 1107 0
DWIDTH 10 0
BBX 10 20 0 0
BITMAP
0000
0000
FFC0
FFC0
0000
0000
FFC0
0000
0000
0000
0000
0000
0000
0000
0000
0000
0000
0000
FFC0
0000
ENDCHAR
STARTCHAR EAAF
ENCODING 60079
SWIDTH 1107 0
DWIDTH 10 0
BBX 10 20 0 0
BITMAP
0000
0000
0C00
1200
0200
0000
7F80
4080
4080
4080
4080
C0C0
C0C0
4080
4180
2100
2100
5280
0C00
0000
ENDCHAR
STARTCHAR EAB0
ENCODING 60080
SWIDTH 1107 0
DWIDTH 10 0
BBX 10 20 0 0
BITMAP
0000
0000
4080
FFC0
0000
FFC0
FFC0
0000
1280
0000
0000
5280
0000
5280
0000
0000
5200
0000
FFC0
FFC0
ENDCHAR
STARTCHAR EAB1
ENCODING 60081
SWIDTH 1107 0
DWIDTH 10 0
BBX 10 20 0 0
BITMAP
0000
0000
0000
0000
0000
2000
3000
7000
51C0
5040
4000
08C0
F900
8A00
8E40
8580
0180
0000
0000
0000
ENDCHAR
STARTCHAR EAB2
ENCODING 60082
SWIDTH 1107 0
DWIDTH 10 0
BBX 10 20 0 0
BITMAP
0000
0000
0000
0040
0040
0040
0080
0180
0100
0200
0200
8200
8400
0C00
4800
7000
3000
3000
0000
0000
ENDCHAR
STARTCHAR EAB3
ENCODING 60083
SWIDTH 1107 0
DWIDTH 10 0
BBX 10 20 0 0
BITMAP
0000
0000
0000
6000
CFC0
8000
0000
6000
CFC0
8FC0
0000
4000
4FC0
8FC0
0000
0000
6000
CFC0
8000
0000
ENDCHAR
STARTCHAR EAB4
ENCODING 60084
SWIDTH 1107 0
DWIDTH 10 0
BBX 10 20 0 0
BITMAP
0000
0000
0000
0000
0000
0000
8040
8040
4080
6180
2100
1200
1200
0C00
0C00
0000
0000
0000
0000
0000
ENDCHAR
STARTCHAR EAB5
ENCODING 60085
SWIDTH 1107 0
DWIDTH 10 0
BBX 10 20 0 0
BITMAP
0000
0000
0000
0000
0000
0000
0000
0000
0000
0000
0000
0000
0000
0000
0000
0000
0000
0000
0000
0000
ENDCHAR
STARTCHAR EAB6
ENCODING 60086
SWIDTH 1107 0
DWIDTH 10 0
BBX 10 20 0 0
BITMAP
0000
0000
0000
0000
0000
0000
0000
0000
0000
0000
0000
0000
0000
0000
0000
0000
0000
0000
0000
0000
ENDCHAR
STARTCHAR EAB7
ENCODING 60087
SWIDTH 1107 0
DWIDTH 10 0
BBX 10 20 0 0
BITMAP
0000
0000
0000
0000
0000
0000
0C00
0C00
1200
1200
2100
6180
4080
8040
8040
0000
0000
0000
0000
0000
ENDCHAR
STARTCHAR EAB8
ENCODING 60088
SWIDTH 1107 0
DWIDTH 10 0
BBX 10 20 0 0
BITMAP
0000
0000
8040
8040
C0C0
6180
6180
3300
1200
1E00
0C00
0C00
1E00
1200
3300
6180
6180
C0C0
8040
8040
ENDCHAR
STARTCHAR EAB9
ENCODING 60089
SWIDTH 1107 0
DWIDTH 10 0
BBX 10 20 0 0
BITMAP
0000
0000
FFC0
8040
8040
8040
8040
8040
8040
8040
8040
8040
8040
8040
8040
8040
8040
8040
FFC0
FFC0
ENDCHAR
STARTCHAR EABA
ENCODING 60090
SWIDTH 1107 0
DWIDTH 10 0
BBX 10 20 0 0
BITMAP
0000
0000
0000
0000
0000
0000
0000
0000
0000
0000
FFC0
0000
0000
0000
0000
0000
0000
0000
0000
0000
ENDCHAR
STARTCHAR EABB
ENCODING 60091
SWIDTH 1107 0
DWIDTH 10 0
BBX 10 20 0 0
BITMAP
0000
0000
7FC0
6040
6040
FFC0
FFC0
81C0
81C0
81C0
81C0
81C0
81C0
81C0
81C0
81C0
8180
8180
FF80
FF80
ENDCHAR
STARTCHAR EABC
ENCODING 60092
SWIDTH 1107 0
DWIDTH 10 0
BBX 10 20 0 0
BITMAP
0000
0000
1E00
7F80
7F80
6180
E1C0
C0C0
8040
8040
8040
8040
8040
C0C0
E1C0
E1C0
7F80
7F80
1E00
0C00
ENDCHAR
STARTCHAR EABD
ENCODING 60093
SWIDTH 1107 0
DWIDTH 10 0
BBX 10 20 0 0
BITMAP
0000
0000
1E00
6180
4080
0180
8140
8240
8240
0400
0C00
0800
9000
9040
A040
E040
4080
6180
1E00
0C00
ENDCHAR
STARTCHAR EABE
ENCODING 60094
SWIDTH 1107 0
DWIDTH 10 0
BBX 10 20 0 0
BITMAP
0000
0000
FFC0
2000
2000
2000
7380
5E80
5280
7380
2100
0000
0600
0A00
3800
3A00
2600
2000
FFC0
FFC0
ENDCHAR
STARTCHAR EABF
ENCODING 60095
SWIDTH 1107 0
DWIDTH 10 0
BBX 10 20 0 0
BITMAP
0000
0000
0000
0000
FFC0
0000
0000
0000
FFC0
0000
0000
0040
FD40
0180
0180
0140
FC40
0000
0000
0000
ENDCHAR
STARTCHAR EAC0
ENCODING 60096
SWIDTH 1107 0
DWIDTH 10 0
BBX 10 20 0 0
BITMAP
0000
0000
1C00
3400
3700
FF80
FF80
8080
8080
8000
8000
8C80
9E80
9280
8080
8080
8180
81C0
F0C0
F000
ENDCHAR
STARTCHAR EAC1
ENCODING 60097
SWIDTH 1107 0
DWIDTH 10 0
BBX 10 20 0 0
BITMAP
0000
0000
1FC0
2040
2040
2040
FE40
FE40
0040
0040
2C40
2840
1040
1040
29C0
2800
0000
0000
FE00
FE00
ENDCHAR
STARTCHAR EAC2
ENCODING 60098
SWIDTH 1107 0
DWIDTH 10 0
BBX 10 20 0 0
BITMAP
0000
0000
0000
0E00
1000
7100
C180
81C0
8440
0400
0400
8440
8440
6680
0E00
0C00
0400
0000
0000
0000
ENDCHAR
STARTCHAR EAC3
ENCODING 60099
SWIDTH 1107 0
DWIDTH 10 0
BBX 10 20 0 0
BITMAP
0000
0000
0000
0E00
1000
7100
C180
81C0
8C40
0E00
0600
8440
8440
7580
0400
0400
0400
0000
0000
0000
ENDCHAR
STARTCHAR EAC4
ENCODING 60100
SWIDTH 1107 0
DWIDTH 10 0
BBX 10 20 0 0
BITMAP
0000
0000
0000
0000
0200
0200
0200
6180
4480
8440
8C40
8840
8840
4080
5080
1000
1000
0000
0000
0000
ENDCHAR
STARTCHAR EAC5
ENCODING 60101
SWIDTH 1107 0
DWIDTH 10 0
BBX 10 20 0 0
BITMAP
0000
0000
1FC0
2040
2040
2040
FE40
FE40
0040
0040
0040
0040
7C40
7C40
01C0
0000
0000
0000
FE00
FE00
ENDCHAR
STARTCHAR EAC6
ENCODING 60102
SWIDTH 1107 0
DWIDTH 10 0
BBX 10 20 0 0
BITMAP
0000
0000
1E00
7980
7880
7800
F840
F840
F840
F800
F800
F800
F800
F840
F840
F840
7880
7980
1E00
0C00
ENDCHAR
STARTCHAR EAC7
ENCODING 60103
SWIDTH 1107 0
DWIDTH 10 0
BBX 10 20 0 0
BITMAP
0000
0000
0000
FFC0
0040
0040
0040
0040
0040
0000
0FC0
1FC0
1000
D000
5000
7000
7000
5EC0
0180
0180
ENDCHAR
STARTCHAR EAC9
ENCODING 60105
SWIDTH 1107 0
DWIDTH 10 0
BBX 10 20 0 0
BITMAP
0000
0000
0000
0000
0000
FFC0
0000
FFC0
FFC0
0000
0000
0000
0180
0180
0000
FFC0
0000
0000
0000
0000
ENDCHAR
STARTCHAR EACC
ENCODING 60108
SWIDTH 1107 0
DWIDTH 10 0
BBX 10 20 0 0
BITMAP
0000
0000
0000
0000
0000
0000
0000
0000
0000
FFC0
FFC0
FFC0
0000
0000
0000
0000
0000
0000
0000
0000
ENDCHAR
STARTCHAR EACD
ENCODING 60109
SWIDTH 1107 0
DWIDTH 10 0
BBX 10 20 0 0
BITMAP
0000
1E00
6180
4C80
1C00
B140
A240
E2C0
4C80
4080
4C80
EDC0
80C0
8040
8040
4080
6180
1E00
0C00
0000
ENDCHAR
STARTCHAR EACE
ENCODING 60110
SWIDTH 1107 0
DWIDTH 10 0
BBX 10 20 0 0
BITMAP
0000
0000
FFC0
8040
0000
0000
E1C0
7F00
0000
0000
0000
0000
0000
0000
0000
0000
0000
8040
FFC0
1E00
ENDCHAR
STARTCHAR EACF
ENCODING 60111
SWIDTH 1107 0
DWIDTH 10 0
BBX 10 20 0 0
BITMAP
0000
0000
8000
9800
9C00
9E00
9600
9380
9180
90C0
9040
90C0
91C0
9380
9300
9E00
9C00
9C00
9000
8000
ENDCHAR
STARTCHAR EAD0
ENCODING 60112
SWIDTH 1107 0
DWIDTH 10 0
BBX 10 20 0 0
BITMAP
0000
0000
0000
0040
03C0
0400
0C40
0440
0040
0240
1080
7180
4000
9400
8400
8800
8C00
8800
F000
A000
ENDCHAR
STARTCHAR EAD1
ENCODING 60113
SWIDTH 1107 0
DWIDTH 10 0
BBX 10 20 0 0
BITMAP
0000
0000
8040
8040
8040
8040
8040
8040
8040
8040
8040
8040
8040
8040
8040
8040
8040
8040
8040
8040
ENDCHAR
STARTCHAR EAD2
ENCODING 60114
SWIDTH 1107 0
DWIDTH 10 0
BBX 10 20 0 0
BITMAP
0000
0000
1E00
BF00
F180
E180
C0C0
E040
E040
E040
0040
0040
0040
0040
C040
60C0
6180
3F80
1E00
0000
ENDCHAR
STARTCHAR EAD3
ENCODING 60115
SWIDTH 1107 0
DWIDTH 10 0
BBX 10 20 0 0
BITMAP
0000
0000
0000
C000
E000
F000
9C00
9E00
8700
8380
81C0
80C0
81C0
8380
8700
9E00
9C00
F000
E000
C000
ENDCHAR
STARTCHAR EAD4
ENCODING 60116
SWIDTH 1107 0
DWIDTH 10 0
BBX 10 20 0 0
BITMAP
0000
0000
0C00
0C00
0C00
0C00
8C40
CCC0
EDC0
7F80
3F00
1E00
0C00
0000
0C00
1E00
3F00
3F00
1E00
0C00
ENDCHAR
STARTCHAR EAD5
ENCODING 60117
SWIDTH 1107 0
DWIDTH 10 0
BBX 10 20 0 0
BITMAP
0000
0000
1E00
3F00
7F80
EDC0
CCC0
8C40
0C00
0C00
0C00
0C00
0C00
0000
0C00
1E00
3F00
3F00
1E00
0C00
ENDCHAR
STARTCHAR EAD6
ENCODING 60118
SWIDTH 1107 0
DWIDTH 10 0
BBX 10 20 0 0
BITMAP
0000
0000
0000
1E40
3F40
61C0
C0C0
C0C0
83C0
83C0
0000
0000
0000
0C00
0C00
0E00
0E00
0C00
0000
0000
ENDCHAR
STARTCHAR EAD7
ENCODING 60119
SWIDTH 1107 0
DWIDTH 10 0
BBX 10 20 0 0
BITMAP
0000
0000
FFC0
FFC0
8040
8040
8040
8040
8040
8040
8040
8040
8040
8040
8040
8040
8040
8040
FFC0
FFC0
ENDCHAR
STARTCHAR EAD8
ENCODING 60120
SWIDTH 1107 0
DWIDTH 10 0
BBX 10 20 0 0
BITMAP
0000
0000
0C00
1200
1000
0000
7F80
4080
4080
5280
4080
4C80
CCC0
4080
7280
2100
2100
5280
0C00
0000
ENDCHAR
STARTCHAR EAD9
ENCODING 60121
SWIDTH 1107 0
DWIDTH 10 0
BBX 10 20 0 0
BITMAP
0000
0000
0000
0000
0000
FE00
FE00
0040
0180
0100
0000
0100
0180
0040
FE40
FE00
0000
0000
0000
0000
ENDCHAR
STARTCHAR EADA
ENCODING 60122
SWIDTH 1107 0
DWIDTH 10 0
BBX 10 20 0 0
BITMAP
0000
0000
0000
0C00
1E00
F3C0
0000
4C00
5E00
1200
1000
0000
1200
1200
0C00
0000
FFC0
FFC0
0000
0000
ENDCHAR
STARTCHAR EADB
ENCODING 60123
SWIDTH 1107 0
DWIDTH 10 0
BBX 10 20 0 0
BITMAP
0000
0000
FFC0
8040
8040
8040
8040
8040
8040
8040
8040
8040
8040
8040
8040
8040
8C40
8040
FFC0
FFC0
ENDCHAR
STARTCHAR EADC
ENCODING 60124
SWIDTH 1107 0
DWIDTH 10 0
BBX 10 20 0 0
BITMAP
0000
0000
FFC0
0000
0000
0000
0C00
0C00
0C00
0C00
3F00
0C00
0C00
0C00
0C00
0000
0000
0000
FFC0
FFC0
ENDCHAR
STARTCHAR EADD
ENCODING 60125
SWIDTH 1107 0
DWIDTH 10 0
BBX 10 20 0 0
BITMAP
0000
0000
FFC0
0000
0000
0100
0300
0300
0700
0E00
0E00
1C00
1C00
3800
3000
3000
0000
0000
FFC0
FFC0
ENDCHAR
STARTCHAR EADE
ENCODING 60126
SWIDTH 1107 0
DWIDTH 10 0
BBX 10 20 0 0
BITMAP
0000
0000
FFC0
0000
0000
0000
0000
0C00
1E00
1E00
1E00
1E00
1E00
1E00
0000
0000
0000
0000
FFC0
FFC0
ENDCHAR
STARTCHAR EADF
ENCODING 60127
SWIDTH 1107 0
DWIDTH 10 0
BBX 10 20 0 0
BITMAP
0000
0000
FFC0
0000
0000
0000
0000
0000
0000
0000
1E00
0000
0000
0000
0000
0000
0000
0000
FFC0
FFC0
ENDCHAR
STARTCHAR EAE0
ENCODING 60128
SWIDTH 1107 0
DWIDTH 10 0
BBX 10 20 0 0
BITMAP
0000
0000
FFC0
0000
0000
0000
0800
0C00
0E00
3E00
3F00
3E00
0E00
0C00
0800
0000
0000
0000
FFC0
FFC0
ENDCHAR
STARTCHAR EAE1
ENCODING 60129
SWIDTH 1107 0
DWIDTH 10 0
BBX 10 20 0 0
BITMAP
0000
0000
0000
0000
F3C0
0000
F000
F000
0000
0000
0000
03C0
03C0
0000
0000
0000
F3C0
F3C0
0000
0000
ENDCHAR
STARTCHAR EAE2
ENCODING 60130
SWIDTH 1107 0
DWIDTH 10 0
BBX 10 20 0 0
BITMAP
0000
9E00
A180
E0C0
C040
F040
0040
0040
0040
00C0
0080
0180
0100
0200
0600
0C00
1800
1000
0000
0000
ENDCHAR
STARTCHAR EAE3
ENCODING 60131
SWIDTH 1107 0
DWIDTH 10 0
BBX 10 20 0 0
BITMAP
0000
0000
F000
F000
1000
1000
1000
1000
1FC0
1FC0
1FC0
1000
F000
2000
2000
2000
2000
2000
3FC0
3FC0
ENDCHAR
STARTCHAR EAE4
ENCODING 60132
SWIDTH 1107 0
DWIDTH 10 0
BBX 10 20 0 0
BITMAP
0000
0000
2000
2000
2000
23C0
F000
2000
23C0
2000
2000
0000
8000
8000
8000
8000
8000
8000
FFC0
0000
ENDCHAR
STARTCHAR EAE5
ENCODING 60133
SWIDTH 1107 0
DWIDTH 10 0
BBX 10 20 0 0
BITMAP
0000
0000
0C00
6180
6180
9240
4080
4080
ED80
8040
1000
8380
E3C0
47C0
4400
9400
67C0
63C0
0B80
0D00
ENDCHAR
STARTCHAR EAE6
ENCODING 60134
SWIDTH 1107 0
DWIDTH 10 0
BBX 10 20 0 0
BITMAP
0000
0000
03C0
0000
0000
F000
0000
0000
03C0
0000
0000
0000
FF00
0180
0180
0180
0180
0180
FF80
FF00
ENDCHAR
STARTCHAR EAE7
ENCODING 60135
SWIDTH 1107 0
DWIDTH 10 0
BBX 10 20 0 0
BITMAP
0000
0000
8000
8000
4000
6E00
2100
7180
1000
9A40
9C40
9440
1200
1200
0D00
0180
0080
0040
0040
0000
ENDCHAR
STARTCHAR EAE8
ENCODING 60136
SWIDTH 1107 0
DWIDTH 10 0
BBX 10 20 0 0
BITMAP
0000
0000
FF00
8100
8080
92C0
A240
A240
A240
A240
9040
8040
B240
9540
9540
9540
B240
8040
FFC0
FFC0
ENDCHAR
STARTCHAR EAE9
ENCODING 60137
SWIDTH 1107 0
DWIDTH 10 0
BBX 10 20 0 0
BITMAP
0000
0000
FF00
8300
8280
82C0
8240
83C0
8040
9040
B240
A340
8140
A340
B240
9040
8040
8040
FFC0
FFC0
ENDCHAR
STARTCHAR EAEA
ENCODING 60138
SWIDTH 1107 0
DWIDTH 10 0
BBX 10 20 0 0
BITMAP
0000
0000
FE00
0600
0500
0580
0480
0780
0080
0000
0000
1FC0
1000
1080
1C00
1D80
1380
1240
FFC0
EFC0
ENDCHAR
STARTCHAR EAEB
ENCODING 60139
SWIDTH 1107 0
DWIDTH 10 0
BBX 10 20 0 0
BITMAP
0000
0000
FF00
8300
8280
82C0
8240
83C0
8040
0000
0000
FFC0
8040
AD40
9140
A140
8D40
8040
FFC0
FFC0
ENDCHAR
STARTCHAR EAEC
ENCODING 60140
SWIDTH 1107 0
DWIDTH 10 0
BBX 10 20 0 0
BITMAP
0000
0000
F000
F000
0F80
0080
7C80
C7C0
C7C0
4000
4FC0
7800
7000
4000
C000
4000
4000
4000
7FC0
0000
ENDCHAR
STARTCHAR EAED
ENCODING 60141
SWIDTH 1107 0
DWIDTH 10 0
BBX 10 20 0 0
BITMAP
0000
0000
0000
F000
0FC0
0000
0000
0FC0
F000
0000
0200
0200
0E00
0A00
1200
1000
0000
FFC0
0000
0000
ENDCHAR
STARTCHAR EAEE
ENCODING 60142
SWIDTH 1107 0
DWIDTH 10 0
BBX 10 20 0 0
BITMAP
0000
0000
FF00
8280
82C0
8240
8200
83C0
0000
FC00
FC00
0000
3000
1000
3000
2000
4000
0000
FDC0
FDC0
ENDCHAR
STARTCHAR EAEF
ENCODING 60143
SWIDTH 1107 0
DWIDTH 10 0
BBX 10 20 0 0
BITMAP
0000
0000
FFC0
9240
9240
B240
B240
A240
9240
A3C0
A180
9180
A180
9180
A180
A180
9180
A180
FF80
FF80
ENDCHAR
STARTCHAR EAF0
ENCODING 60144
SWIDTH 1107 0
DWIDTH 10 0
BBX 10 20 0 0
BITMAP
0000
0000
1F00
1180
1140
11C0
F000
1000
1000
1000
1000
1000
1000
1000
1FC0
0200
0200
0200
FE00
FC00
ENDCHAR
STARTCHAR EAF1
ENCODING 60145
SWIDTH 1107 0
DWIDTH 10 0
BBX 10 20 0 0
BITMAP
0000
0000
0000
FFC0
0000
8040
0040
4080
2100
1000
1200
1200
1200
1200
1200
1200
1200
1E00
0000
0000
ENDCHAR
STARTCHAR EAF2
ENCODING 60146
SWIDTH 1107 0
DWIDTH 10 0
BBX 10 20 0 0
BITMAP
0000
0000
0C00
0E00
0A00
0B00
1100
3100
6100
C140
81C0
1980
1800
2800
2400
6200
A340
E3C0
7380
0200
ENDCHAR
STARTCHAR EAF3
ENCODING 60147
SWIDTH 1107 0
DWIDTH 10 0
BBX 10 20 0 0
BITMAP
0000
0000
8040
8040
4080
6180
2100
1200
1200
0C00
8C40
8040
4080
6180
2100
1200
1200
0C00
0C00
0000
ENDCHAR
STARTCHAR EAF4
ENCODING 60148
SWIDTH 1107 0
DWIDTH 10 0
BBX 10 20 0 0
BITMAP
0000
0000
0C00
0C00
1200
1200
2100
6180
4080
8040
8C40
0C00
1200
1200
2100
6180
4080
8040
8040
0000
ENDCHAR
STARTCHAR EAF5
ENCODING 60149
SWIDTH 1107 0
DWIDTH 10 0
BBX 10 20 0 0
BITMAP
0000
0000
0000
8040
C0C0
6180
2100
1200
1E00
0C00
0000
0000
0000
0C00
1E00
1200
2100
6180
C0C0
8040
ENDCHAR
STARTCHAR EAF6
ENCODING 60150
SWIDTH 1107 0
DWIDTH 10 0
BBX 10 20 0 0
BITMAP
0000
0000
F000
1F80
0FC0
0040
0FC0
F040
0040
0100
0380
07C0
0740
0F40
0CC0
F4C0
F7C0
03C0
0380
0000
ENDCHAR
STARTCHAR EAF7
ENCODING 60151
SWIDTH 1107 0
DWIDTH 10 0
BBX 10 20 0 0
BITMAP
0000
0000
0000
F000
0F80
0F80
0000
0000
07C0
7800
7040
0040
0040
8000
8000
8080
8080
FF80
0000
0000
ENDCHAR
STARTCHAR EAF8
ENCODING 60152
SWIDTH 1107 0
DWIDTH 10 0
BBX 10 20 0 0
BITMAP
0000
0000
0C00
6180
6180
9240
0080
4080
ED80
8040
1200
8040
ECC0
4080
4080
9240
7380
6180
0C00
0C00
ENDCHAR
STARTCHAR EAF9
ENCODING 60153
SWIDTH 1107 0
DWIDTH 10 0
BBX 10 20 0 0
BITMAP
0000
0000
3300
6D80
4C80
4C80
FFC0
0C00
0C00
0C00
0C00
0C00
0C00
0C00
0C00
0C00
0C00
0C00
FFC0
FFC0
ENDCHAR
STARTCHAR EAFA
ENCODING 60154
SWIDTH 1107 0
DWIDTH 10 0
BBX 10 20 0 0
BITMAP
0000
0000
FE00
0100
0000
0080
0040
03C0
0040
0100
0380
0280
0280
07C0
0C00
0C00
0C00
0C00
FFC0
F7C0
ENDCHAR
STARTCHAR EAFB
ENCODING 60155
SWIDTH 1107 0
DWIDTH 10 0
BBX 10 20 0 0
BITMAP
0000
0000
FF00
8300
8280
82C0
8240
83C0
8040
9040
B240
A340
8140
A340
B240
9040
8040
8040
FFC0
FFC0
ENDCHAR
STARTCHAR EAFC
ENCODING 60156
SWIDTH 1107 0
DWIDTH 10 0
BBX 10 20 0 0
BITMAP
0040
0040
0040
0040
0040
0040
0040
0040
0040
0040
0040
0040
0040
0040
0040
0040
0040
0040
0040
0040
ENDCHAR
STARTCHAR EAFD
ENCODING 60157
SWIDTH 1107 0
DWIDTH 10 0
BBX 10 20 0 0
BITMAP
0000
0000
E000
2400
3F00
2C80
E480
4080
4080
4080
4080
4080
4080
4080
41C0
4900
3F00
0D00
09C0
0080
ENDCHAR
STARTCHAR EAFE
ENCODING 60158
SWIDTH 1107 0
DWIDTH 10 0
BBX 10 20 0 0
BITMAP
0000
0000
E000
1000
1000
1000
E000
6000
6000
6000
61C0
5040
5E00
4200
E040
11C0
1000
1000
E000
6000
ENDCHAR
STARTCHAR EAFF
ENCODING 60159
SWIDTH 1107 0
DWIDTH 10 0
BBX 10 20 0 0
BITMAP
0000
0000
FFC0
8040
8040
8040
87C0
8480
FC80
F980
89C0
E840
8040
8080
ED80
0500
0E00
0E00
0C00
0C00
ENDCHAR
STARTCHAR EB00
ENCODING 60160
SWIDTH 1107 0
DWIDTH 10 0
BBX 10 20 0 0
BITMAP
0000
0000
64C0
5F40
4040
4040
8000
8000
8000
8000
8000
4040
40C0
3380
8100
9100
7100
1100
1100
1000
ENDCHAR
STARTCHAR EB01
ENCODING 60161
SWIDTH 1107 0
DWIDTH 10 0
BBX 10 20 0 0
BITMAP
0000
0000
1E00
3300
5280
1200
9240
FFC0
FFC0
8000
0000
0000
9040
FFC0
9240
9240
4280
6D80
1E00
0C00
ENDCHAR
STARTCHAR EB02
ENCODING 60162
SWIDTH 1107 0
DWIDTH 10 0
BBX 10 20 0 0
BITMAP
0000
0000
0000
0000
0000
0000
0000
0000
FFC0
0000
0000
0000
FFC0
0000
0000
0000
0000
0000
0000
0000
ENDCHAR
STARTCHAR EB03
ENCODING 60163
SWIDTH 1107 0
DWIDTH 10 0
BBX 10 20 0 0
BITMAP
0000
0000
0000
01C0
0140
6140
6140
4140
4D40
4B40
4B40
4B40
4B40
4B40
4B40
4B40
6FC0
0000
FFC0
FFC0
ENDCHAR
STARTCHAR EB04
ENCODING 60164
SWIDTH 1107 0
DWIDTH 10 0
BBX 10 20 0 0
BITMAP
0000
0000
E1C0
E1C0
E1C0
0000
0000
0000
0000
E1C0
E1C0
E1C0
0000
0000
0000
0000
E1C0
E1C0
E1C0
E1C0
ENDCHAR
STARTCHAR EB05
ENCODING 60165
SWIDTH 1107 0
DWIDTH 10 0
BBX 10 20 0 0
BITMAP
0000
0000
0000
0000
7380
8C40
8C40
0000
0000
0000
8040
8040
4080
6180
2100
1200
1200
0C00
0C00
0000
ENDCHAR
STARTCHAR EB06
ENCODING 60166
SWIDTH 1107 0
DWIDTH 10 0
BBX 10 20 0 0
BITMAP
0000
0000
0C00
0C00
1200
1200
2100
6180
4080
C0C0
4080
4080
4C80
5E80
5280
5280
5280
5280
7380
0000
ENDCHAR
STARTCHAR EB07
ENCODING 60167
SWIDTH 1107 0
DWIDTH 10 0
BBX 10 20 0 0
BITMAP
0000
0000
0000
93C0
9240
9240
9240
F3C0
F380
9200
9240
9240
9240
0000
0000
0000
0000
FFC0
FFC0
0000
ENDCHAR
STARTCHAR EB08
ENCODING 60168
SWIDTH 1107 0
DWIDTH 10 0
BBX 10 20 0 0
BITMAP
0000
0000
0C00
0C00
0C00
7F80
FF80
C080
C080
D2C0
C0C0
D080
DE80
CC80
C080
7780
1400
1800
1800
0000
ENDCHAR
STARTCHAR EB09
ENCODING 60169
SWIDTH 1107 0
DWIDTH 10 0
BBX 10 20 0 0
BITMAP
0000
0000
3F00
7F80
4080
4080
4080
0000
8040
8040
8040
8040
0000
E1C0
1E00
1E00
0000
0000
FFC0
0000
ENDCHAR
STARTCHAR EB0B
ENCODING 60171
SWIDTH 1107 0
DWIDTH 10 0
BBX 10 20 0 0
BITMAP
0000
0000
0000
1E00
3300
6180
4080
8000
E000
0000
0C00
8C00
01C0
0040
40C0
6180
3300
1E00
0000
0000
ENDCHAR
STARTCHAR EB0C
ENCODING 60172
SWIDTH 1107 0
DWIDTH 10 0
BBX 10 20 0 0
BITMAP
0000
0000
1E00
2180
4080
0000
8040
8040
8040
0C00
0C00
0C00
8040
8040
8040
8040
4080
6180
1E00
0C00
ENDCHAR
STARTCHAR EB0D
ENCODING 60173
SWIDTH 1107 0
DWIDTH 10 0
BBX 10 20 0 0
BITMAP
0000
0000
01C0
0180
0180
0380
0300
0300
0300
0700
0600
0600
0E00
0E00
0C00
0C00
1C00
1800
3800
FE00
ENDCHAR
STARTCHAR EB0E
ENCODING 60174
SWIDTH 1107 0
DWIDTH 10 0
BBX 10 20 0 0
BITMAP
0000
0000
0000
3300
F3C0
8C40
8040
8040
C0C0
6180
6180
6180
6180
6180
6180
6180
6180
7F80
3F00
0000
ENDCHAR
STARTCHAR EB0F
ENCODING 60175
SWIDTH 1107 0
DWIDTH 10 0
BBX 10 20 0 0
BITMAP
0000
0000
6100
6180
4080
4080
4080
4080
4080
8040
8040
8040
4080
4080
4080
4080
4080
4080
6180
0000
ENDCHAR
STARTCHAR EB10
ENCODING 60176
SWIDTH 1107 0
DWIDTH 10 0
BBX 10 20 0 0
BITMAP
0000
0000
0000
0000
0000
0000
0000
0000
0000
0000
0000
0000
0000
0000
0000
0000
0000
0000
0000
0000
ENDCHAR
STARTCHAR EB11
ENCODING 60177
SWIDTH 1107 0
DWIDTH 10 0
BBX 10 20 0 0
BITMAP
0000
0780
0CC0
0840
0040
1100
1100
1000
1040
1040
2080
6780
4C00
9000
9000
3000
2000
E000
E000
0000
ENDCHAR
STARTCHAR EB12
ENCODING 60178
SWIDTH 1107 0
DWIDTH 10 0
BBX 10 20 0 0
BITMAP
0000
0000
0C00
7F80
4C80
6D80
6D80
2D00
8D40
8C40
FFC0
9E40
6D80
0C00
0C00
1E00
2100
6180
7F80
7F80
ENDCHAR
STARTCHAR EB13
ENCODING 60179
SWIDTH 1107 0
DWIDTH 10 0
BBX 10 20 0 0
BITMAP
0000
0000
3C00
7C00
FE00
FF00
FF00
FF00
FF00
FF00
FE00
7C00
3B80
33C0
26C0
2440
26C0
35C0
03C0
0100
ENDCHAR
STARTCHAR EB14
ENCODING 60180
SWIDTH 1107 0
DWIDTH 10 0
BBX 10 20 0 0
BITMAP
0000
0000
E7C0
0040
0080
0180
0100
0200
0200
0400
0C00
0800
0000
0000
0000
0000
0000
0000
FFC0
FFC0
ENDCHAR
STARTCHAR EB15
ENCODING 60181
SWIDTH 1107 0
DWIDTH 10 0
BBX 10 20 0 0
BITMAP
0000
0000
0000
0000
7C00
C600
8200
0200
0E80
1A40
9240
9200
5C00
1000
1040
1040
0F80
0000
0000
0000
ENDCHAR
STARTCHAR EB16
ENCODING 60182
SWIDTH 1107 0
DWIDTH 10 0
BBX 10 20 0 0
BITMAP
0000
0000
0000
8000
BFC0
BFC0
8000
0000
0000
8000
BFC0
8000
8000
0000
8000
3FC0
BFC0
8000
0000
0000
ENDCHAR
STARTCHAR EB17
ENCODING 60183
SWIDTH 1107 0
DWIDTH 10 0
BBX 10 20 0 0
BITMAP
0000
0000
0000
0000
3FC0
0000
0000
0000
3FC0
0000
0000
0000
3FC0
0000
0000
0000
3FC0
0000
0000
0000
ENDCHAR
STARTCHAR EB18
ENCODING 60184
SWIDTH 1107 0
DWIDTH 10 0
BBX 10 20 0 0
BITMAP
0000
0000
0200
0300
0F80
1E80
6040
4040
0040
BF80
E300
C200
8200
9C00
0400
2000
2000
2400
1C00
0000
ENDCHAR
STARTCHAR EB19
ENCODING 60185
SWIDTH 1107 0
DWIDTH 10 0
BBX 10 20 0 0
BITMAP
0000
0000
0000
0000
0000
0000
0000
1E00
2100
4080
0000
8040
8040
8040
0000
0000
0000
0000
0000
0000
ENDCHAR
STARTCHAR EB1A
ENCODING 60186
SWIDTH 1107 0
DWIDTH 10 0
BBX 10 20 0 0
BITMAP
0000
0000
0000
3F00
6180
C4C0
9E40
B340
B340
B340
9E40
C0C0
4080
6180
2100
3300
1200
1E00
0C00
0C00
ENDCHAR
STARTCHAR EB1B
ENCODING 60187
SWIDTH 1107 0
DWIDTH 10 0
BBX 10 20 0 0
BITMAP
0000
0000
0000
0C00
1200
2100
6180
8040
8040
8040
7F80
7F80
0000
0000
0000
0000
0000
FFC0
FFC0
0000
ENDCHAR
STARTCHAR EB1C
ENCODING 60188
SWIDTH 1107 0
DWIDTH 10 0
BBX 10 20 0 0
BITMAP
0000
0000
0000
0000
FFC0
8040
4080
6180
2100
1200
0C00
0C00
0000
0000
0000
0000
FFC0
0000
0000
0000
ENDCHAR
STARTCHAR EB1D
ENCODING 60189
SWIDTH 1107 0
DWIDTH 10 0
BBX 10 20 0 0
BITMAP
0000
0000
0000
0000
0000
0000
8C00
9D80
9D80
DD80
DD80
DFC0
EDC0
ED80
AC80
0000
0000
0000
0000
0000
ENDCHAR
STARTCHAR EB1E
ENCODING 60190
SWIDTH 1107 0
DWIDTH 10 0
BBX 10 20 0 0
BITMAP
0000
0000
0000
0000
0040
01C0
0F00
1C00
E000
8000
0000
8000
E000
7800
6E00
6BC0
3040
0000
0000
0000
ENDCHAR
STARTCHAR EB1F
ENCODING 60191
SWIDTH 1107 0
DWIDTH 10 0
BBX 10 20 0 0
BITMAP
0000
0000
1F00
3180
6080
4040
8D40
9240
9240
9240
8240
8240
8240
9680
9F80
8000
4000
6100
3E00
0C00
ENDCHAR
STARTCHAR EB20
ENCODING 60192
SWIDTH 1107 0
DWIDTH 10 0
BBX 10 20 0 0
BITMAP
0000
0000
0800
0800
FF80
0000
0040
1E40
0040
FF80
FF80
0800
0800
0800
0800
0800
0800
0800
0800
0800
ENDCHAR
STARTCHAR EB21
ENCODING 60193
SWIDTH 1107 0
DWIDTH 10 0
BBX 10 20 0 0
BITMAP
0000
0000
0000
0000
0C00
1E00
6180
C0C0
8040
6180
3300
2D00
6180
4180
6100
1200
0C00
0000
0000
0000
ENDCHAR
STARTCHAR EB22
ENCODING 60194
SWIDTH 1107 0
DWIDTH 10 0
BBX 10 20 0 0
BITMAP
0000
0000
0C00
0C00
1E00
1E00
0C00
6D80
4C80
8040
F3C0
8040
8040
4C80
4C80
0C00
1E00
1E00
0C00
0C00
ENDCHAR
STARTCHAR EB23
ENCODING 60195
SWIDTH 1107 0
DWIDTH 10 0
BBX 10 20 0 0
BITMAP
0000
0000
1FC0
1000
1FC0
1000
1000
0000
0000
FC00
FE00
02C0
FE00
0200
0200
0200
0200
0200
FE00
FC00
ENDCHAR
STARTCHAR EB24
ENCODING 60196
SWIDTH 1107 0
DWIDTH 10 0
BBX 10 20 0 0
BITMAP
0000
0000
0C00
0C00
1400
1400
2400
E400
0400
0540
05C0
0480
05C0
E540
2400
1400
1400
0C00
0C00
0000
ENDCHAR
STARTCHAR EB25
ENCODING 60197
SWIDTH 1107 0
DWIDTH 10 0
BBX 10 20 0 0
BITMAP
0000
0000
0000
0000
0000
0000
0000
6200
9200
B400
77C0
D400
9200
F200
0000
0000
0000
0000
0000
0000
ENDCHAR
STARTCHAR EB26
ENCODING 60198
SWIDTH 1107 0
DWIDTH 10 0
BBX 10 20 0 0
BITMAP
0000
0000
0000
FFC0
FFC0
0000
0000
3F00
3F00
0000
3E00
0000
0000
3800
0000
0000
FFC0
FFC0
0000
0000
ENDCHAR
STARTCHAR EB27
ENCODING 60199
SWIDTH 1107 0
DWIDTH 10 0
BBX 10 20 0 0
BITMAP
0000
0000
0000
0000
EDC0
FFC0
FFC0
FFC0
FFC0
FFC0
C0C0
9240
9240
9240
9240
8040
6180
1E00
0000
0000
ENDCHAR
STARTCHAR EB28
ENCODING 60200
SWIDTH 1107 0
DWIDTH 10 0
BBX 10 20 0 0
BITMAP
0000
0000
0000
FF80
0840
0840
0840
0840
0840
0840
0840
0800
09C0
0840
0800
0800
0940
0BC0
F200
0400
ENDCHAR
STARTCHAR EB29
ENCODING 60201
SWIDTH 1107 0
DWIDTH 10 0
BBX 10 20 0 0
BITMAP
0000
0000
0000
0C00
7F80
E1C0
E1C0
3F00
0D00
0D00
0D00
0C00
0C00
0C00
0C00
CCC0
7F80
1C00
0000
0000
ENDCHAR
STARTCHAR EB2A
ENCODING 60202
SWIDTH 1107 0
DWIDTH 10 0
BBX 10 20 0 0
BITMAP
0000
0000
1800
3800
3800
3C00
3C00
3A00
3B00
2900
4880
CCC0
80C0
0040
8140
42C0
0040
2400
1800
0000
ENDCHAR
STARTCHAR EB2B
ENCODING 60203
SWIDTH 1107 0
DWIDTH 10 0
BBX 10 20 0 0
BITMAP
0000
0000
0000
0000
1000
1C00
1440
1380
1380
1000
F000
1000
1000
1380
1440
1C00
1000
0000
0000
0000
ENDCHAR
STARTCHAR EB2C
ENCODING 60204
SWIDTH 1107 0
DWIDTH 10 0
BBX 10 20 0 0
BITMAP
0000
0000
0000
C000
E000
B000
9800
8E00
8200
8180
80C0
8040
80C0
8180
8200
8E00
9800
B000
E000
C000
ENDCHAR
STARTCHAR EB2D
ENCODING 60205
SWIDTH 1107 0
DWIDTH 10 0
BBX 10 20 0 0
BITMAP
0000
0000
3300
3300
3300
FFC0
FFC0
8040
8040
8040
8040
8040
C0C0
4080
3F00
1E00
0C00
0C00
0C00
0C00
ENDCHAR
STARTCHAR EB2E
ENCODING 60206
SWIDTH 1107 0
DWIDTH 10 0
BBX 10 20 0 0
BITMAP
0000
0000
0000
0000
0000
2380
2240
6240
5240
5240
1380
0240
F200
8A00
8A40
8FC0
0000
0000
0000
0000
ENDCHAR
STARTCHAR EB2F
ENCODING 60207
SWIDTH 1107 0
DWIDTH 10 0
BBX 10 20 0 0
BITMAP
0000
0000
0000
FFC0
0000
7F80
7F80
4080
7F80
0000
0000
7380
0280
0280
7380
7380
0000
FFC0
0000
0000
ENDCHAR
STARTCHAR EB30
ENCODING 60208
SWIDTH 1107 0
DWIDTH 10 0
BBX 10 20 0 0
BITMAP
0000
0000
FFC0
0000
6D80
6D80
6D80
6D80
6D80
6D80
6D80
6D80
6180
6180
6000
6000
6000
0000
FFC0
FFC0
ENDCHAR
STARTCHAR EB31
ENCODING 60209
SWIDTH 1107 0
DWIDTH 10 0
BBX 10 20 0 0
BITMAP
0000
0000
0000
0000
0000
0200
0200
1200
1600
3400
3400
3D00
3D00
E9C0
0800
0800
0000
0000
0000
0000
ENDCHAR
STARTCHAR EB32
ENCODING 60210
SWIDTH 1107 0
DWIDTH 10 0
BBX 10 20 0 0
BITMAP
0000
0000
1E00
2100
4080
0000
8C40
9A40
9240
0000
0400
0C00
8C40
8040
8C40
8040
4080
6180
1E00
0C00
ENDCHAR
STARTCHAR EB33
ENCODING 60211
SWIDTH 1107 0
DWIDTH 10 0
BBX 10 20 0 0
BITMAP
0000
0000
1040
10C0
71C0
71C0
6380
E380
C300
C200
C200
C200
E300
F380
F3C0
F3C0
F3C0
F3C0
6380
0000
ENDCHAR
STARTCHAR EB34
ENCODING 60212
SWIDTH 1107 0
DWIDTH 10 0
BBX 10 20 0 0
BITMAP
0000
0000
0000
8080
8000
E140
41C0
5CC0
54C0
5CC0
5DC0
7540
9440
9E80
0200
2200
2000
7F00
4100
4180
ENDCHAR
STARTCHAR EB35
ENCODING 60213
SWIDTH 1107 0
DWIDTH 10 0
BBX 10 20 0 0
BITMAP
0000
3C00
6200
4100
8100
A780
A680
0080
0080
8000
A000
9C00
8080
4080
73C0
13C0
0080
0080
0080
0000
ENDCHAR
STARTCHAR EB36
ENCODING 60214
SWIDTH 1107 0
DWIDTH 10 0
BBX 10 20 0 0
BITMAP
0000
0000
1000
13C0
F000
9180
1000
0000
8080
DE00
0080
0C00
00C0
00C0
0C00
0000
0C00
0000
1E00
1E00
ENDCHAR
STARTCHAR EB37
ENCODING 60215
SWIDTH 1107 0
DWIDTH 10 0
BBX 10 20 0 0
BITMAP
0000
0000
E000
2300
6180
4000
8040
8040
8040
8040
8040
8040
8040
8040
8040
8040
4080
6180
1E00
0C00
ENDCHAR
STARTCHAR EB38
ENCODING 60216
SWIDTH 1107 0
DWIDTH 10 0
BBX 10 20 0 0
BITMAP
0000
0000
0000
0000
0840
0C40
0780
0300
0380
0CC0
0840
0000
0000
0000
E000
E000
E000
E000
E000
E000
ENDCHAR
STARTCHAR EB39
ENCODING 60217
SWIDTH 1107 0
DWIDTH 10 0
BBX 10 20 0 0
BITMAP
0000
0000
FFC0
0040
0040
0040
0040
0040
0040
0100
0380
0440
0440
0E80
FC80
0400
0440
3240
0380
0000
ENDCHAR
STARTCHAR EB3A
ENCODING 60218
SWIDTH 1107 0
DWIDTH 10 0
BBX 10 20 0 0
BITMAP
0000
0000
0000
0040
00C0
0180
0300
0600
0400
8400
C600
6300
3180
18C0
0840
1000
2000
4000
8000
0000
ENDCHAR
STARTCHAR EB3B
ENCODING 60219
SWIDTH 1107 0
DWIDTH 10 0
BBX 10 20 0 0
BITMAP
0000
0000
0000
0000
0000
0000
0000
0000
0000
0000
FFC0
0000
0000
0000
0000
0000
0000
0000
0000
0000
ENDCHAR
STARTCHAR EB3C
ENCODING 60220
SWIDTH 1107 0
DWIDTH 10 0
BBX 10 20 0 0
BITMAP
0000
0000
0100
0500
3580
4980
4500
6000
CFC0
4000
0000
FF00
0080
3480
1880
1880
3480
0080
FF80
FF00
ENDCHAR
STARTCHAR EB3D
ENCODING 60221
SWIDTH 1107 0
DWIDTH 10 0
BBX 10 20 0 0
BITMAP
0000
0000
3D00
2100
A9C0
F900
7100
21C0
0000
FFC0
FFC0
8040
8E40
9840
9840
9840
8E40
8040
FFC0
FFC0
ENDCHAR
STARTCHAR EB3E
ENCODING 60222
SWIDTH 1107 0
DWIDTH 10 0
BBX 10 20 0 0
BITMAP
0000
0000
0000
F3C0
8200
A200
8200
8200
A3C0
8100
A3C0
A3C0
8100
8040
FFC0
8040
0040
3040
B3C0
2000
ENDCHAR
STARTCHAR EB3F
ENCODING 60223
SWIDTH 1107 0
DWIDTH 10 0
BBX 10 20 0 0
BITMAP
0000
0000
FFC0
C040
C440
CC40
CE40
D540
D440
CE40
C740
D540
C440
F5C0
8440
8440
8440
F5C0
0400
0400
ENDCHAR
STARTCHAR EB40
ENCODING 60224
SWIDTH 1107 0
DWIDTH 10 0
BBX 10 20 0 0
BITMAP
0000
0000
FF80
8080
A000
8180
8080
A040
8FC0
A040
A040
8080
8080
FF80
8080
0080
3080
B780
2000
0000
ENDCHAR
STARTCHAR EB41
ENCODING 60225
SWIDTH 1107 0
DWIDTH 10 0
BBX 10 20 0 0
BITMAP
0000
0000
FFC0
C040
E040
C040
C040
E040
C440
CE40
C740
D540
C440
F5C0
8440
8440
8440
F5C0
0400
0400
ENDCHAR
STARTCHAR EB42
ENCODING 60226
SWIDTH 1107 0
DWIDTH 10 0
BBX 10 20 0 0
BITMAP
0000
0000
0000
FFC0
0000
0C00
0C00
0C00
0C00
0C00
0C00
0C00
0000
0C00
0000
0000
EFC0
3000
3000
2000
ENDCHAR
STARTCHAR EB43
ENCODING 60227
SWIDTH 1107 0
DWIDTH 10 0
BBX 10 20 0 0
BITMAP
0000
0000
FE00
0300
0180
00C0
0040
0000
3E00
0000
0000
0000
0000
0000
3E00
0000
0000
0000
FFC0
0000
ENDCHAR
STARTCHAR EB44
ENCODING 60228
SWIDTH 1107 0
DWIDTH 10 0
BBX 10 20 0 0
BITMAP
0000
0000
01C0
0300
0440
0C40
1040
F640
2600
6680
4280
8180
8100
4200
6200
2400
1C00
1800
CE00
CE00
ENDCHAR
STARTCHAR EB45
ENCODING 60229
SWIDTH 1107 0
DWIDTH 10 0
BBX 10 20 0 0
BITMAP
0000
0000
0000
F000
0F80
0F80
0000
0000
07C0
6000
F040
9040
6040
6800
6800
A080
9080
6380
0000
0000
ENDCHAR
STARTCHAR EB46
ENCODING 60230
SWIDTH 1107 0
DWIDTH 10 0
BBX 10 20 0 0
BITMAP
0000
0000
0000
F000
0FC0
0000
0000
0FC0
0000
6000
F000
8000
E800
6800
6800
E800
9000
73C0
0000
0000
ENDCHAR
STARTCHAR EB47
ENCODING 60231
SWIDTH 1107 0
DWIDTH 10 0
BBX 10 20 0 0
BITMAP
0000
0000
E000
7000
1C00
0C00
0200
0200
0100
C180
E180
3080
1040
0840
0C40
0C40
8C40
8440
8440
C440
ENDCHAR
STARTCHAR EB48
ENCODING 60232
SWIDTH 1107 0
DWIDTH 10 0
BBX 10 20 0 0
BITMAP
0000
0000
0000
0000
3F00
4080
0600
8740
0780
8740
8640
4680
6580
2500
1200
1200
0C00
0C00
0000
0000
ENDCHAR
STARTCHAR EB49
ENCODING 60233
SWIDTH 1107 0
DWIDTH 10 0
BBX 10 20 0 0
BITMAP
0000
0000
3FC0
2040
2000
FE00
FE00
6500
6500
7D00
7D00
0100
0100
0100
01C0
01C0
0100
0100
FF00
FF00
ENDCHAR
STARTCHAR EB4A
ENCODING 60234
SWIDTH 1107 0
DWIDTH 10 0
BBX 10 20 0 0
BITMAP
0000
0000
FE00
3300
3380
3280
3200
3E40
00C0
0140
0040
0280
0180
0500
0A00
0E00
FC00
1C00
1000
0000
ENDCHAR
ENDFONT
